%TF.GenerationSoftware,KiCad,Pcbnew,8.0.7*%
%TF.CreationDate,2025-10-15T01:11:38+02:00*%
%TF.ProjectId,Mandalorian_and_Moff_Gideon,4d616e64-616c-46f7-9269-616e5f616e64,rev?*%
%TF.SameCoordinates,Original*%
%TF.FileFunction,Legend,Bot*%
%TF.FilePolarity,Positive*%
%FSLAX46Y46*%
G04 Gerber Fmt 4.6, Leading zero omitted, Abs format (unit mm)*
G04 Created by KiCad (PCBNEW 8.0.7) date 2025-10-15 01:11:38*
%MOMM*%
%LPD*%
G01*
G04 APERTURE LIST*
%ADD10C,0.300000*%
%ADD11C,0.150000*%
G04 APERTURE END LIST*
D10*
X224648346Y-105530828D02*
X225148346Y-104816542D01*
X225505489Y-105530828D02*
X225505489Y-104030828D01*
X225505489Y-104030828D02*
X224934060Y-104030828D01*
X224934060Y-104030828D02*
X224791203Y-104102257D01*
X224791203Y-104102257D02*
X224719774Y-104173685D01*
X224719774Y-104173685D02*
X224648346Y-104316542D01*
X224648346Y-104316542D02*
X224648346Y-104530828D01*
X224648346Y-104530828D02*
X224719774Y-104673685D01*
X224719774Y-104673685D02*
X224791203Y-104745114D01*
X224791203Y-104745114D02*
X224934060Y-104816542D01*
X224934060Y-104816542D02*
X225505489Y-104816542D01*
X223434060Y-105459400D02*
X223576917Y-105530828D01*
X223576917Y-105530828D02*
X223862632Y-105530828D01*
X223862632Y-105530828D02*
X224005489Y-105459400D01*
X224005489Y-105459400D02*
X224076917Y-105316542D01*
X224076917Y-105316542D02*
X224076917Y-104745114D01*
X224076917Y-104745114D02*
X224005489Y-104602257D01*
X224005489Y-104602257D02*
X223862632Y-104530828D01*
X223862632Y-104530828D02*
X223576917Y-104530828D01*
X223576917Y-104530828D02*
X223434060Y-104602257D01*
X223434060Y-104602257D02*
X223362632Y-104745114D01*
X223362632Y-104745114D02*
X223362632Y-104887971D01*
X223362632Y-104887971D02*
X224076917Y-105030828D01*
X222862632Y-104530828D02*
X222505489Y-105530828D01*
X222505489Y-105530828D02*
X222148346Y-104530828D01*
X221576918Y-105387971D02*
X221505489Y-105459400D01*
X221505489Y-105459400D02*
X221576918Y-105530828D01*
X221576918Y-105530828D02*
X221648346Y-105459400D01*
X221648346Y-105459400D02*
X221576918Y-105387971D01*
X221576918Y-105387971D02*
X221576918Y-105530828D01*
X220934060Y-104173685D02*
X220862632Y-104102257D01*
X220862632Y-104102257D02*
X220719775Y-104030828D01*
X220719775Y-104030828D02*
X220362632Y-104030828D01*
X220362632Y-104030828D02*
X220219775Y-104102257D01*
X220219775Y-104102257D02*
X220148346Y-104173685D01*
X220148346Y-104173685D02*
X220076917Y-104316542D01*
X220076917Y-104316542D02*
X220076917Y-104459400D01*
X220076917Y-104459400D02*
X220148346Y-104673685D01*
X220148346Y-104673685D02*
X221005489Y-105530828D01*
X221005489Y-105530828D02*
X220076917Y-105530828D01*
X217862632Y-106102257D02*
X217934061Y-106030828D01*
X217934061Y-106030828D02*
X218076918Y-105816542D01*
X218076918Y-105816542D02*
X218148347Y-105673685D01*
X218148347Y-105673685D02*
X218219775Y-105459400D01*
X218219775Y-105459400D02*
X218291204Y-105102257D01*
X218291204Y-105102257D02*
X218291204Y-104816542D01*
X218291204Y-104816542D02*
X218219775Y-104459400D01*
X218219775Y-104459400D02*
X218148347Y-104245114D01*
X218148347Y-104245114D02*
X218076918Y-104102257D01*
X218076918Y-104102257D02*
X217934061Y-103887971D01*
X217934061Y-103887971D02*
X217862632Y-103816542D01*
X217362632Y-104173685D02*
X217291204Y-104102257D01*
X217291204Y-104102257D02*
X217148347Y-104030828D01*
X217148347Y-104030828D02*
X216791204Y-104030828D01*
X216791204Y-104030828D02*
X216648347Y-104102257D01*
X216648347Y-104102257D02*
X216576918Y-104173685D01*
X216576918Y-104173685D02*
X216505489Y-104316542D01*
X216505489Y-104316542D02*
X216505489Y-104459400D01*
X216505489Y-104459400D02*
X216576918Y-104673685D01*
X216576918Y-104673685D02*
X217434061Y-105530828D01*
X217434061Y-105530828D02*
X216505489Y-105530828D01*
X215576918Y-104030828D02*
X215434061Y-104030828D01*
X215434061Y-104030828D02*
X215291204Y-104102257D01*
X215291204Y-104102257D02*
X215219776Y-104173685D01*
X215219776Y-104173685D02*
X215148347Y-104316542D01*
X215148347Y-104316542D02*
X215076918Y-104602257D01*
X215076918Y-104602257D02*
X215076918Y-104959400D01*
X215076918Y-104959400D02*
X215148347Y-105245114D01*
X215148347Y-105245114D02*
X215219776Y-105387971D01*
X215219776Y-105387971D02*
X215291204Y-105459400D01*
X215291204Y-105459400D02*
X215434061Y-105530828D01*
X215434061Y-105530828D02*
X215576918Y-105530828D01*
X215576918Y-105530828D02*
X215719776Y-105459400D01*
X215719776Y-105459400D02*
X215791204Y-105387971D01*
X215791204Y-105387971D02*
X215862633Y-105245114D01*
X215862633Y-105245114D02*
X215934061Y-104959400D01*
X215934061Y-104959400D02*
X215934061Y-104602257D01*
X215934061Y-104602257D02*
X215862633Y-104316542D01*
X215862633Y-104316542D02*
X215791204Y-104173685D01*
X215791204Y-104173685D02*
X215719776Y-104102257D01*
X215719776Y-104102257D02*
X215576918Y-104030828D01*
X214505490Y-104173685D02*
X214434062Y-104102257D01*
X214434062Y-104102257D02*
X214291205Y-104030828D01*
X214291205Y-104030828D02*
X213934062Y-104030828D01*
X213934062Y-104030828D02*
X213791205Y-104102257D01*
X213791205Y-104102257D02*
X213719776Y-104173685D01*
X213719776Y-104173685D02*
X213648347Y-104316542D01*
X213648347Y-104316542D02*
X213648347Y-104459400D01*
X213648347Y-104459400D02*
X213719776Y-104673685D01*
X213719776Y-104673685D02*
X214576919Y-105530828D01*
X214576919Y-105530828D02*
X213648347Y-105530828D01*
X212291205Y-104030828D02*
X213005491Y-104030828D01*
X213005491Y-104030828D02*
X213076919Y-104745114D01*
X213076919Y-104745114D02*
X213005491Y-104673685D01*
X213005491Y-104673685D02*
X212862634Y-104602257D01*
X212862634Y-104602257D02*
X212505491Y-104602257D01*
X212505491Y-104602257D02*
X212362634Y-104673685D01*
X212362634Y-104673685D02*
X212291205Y-104745114D01*
X212291205Y-104745114D02*
X212219776Y-104887971D01*
X212219776Y-104887971D02*
X212219776Y-105245114D01*
X212219776Y-105245114D02*
X212291205Y-105387971D01*
X212291205Y-105387971D02*
X212362634Y-105459400D01*
X212362634Y-105459400D02*
X212505491Y-105530828D01*
X212505491Y-105530828D02*
X212862634Y-105530828D01*
X212862634Y-105530828D02*
X213005491Y-105459400D01*
X213005491Y-105459400D02*
X213076919Y-105387971D01*
X211576920Y-104959400D02*
X210434063Y-104959400D01*
X208934062Y-105530828D02*
X209791205Y-105530828D01*
X209362634Y-105530828D02*
X209362634Y-104030828D01*
X209362634Y-104030828D02*
X209505491Y-104245114D01*
X209505491Y-104245114D02*
X209648348Y-104387971D01*
X209648348Y-104387971D02*
X209791205Y-104459400D01*
X208005491Y-104030828D02*
X207862634Y-104030828D01*
X207862634Y-104030828D02*
X207719777Y-104102257D01*
X207719777Y-104102257D02*
X207648349Y-104173685D01*
X207648349Y-104173685D02*
X207576920Y-104316542D01*
X207576920Y-104316542D02*
X207505491Y-104602257D01*
X207505491Y-104602257D02*
X207505491Y-104959400D01*
X207505491Y-104959400D02*
X207576920Y-105245114D01*
X207576920Y-105245114D02*
X207648349Y-105387971D01*
X207648349Y-105387971D02*
X207719777Y-105459400D01*
X207719777Y-105459400D02*
X207862634Y-105530828D01*
X207862634Y-105530828D02*
X208005491Y-105530828D01*
X208005491Y-105530828D02*
X208148349Y-105459400D01*
X208148349Y-105459400D02*
X208219777Y-105387971D01*
X208219777Y-105387971D02*
X208291206Y-105245114D01*
X208291206Y-105245114D02*
X208362634Y-104959400D01*
X208362634Y-104959400D02*
X208362634Y-104602257D01*
X208362634Y-104602257D02*
X208291206Y-104316542D01*
X208291206Y-104316542D02*
X208219777Y-104173685D01*
X208219777Y-104173685D02*
X208148349Y-104102257D01*
X208148349Y-104102257D02*
X208005491Y-104030828D01*
X206862635Y-104959400D02*
X205719778Y-104959400D01*
X204219777Y-105530828D02*
X205076920Y-105530828D01*
X204648349Y-105530828D02*
X204648349Y-104030828D01*
X204648349Y-104030828D02*
X204791206Y-104245114D01*
X204791206Y-104245114D02*
X204934063Y-104387971D01*
X204934063Y-104387971D02*
X205076920Y-104459400D01*
X202862635Y-104030828D02*
X203576921Y-104030828D01*
X203576921Y-104030828D02*
X203648349Y-104745114D01*
X203648349Y-104745114D02*
X203576921Y-104673685D01*
X203576921Y-104673685D02*
X203434064Y-104602257D01*
X203434064Y-104602257D02*
X203076921Y-104602257D01*
X203076921Y-104602257D02*
X202934064Y-104673685D01*
X202934064Y-104673685D02*
X202862635Y-104745114D01*
X202862635Y-104745114D02*
X202791206Y-104887971D01*
X202791206Y-104887971D02*
X202791206Y-105245114D01*
X202791206Y-105245114D02*
X202862635Y-105387971D01*
X202862635Y-105387971D02*
X202934064Y-105459400D01*
X202934064Y-105459400D02*
X203076921Y-105530828D01*
X203076921Y-105530828D02*
X203434064Y-105530828D01*
X203434064Y-105530828D02*
X203576921Y-105459400D01*
X203576921Y-105459400D02*
X203648349Y-105387971D01*
X202291207Y-106102257D02*
X202219778Y-106030828D01*
X202219778Y-106030828D02*
X202076921Y-105816542D01*
X202076921Y-105816542D02*
X202005493Y-105673685D01*
X202005493Y-105673685D02*
X201934064Y-105459400D01*
X201934064Y-105459400D02*
X201862635Y-105102257D01*
X201862635Y-105102257D02*
X201862635Y-104816542D01*
X201862635Y-104816542D02*
X201934064Y-104459400D01*
X201934064Y-104459400D02*
X202005493Y-104245114D01*
X202005493Y-104245114D02*
X202076921Y-104102257D01*
X202076921Y-104102257D02*
X202219778Y-103887971D01*
X202219778Y-103887971D02*
X202291207Y-103816542D01*
X237575489Y-73275912D02*
X237575489Y-71775912D01*
X237575489Y-71775912D02*
X237218346Y-71775912D01*
X237218346Y-71775912D02*
X237004060Y-71847341D01*
X237004060Y-71847341D02*
X236861203Y-71990198D01*
X236861203Y-71990198D02*
X236789774Y-72133055D01*
X236789774Y-72133055D02*
X236718346Y-72418769D01*
X236718346Y-72418769D02*
X236718346Y-72633055D01*
X236718346Y-72633055D02*
X236789774Y-72918769D01*
X236789774Y-72918769D02*
X236861203Y-73061626D01*
X236861203Y-73061626D02*
X237004060Y-73204484D01*
X237004060Y-73204484D02*
X237218346Y-73275912D01*
X237218346Y-73275912D02*
X237575489Y-73275912D01*
X235504060Y-73204484D02*
X235646917Y-73275912D01*
X235646917Y-73275912D02*
X235932632Y-73275912D01*
X235932632Y-73275912D02*
X236075489Y-73204484D01*
X236075489Y-73204484D02*
X236146917Y-73061626D01*
X236146917Y-73061626D02*
X236146917Y-72490198D01*
X236146917Y-72490198D02*
X236075489Y-72347341D01*
X236075489Y-72347341D02*
X235932632Y-72275912D01*
X235932632Y-72275912D02*
X235646917Y-72275912D01*
X235646917Y-72275912D02*
X235504060Y-72347341D01*
X235504060Y-72347341D02*
X235432632Y-72490198D01*
X235432632Y-72490198D02*
X235432632Y-72633055D01*
X235432632Y-72633055D02*
X236146917Y-72775912D01*
X234861203Y-73204484D02*
X234718346Y-73275912D01*
X234718346Y-73275912D02*
X234432632Y-73275912D01*
X234432632Y-73275912D02*
X234289775Y-73204484D01*
X234289775Y-73204484D02*
X234218346Y-73061626D01*
X234218346Y-73061626D02*
X234218346Y-72990198D01*
X234218346Y-72990198D02*
X234289775Y-72847341D01*
X234289775Y-72847341D02*
X234432632Y-72775912D01*
X234432632Y-72775912D02*
X234646918Y-72775912D01*
X234646918Y-72775912D02*
X234789775Y-72704484D01*
X234789775Y-72704484D02*
X234861203Y-72561626D01*
X234861203Y-72561626D02*
X234861203Y-72490198D01*
X234861203Y-72490198D02*
X234789775Y-72347341D01*
X234789775Y-72347341D02*
X234646918Y-72275912D01*
X234646918Y-72275912D02*
X234432632Y-72275912D01*
X234432632Y-72275912D02*
X234289775Y-72347341D01*
X233575489Y-73275912D02*
X233575489Y-72275912D01*
X233575489Y-71775912D02*
X233646917Y-71847341D01*
X233646917Y-71847341D02*
X233575489Y-71918769D01*
X233575489Y-71918769D02*
X233504060Y-71847341D01*
X233504060Y-71847341D02*
X233575489Y-71775912D01*
X233575489Y-71775912D02*
X233575489Y-71918769D01*
X232218346Y-72275912D02*
X232218346Y-73490198D01*
X232218346Y-73490198D02*
X232289774Y-73633055D01*
X232289774Y-73633055D02*
X232361203Y-73704484D01*
X232361203Y-73704484D02*
X232504060Y-73775912D01*
X232504060Y-73775912D02*
X232718346Y-73775912D01*
X232718346Y-73775912D02*
X232861203Y-73704484D01*
X232218346Y-73204484D02*
X232361203Y-73275912D01*
X232361203Y-73275912D02*
X232646917Y-73275912D01*
X232646917Y-73275912D02*
X232789774Y-73204484D01*
X232789774Y-73204484D02*
X232861203Y-73133055D01*
X232861203Y-73133055D02*
X232932631Y-72990198D01*
X232932631Y-72990198D02*
X232932631Y-72561626D01*
X232932631Y-72561626D02*
X232861203Y-72418769D01*
X232861203Y-72418769D02*
X232789774Y-72347341D01*
X232789774Y-72347341D02*
X232646917Y-72275912D01*
X232646917Y-72275912D02*
X232361203Y-72275912D01*
X232361203Y-72275912D02*
X232218346Y-72347341D01*
X231504060Y-72275912D02*
X231504060Y-73275912D01*
X231504060Y-72418769D02*
X231432631Y-72347341D01*
X231432631Y-72347341D02*
X231289774Y-72275912D01*
X231289774Y-72275912D02*
X231075488Y-72275912D01*
X231075488Y-72275912D02*
X230932631Y-72347341D01*
X230932631Y-72347341D02*
X230861203Y-72490198D01*
X230861203Y-72490198D02*
X230861203Y-73275912D01*
X229575488Y-73204484D02*
X229718345Y-73275912D01*
X229718345Y-73275912D02*
X230004060Y-73275912D01*
X230004060Y-73275912D02*
X230146917Y-73204484D01*
X230146917Y-73204484D02*
X230218345Y-73061626D01*
X230218345Y-73061626D02*
X230218345Y-72490198D01*
X230218345Y-72490198D02*
X230146917Y-72347341D01*
X230146917Y-72347341D02*
X230004060Y-72275912D01*
X230004060Y-72275912D02*
X229718345Y-72275912D01*
X229718345Y-72275912D02*
X229575488Y-72347341D01*
X229575488Y-72347341D02*
X229504060Y-72490198D01*
X229504060Y-72490198D02*
X229504060Y-72633055D01*
X229504060Y-72633055D02*
X230218345Y-72775912D01*
X228218346Y-73275912D02*
X228218346Y-71775912D01*
X228218346Y-73204484D02*
X228361203Y-73275912D01*
X228361203Y-73275912D02*
X228646917Y-73275912D01*
X228646917Y-73275912D02*
X228789774Y-73204484D01*
X228789774Y-73204484D02*
X228861203Y-73133055D01*
X228861203Y-73133055D02*
X228932631Y-72990198D01*
X228932631Y-72990198D02*
X228932631Y-72561626D01*
X228932631Y-72561626D02*
X228861203Y-72418769D01*
X228861203Y-72418769D02*
X228789774Y-72347341D01*
X228789774Y-72347341D02*
X228646917Y-72275912D01*
X228646917Y-72275912D02*
X228361203Y-72275912D01*
X228361203Y-72275912D02*
X228218346Y-72347341D01*
X226361203Y-73275912D02*
X226361203Y-71775912D01*
X226361203Y-72347341D02*
X226218346Y-72275912D01*
X226218346Y-72275912D02*
X225932631Y-72275912D01*
X225932631Y-72275912D02*
X225789774Y-72347341D01*
X225789774Y-72347341D02*
X225718346Y-72418769D01*
X225718346Y-72418769D02*
X225646917Y-72561626D01*
X225646917Y-72561626D02*
X225646917Y-72990198D01*
X225646917Y-72990198D02*
X225718346Y-73133055D01*
X225718346Y-73133055D02*
X225789774Y-73204484D01*
X225789774Y-73204484D02*
X225932631Y-73275912D01*
X225932631Y-73275912D02*
X226218346Y-73275912D01*
X226218346Y-73275912D02*
X226361203Y-73204484D01*
X225146917Y-72275912D02*
X224789774Y-73275912D01*
X224432631Y-72275912D02*
X224789774Y-73275912D01*
X224789774Y-73275912D02*
X224932631Y-73633055D01*
X224932631Y-73633055D02*
X225004060Y-73704484D01*
X225004060Y-73704484D02*
X225146917Y-73775912D01*
X222932631Y-71775912D02*
X222432631Y-73275912D01*
X222432631Y-73275912D02*
X221932631Y-71775912D01*
X221432632Y-73133055D02*
X221361203Y-73204484D01*
X221361203Y-73204484D02*
X221432632Y-73275912D01*
X221432632Y-73275912D02*
X221504060Y-73204484D01*
X221504060Y-73204484D02*
X221432632Y-73133055D01*
X221432632Y-73133055D02*
X221432632Y-73275912D01*
X220718346Y-73275912D02*
X220718346Y-71775912D01*
X220718346Y-71775912D02*
X220146917Y-71775912D01*
X220146917Y-71775912D02*
X220004060Y-71847341D01*
X220004060Y-71847341D02*
X219932631Y-71918769D01*
X219932631Y-71918769D02*
X219861203Y-72061626D01*
X219861203Y-72061626D02*
X219861203Y-72275912D01*
X219861203Y-72275912D02*
X219932631Y-72418769D01*
X219932631Y-72418769D02*
X220004060Y-72490198D01*
X220004060Y-72490198D02*
X220146917Y-72561626D01*
X220146917Y-72561626D02*
X220718346Y-72561626D01*
X219004060Y-73275912D02*
X219146917Y-73204484D01*
X219146917Y-73204484D02*
X219218346Y-73133055D01*
X219218346Y-73133055D02*
X219289774Y-72990198D01*
X219289774Y-72990198D02*
X219289774Y-72561626D01*
X219289774Y-72561626D02*
X219218346Y-72418769D01*
X219218346Y-72418769D02*
X219146917Y-72347341D01*
X219146917Y-72347341D02*
X219004060Y-72275912D01*
X219004060Y-72275912D02*
X218789774Y-72275912D01*
X218789774Y-72275912D02*
X218646917Y-72347341D01*
X218646917Y-72347341D02*
X218575489Y-72418769D01*
X218575489Y-72418769D02*
X218504060Y-72561626D01*
X218504060Y-72561626D02*
X218504060Y-72990198D01*
X218504060Y-72990198D02*
X218575489Y-73133055D01*
X218575489Y-73133055D02*
X218646917Y-73204484D01*
X218646917Y-73204484D02*
X218789774Y-73275912D01*
X218789774Y-73275912D02*
X219004060Y-73275912D01*
X217218346Y-72275912D02*
X217218346Y-73275912D01*
X217861203Y-72275912D02*
X217861203Y-73061626D01*
X217861203Y-73061626D02*
X217789774Y-73204484D01*
X217789774Y-73204484D02*
X217646917Y-73275912D01*
X217646917Y-73275912D02*
X217432631Y-73275912D01*
X217432631Y-73275912D02*
X217289774Y-73204484D01*
X217289774Y-73204484D02*
X217218346Y-73133055D01*
X216575488Y-73204484D02*
X216432631Y-73275912D01*
X216432631Y-73275912D02*
X216146917Y-73275912D01*
X216146917Y-73275912D02*
X216004060Y-73204484D01*
X216004060Y-73204484D02*
X215932631Y-73061626D01*
X215932631Y-73061626D02*
X215932631Y-72990198D01*
X215932631Y-72990198D02*
X216004060Y-72847341D01*
X216004060Y-72847341D02*
X216146917Y-72775912D01*
X216146917Y-72775912D02*
X216361203Y-72775912D01*
X216361203Y-72775912D02*
X216504060Y-72704484D01*
X216504060Y-72704484D02*
X216575488Y-72561626D01*
X216575488Y-72561626D02*
X216575488Y-72490198D01*
X216575488Y-72490198D02*
X216504060Y-72347341D01*
X216504060Y-72347341D02*
X216361203Y-72275912D01*
X216361203Y-72275912D02*
X216146917Y-72275912D01*
X216146917Y-72275912D02*
X216004060Y-72347341D01*
X215504059Y-72275912D02*
X214932631Y-72275912D01*
X215289774Y-71775912D02*
X215289774Y-73061626D01*
X215289774Y-73061626D02*
X215218345Y-73204484D01*
X215218345Y-73204484D02*
X215075488Y-73275912D01*
X215075488Y-73275912D02*
X214932631Y-73275912D01*
X214432631Y-73275912D02*
X214432631Y-71775912D01*
X214289774Y-72704484D02*
X213861202Y-73275912D01*
X213861202Y-72275912D02*
X214432631Y-72847341D01*
X212575488Y-73275912D02*
X212575488Y-72490198D01*
X212575488Y-72490198D02*
X212646916Y-72347341D01*
X212646916Y-72347341D02*
X212789773Y-72275912D01*
X212789773Y-72275912D02*
X213075488Y-72275912D01*
X213075488Y-72275912D02*
X213218345Y-72347341D01*
X212575488Y-73204484D02*
X212718345Y-73275912D01*
X212718345Y-73275912D02*
X213075488Y-73275912D01*
X213075488Y-73275912D02*
X213218345Y-73204484D01*
X213218345Y-73204484D02*
X213289773Y-73061626D01*
X213289773Y-73061626D02*
X213289773Y-72918769D01*
X213289773Y-72918769D02*
X213218345Y-72775912D01*
X213218345Y-72775912D02*
X213075488Y-72704484D01*
X213075488Y-72704484D02*
X212718345Y-72704484D01*
X212718345Y-72704484D02*
X212575488Y-72633055D01*
X237575489Y-75690828D02*
X237575489Y-74190828D01*
X237575489Y-74190828D02*
X237075489Y-75262257D01*
X237075489Y-75262257D02*
X236575489Y-74190828D01*
X236575489Y-74190828D02*
X236575489Y-75690828D01*
X235218346Y-75690828D02*
X235218346Y-74905114D01*
X235218346Y-74905114D02*
X235289774Y-74762257D01*
X235289774Y-74762257D02*
X235432631Y-74690828D01*
X235432631Y-74690828D02*
X235718346Y-74690828D01*
X235718346Y-74690828D02*
X235861203Y-74762257D01*
X235218346Y-75619400D02*
X235361203Y-75690828D01*
X235361203Y-75690828D02*
X235718346Y-75690828D01*
X235718346Y-75690828D02*
X235861203Y-75619400D01*
X235861203Y-75619400D02*
X235932631Y-75476542D01*
X235932631Y-75476542D02*
X235932631Y-75333685D01*
X235932631Y-75333685D02*
X235861203Y-75190828D01*
X235861203Y-75190828D02*
X235718346Y-75119400D01*
X235718346Y-75119400D02*
X235361203Y-75119400D01*
X235361203Y-75119400D02*
X235218346Y-75047971D01*
X233861203Y-75690828D02*
X233861203Y-74190828D01*
X233861203Y-75619400D02*
X234004060Y-75690828D01*
X234004060Y-75690828D02*
X234289774Y-75690828D01*
X234289774Y-75690828D02*
X234432631Y-75619400D01*
X234432631Y-75619400D02*
X234504060Y-75547971D01*
X234504060Y-75547971D02*
X234575488Y-75405114D01*
X234575488Y-75405114D02*
X234575488Y-74976542D01*
X234575488Y-74976542D02*
X234504060Y-74833685D01*
X234504060Y-74833685D02*
X234432631Y-74762257D01*
X234432631Y-74762257D02*
X234289774Y-74690828D01*
X234289774Y-74690828D02*
X234004060Y-74690828D01*
X234004060Y-74690828D02*
X233861203Y-74762257D01*
X232575488Y-75619400D02*
X232718345Y-75690828D01*
X232718345Y-75690828D02*
X233004060Y-75690828D01*
X233004060Y-75690828D02*
X233146917Y-75619400D01*
X233146917Y-75619400D02*
X233218345Y-75476542D01*
X233218345Y-75476542D02*
X233218345Y-74905114D01*
X233218345Y-74905114D02*
X233146917Y-74762257D01*
X233146917Y-74762257D02*
X233004060Y-74690828D01*
X233004060Y-74690828D02*
X232718345Y-74690828D01*
X232718345Y-74690828D02*
X232575488Y-74762257D01*
X232575488Y-74762257D02*
X232504060Y-74905114D01*
X232504060Y-74905114D02*
X232504060Y-75047971D01*
X232504060Y-75047971D02*
X233218345Y-75190828D01*
X230718346Y-75690828D02*
X230718346Y-74690828D01*
X230718346Y-74190828D02*
X230789774Y-74262257D01*
X230789774Y-74262257D02*
X230718346Y-74333685D01*
X230718346Y-74333685D02*
X230646917Y-74262257D01*
X230646917Y-74262257D02*
X230718346Y-74190828D01*
X230718346Y-74190828D02*
X230718346Y-74333685D01*
X230004060Y-74690828D02*
X230004060Y-75690828D01*
X230004060Y-74833685D02*
X229932631Y-74762257D01*
X229932631Y-74762257D02*
X229789774Y-74690828D01*
X229789774Y-74690828D02*
X229575488Y-74690828D01*
X229575488Y-74690828D02*
X229432631Y-74762257D01*
X229432631Y-74762257D02*
X229361203Y-74905114D01*
X229361203Y-74905114D02*
X229361203Y-75690828D01*
X226646917Y-75547971D02*
X226718345Y-75619400D01*
X226718345Y-75619400D02*
X226932631Y-75690828D01*
X226932631Y-75690828D02*
X227075488Y-75690828D01*
X227075488Y-75690828D02*
X227289774Y-75619400D01*
X227289774Y-75619400D02*
X227432631Y-75476542D01*
X227432631Y-75476542D02*
X227504060Y-75333685D01*
X227504060Y-75333685D02*
X227575488Y-75047971D01*
X227575488Y-75047971D02*
X227575488Y-74833685D01*
X227575488Y-74833685D02*
X227504060Y-74547971D01*
X227504060Y-74547971D02*
X227432631Y-74405114D01*
X227432631Y-74405114D02*
X227289774Y-74262257D01*
X227289774Y-74262257D02*
X227075488Y-74190828D01*
X227075488Y-74190828D02*
X226932631Y-74190828D01*
X226932631Y-74190828D02*
X226718345Y-74262257D01*
X226718345Y-74262257D02*
X226646917Y-74333685D01*
X226146917Y-74690828D02*
X225361203Y-74690828D01*
X225361203Y-74690828D02*
X226146917Y-75690828D01*
X226146917Y-75690828D02*
X225361203Y-75690828D01*
X224218345Y-75619400D02*
X224361202Y-75690828D01*
X224361202Y-75690828D02*
X224646917Y-75690828D01*
X224646917Y-75690828D02*
X224789774Y-75619400D01*
X224789774Y-75619400D02*
X224861202Y-75476542D01*
X224861202Y-75476542D02*
X224861202Y-74905114D01*
X224861202Y-74905114D02*
X224789774Y-74762257D01*
X224789774Y-74762257D02*
X224646917Y-74690828D01*
X224646917Y-74690828D02*
X224361202Y-74690828D01*
X224361202Y-74690828D02*
X224218345Y-74762257D01*
X224218345Y-74762257D02*
X224146917Y-74905114D01*
X224146917Y-74905114D02*
X224146917Y-75047971D01*
X224146917Y-75047971D02*
X224861202Y-75190828D01*
X222861203Y-75619400D02*
X223004060Y-75690828D01*
X223004060Y-75690828D02*
X223289774Y-75690828D01*
X223289774Y-75690828D02*
X223432631Y-75619400D01*
X223432631Y-75619400D02*
X223504060Y-75547971D01*
X223504060Y-75547971D02*
X223575488Y-75405114D01*
X223575488Y-75405114D02*
X223575488Y-74976542D01*
X223575488Y-74976542D02*
X223504060Y-74833685D01*
X223504060Y-74833685D02*
X223432631Y-74762257D01*
X223432631Y-74762257D02*
X223289774Y-74690828D01*
X223289774Y-74690828D02*
X223004060Y-74690828D01*
X223004060Y-74690828D02*
X222861203Y-74762257D01*
X222218346Y-75690828D02*
X222218346Y-74190828D01*
X221575489Y-75690828D02*
X221575489Y-74905114D01*
X221575489Y-74905114D02*
X221646917Y-74762257D01*
X221646917Y-74762257D02*
X221789774Y-74690828D01*
X221789774Y-74690828D02*
X222004060Y-74690828D01*
X222004060Y-74690828D02*
X222146917Y-74762257D01*
X222146917Y-74762257D02*
X222218346Y-74833685D01*
X218861203Y-75690828D02*
X219361203Y-74976542D01*
X219718346Y-75690828D02*
X219718346Y-74190828D01*
X219718346Y-74190828D02*
X219146917Y-74190828D01*
X219146917Y-74190828D02*
X219004060Y-74262257D01*
X219004060Y-74262257D02*
X218932631Y-74333685D01*
X218932631Y-74333685D02*
X218861203Y-74476542D01*
X218861203Y-74476542D02*
X218861203Y-74690828D01*
X218861203Y-74690828D02*
X218932631Y-74833685D01*
X218932631Y-74833685D02*
X219004060Y-74905114D01*
X219004060Y-74905114D02*
X219146917Y-74976542D01*
X219146917Y-74976542D02*
X219718346Y-74976542D01*
X217646917Y-75619400D02*
X217789774Y-75690828D01*
X217789774Y-75690828D02*
X218075489Y-75690828D01*
X218075489Y-75690828D02*
X218218346Y-75619400D01*
X218218346Y-75619400D02*
X218289774Y-75476542D01*
X218289774Y-75476542D02*
X218289774Y-74905114D01*
X218289774Y-74905114D02*
X218218346Y-74762257D01*
X218218346Y-74762257D02*
X218075489Y-74690828D01*
X218075489Y-74690828D02*
X217789774Y-74690828D01*
X217789774Y-74690828D02*
X217646917Y-74762257D01*
X217646917Y-74762257D02*
X217575489Y-74905114D01*
X217575489Y-74905114D02*
X217575489Y-75047971D01*
X217575489Y-75047971D02*
X218289774Y-75190828D01*
X216932632Y-74690828D02*
X216932632Y-76190828D01*
X216932632Y-74762257D02*
X216789775Y-74690828D01*
X216789775Y-74690828D02*
X216504060Y-74690828D01*
X216504060Y-74690828D02*
X216361203Y-74762257D01*
X216361203Y-74762257D02*
X216289775Y-74833685D01*
X216289775Y-74833685D02*
X216218346Y-74976542D01*
X216218346Y-74976542D02*
X216218346Y-75405114D01*
X216218346Y-75405114D02*
X216289775Y-75547971D01*
X216289775Y-75547971D02*
X216361203Y-75619400D01*
X216361203Y-75619400D02*
X216504060Y-75690828D01*
X216504060Y-75690828D02*
X216789775Y-75690828D01*
X216789775Y-75690828D02*
X216932632Y-75619400D01*
X214932632Y-74690828D02*
X214932632Y-75690828D01*
X215575489Y-74690828D02*
X215575489Y-75476542D01*
X215575489Y-75476542D02*
X215504060Y-75619400D01*
X215504060Y-75619400D02*
X215361203Y-75690828D01*
X215361203Y-75690828D02*
X215146917Y-75690828D01*
X215146917Y-75690828D02*
X215004060Y-75619400D01*
X215004060Y-75619400D02*
X214932632Y-75547971D01*
X214218346Y-75690828D02*
X214218346Y-74190828D01*
X214218346Y-74762257D02*
X214075489Y-74690828D01*
X214075489Y-74690828D02*
X213789774Y-74690828D01*
X213789774Y-74690828D02*
X213646917Y-74762257D01*
X213646917Y-74762257D02*
X213575489Y-74833685D01*
X213575489Y-74833685D02*
X213504060Y-74976542D01*
X213504060Y-74976542D02*
X213504060Y-75405114D01*
X213504060Y-75405114D02*
X213575489Y-75547971D01*
X213575489Y-75547971D02*
X213646917Y-75619400D01*
X213646917Y-75619400D02*
X213789774Y-75690828D01*
X213789774Y-75690828D02*
X214075489Y-75690828D01*
X214075489Y-75690828D02*
X214218346Y-75619400D01*
X212646917Y-75690828D02*
X212789774Y-75619400D01*
X212789774Y-75619400D02*
X212861203Y-75476542D01*
X212861203Y-75476542D02*
X212861203Y-74190828D01*
X212075489Y-75690828D02*
X212075489Y-74690828D01*
X212075489Y-74190828D02*
X212146917Y-74262257D01*
X212146917Y-74262257D02*
X212075489Y-74333685D01*
X212075489Y-74333685D02*
X212004060Y-74262257D01*
X212004060Y-74262257D02*
X212075489Y-74190828D01*
X212075489Y-74190828D02*
X212075489Y-74333685D01*
X210718346Y-75619400D02*
X210861203Y-75690828D01*
X210861203Y-75690828D02*
X211146917Y-75690828D01*
X211146917Y-75690828D02*
X211289774Y-75619400D01*
X211289774Y-75619400D02*
X211361203Y-75547971D01*
X211361203Y-75547971D02*
X211432631Y-75405114D01*
X211432631Y-75405114D02*
X211432631Y-74976542D01*
X211432631Y-74976542D02*
X211361203Y-74833685D01*
X211361203Y-74833685D02*
X211289774Y-74762257D01*
X211289774Y-74762257D02*
X211146917Y-74690828D01*
X211146917Y-74690828D02*
X210861203Y-74690828D01*
X210861203Y-74690828D02*
X210718346Y-74762257D01*
D11*
X267629580Y-72983333D02*
X267677200Y-72935714D01*
X267677200Y-72935714D02*
X267724819Y-72792857D01*
X267724819Y-72792857D02*
X267724819Y-72697619D01*
X267724819Y-72697619D02*
X267677200Y-72554762D01*
X267677200Y-72554762D02*
X267581961Y-72459524D01*
X267581961Y-72459524D02*
X267486723Y-72411905D01*
X267486723Y-72411905D02*
X267296247Y-72364286D01*
X267296247Y-72364286D02*
X267153390Y-72364286D01*
X267153390Y-72364286D02*
X266962914Y-72411905D01*
X266962914Y-72411905D02*
X266867676Y-72459524D01*
X266867676Y-72459524D02*
X266772438Y-72554762D01*
X266772438Y-72554762D02*
X266724819Y-72697619D01*
X266724819Y-72697619D02*
X266724819Y-72792857D01*
X266724819Y-72792857D02*
X266772438Y-72935714D01*
X266772438Y-72935714D02*
X266820057Y-72983333D01*
X266724819Y-73316667D02*
X266724819Y-73935714D01*
X266724819Y-73935714D02*
X267105771Y-73602381D01*
X267105771Y-73602381D02*
X267105771Y-73745238D01*
X267105771Y-73745238D02*
X267153390Y-73840476D01*
X267153390Y-73840476D02*
X267201009Y-73888095D01*
X267201009Y-73888095D02*
X267296247Y-73935714D01*
X267296247Y-73935714D02*
X267534342Y-73935714D01*
X267534342Y-73935714D02*
X267629580Y-73888095D01*
X267629580Y-73888095D02*
X267677200Y-73840476D01*
X267677200Y-73840476D02*
X267724819Y-73745238D01*
X267724819Y-73745238D02*
X267724819Y-73459524D01*
X267724819Y-73459524D02*
X267677200Y-73364286D01*
X267677200Y-73364286D02*
X267629580Y-73316667D01*
M02*
