%TF.GenerationSoftware,KiCad,Pcbnew,8.0.7*%
%TF.CreationDate,2025-10-15T01:11:38+02:00*%
%TF.ProjectId,Mandalorian_and_Moff_Gideon,4d616e64-616c-46f7-9269-616e5f616e64,rev?*%
%TF.SameCoordinates,Original*%
%TF.FileFunction,Copper,L2,Bot*%
%TF.FilePolarity,Positive*%
%FSLAX46Y46*%
G04 Gerber Fmt 4.6, Leading zero omitted, Abs format (unit mm)*
G04 Created by KiCad (PCBNEW 8.0.7) date 2025-10-15 01:11:38*
%MOMM*%
%LPD*%
G01*
G04 APERTURE LIST*
G04 Aperture macros list*
%AMRoundRect*
0 Rectangle with rounded corners*
0 $1 Rounding radius*
0 $2 $3 $4 $5 $6 $7 $8 $9 X,Y pos of 4 corners*
0 Add a 4 corners polygon primitive as box body*
4,1,4,$2,$3,$4,$5,$6,$7,$8,$9,$2,$3,0*
0 Add four circle primitives for the rounded corners*
1,1,$1+$1,$2,$3*
1,1,$1+$1,$4,$5*
1,1,$1+$1,$6,$7*
1,1,$1+$1,$8,$9*
0 Add four rect primitives between the rounded corners*
20,1,$1+$1,$2,$3,$4,$5,0*
20,1,$1+$1,$4,$5,$6,$7,0*
20,1,$1+$1,$6,$7,$8,$9,0*
20,1,$1+$1,$8,$9,$2,$3,0*%
%AMHorizOval*
0 Thick line with rounded ends*
0 $1 width*
0 $2 $3 position (X,Y) of the first rounded end (center of the circle)*
0 $4 $5 position (X,Y) of the second rounded end (center of the circle)*
0 Add line between two ends*
20,1,$1,$2,$3,$4,$5,0*
0 Add two circle primitives to create the rounded ends*
1,1,$1,$2,$3*
1,1,$1,$4,$5*%
%AMRotRect*
0 Rectangle, with rotation*
0 The origin of the aperture is its center*
0 $1 length*
0 $2 width*
0 $3 Rotation angle, in degrees counterclockwise*
0 Add horizontal line*
21,1,$1,$2,0,0,$3*%
G04 Aperture macros list end*
%TA.AperFunction,ComponentPad*%
%ADD10R,2.400000X2.400000*%
%TD*%
%TA.AperFunction,ComponentPad*%
%ADD11O,2.400000X2.400000*%
%TD*%
%TA.AperFunction,ComponentPad*%
%ADD12R,1.700000X1.700000*%
%TD*%
%TA.AperFunction,ComponentPad*%
%ADD13O,1.700000X1.700000*%
%TD*%
%TA.AperFunction,ComponentPad*%
%ADD14RotRect,1.700000X1.700000X315.000000*%
%TD*%
%TA.AperFunction,ComponentPad*%
%ADD15HorizOval,1.700000X0.000000X0.000000X0.000000X0.000000X0*%
%TD*%
%TA.AperFunction,ComponentPad*%
%ADD16RoundRect,0.750000X0.000000X1.060660X-1.060660X0.000000X0.000000X-1.060660X1.060660X0.000000X0*%
%TD*%
%TA.AperFunction,ComponentPad*%
%ADD17C,1.200000*%
%TD*%
%TA.AperFunction,ComponentPad*%
%ADD18R,1.200000X1.200000*%
%TD*%
%TA.AperFunction,ComponentPad*%
%ADD19R,1.560000X1.560000*%
%TD*%
%TA.AperFunction,ComponentPad*%
%ADD20C,1.560000*%
%TD*%
%TA.AperFunction,ViaPad*%
%ADD21C,0.600000*%
%TD*%
%TA.AperFunction,Conductor*%
%ADD22C,1.000000*%
%TD*%
%TA.AperFunction,Conductor*%
%ADD23C,0.800000*%
%TD*%
%TA.AperFunction,Conductor*%
%ADD24C,0.400000*%
%TD*%
%TA.AperFunction,Conductor*%
%ADD25C,0.500000*%
%TD*%
%TA.AperFunction,Conductor*%
%ADD26C,0.200000*%
%TD*%
G04 APERTURE END LIST*
D10*
%TO.P,D18,1,K*%
%TO.N,Net-(D18-K)*%
X241790000Y-49850000D03*
D11*
%TO.P,D18,2,A*%
%TO.N,Net-(D18-A)*%
X254490000Y-49850000D03*
%TD*%
D12*
%TO.P,SW1,1,C*%
%TO.N,Net-(D18-A)*%
X259435000Y-51545000D03*
D13*
%TO.P,SW1,2,B*%
%TO.N,VCC_BATT*%
X261975000Y-51545000D03*
%TO.P,SW1,3,A*%
%TO.N,unconnected-(SW1-A-Pad3)*%
X264515000Y-51545000D03*
%TD*%
D14*
%TO.P,J1,1,Pin_1*%
%TO.N,VCC_BATT*%
X271857969Y-50744847D03*
D15*
%TO.P,J1,2,Pin_2*%
%TO.N,GND*%
X270061918Y-52540898D03*
%TD*%
D12*
%TO.P,JP3,1,A*%
%TO.N,VCC*%
X248430000Y-65150000D03*
D13*
%TO.P,JP3,2,B*%
%TO.N,Net-(JP3-B)*%
X250970000Y-65150000D03*
%TD*%
D16*
%TO.P,MiniStepDownBuck1,1,IN_GND*%
%TO.N,GND*%
X273630000Y-62000000D03*
%TO.P,MiniStepDownBuck1,2,IN_VCC*%
%TO.N,Net-(D18-K)*%
X266983196Y-55353196D03*
%TO.P,MiniStepDownBuck1,3,OUT_VCC*%
%TO.N,Net-(JP3-B)*%
X255386645Y-66949747D03*
%TO.P,MiniStepDownBuck1,4,OUT_GND*%
%TO.N,GND*%
X262033449Y-73596551D03*
%TD*%
D12*
%TO.P,J2,1,Pin_1*%
%TO.N,MOSI*%
X273285000Y-101770000D03*
D13*
%TO.P,J2,2,Pin_2*%
%TO.N,VCC*%
X273285000Y-104310000D03*
%TO.P,J2,3,Pin_3*%
%TO.N,NC*%
X270745000Y-101770000D03*
%TO.P,J2,4,Pin_4*%
%TO.N,GND*%
X270745000Y-104310000D03*
%TO.P,J2,5,Pin_5*%
%TO.N,RST*%
X268205000Y-101770000D03*
%TO.P,J2,6,Pin_6*%
%TO.N,GND*%
X268205000Y-104310000D03*
%TO.P,J2,7,Pin_7*%
%TO.N,SCK*%
X265665000Y-101770000D03*
%TO.P,J2,8,Pin_8*%
%TO.N,GND*%
X265665000Y-104310000D03*
%TO.P,J2,9,Pin_9*%
%TO.N,LED_EN*%
X263125000Y-101770000D03*
%TO.P,J2,10,Pin_10*%
%TO.N,GND*%
X263125000Y-104310000D03*
%TD*%
D17*
%TO.P,C3,1*%
%TO.N,VCC*%
X265630000Y-77510000D03*
D18*
%TO.P,C3,2*%
%TO.N,GND*%
X265630000Y-75510000D03*
%TD*%
D19*
%TO.P,RV1,1,1*%
%TO.N,V_POT*%
X204530000Y-54340000D03*
D20*
%TO.P,RV1,2,2*%
%TO.N,Net-(Q15-D)*%
X199530000Y-56840000D03*
%TO.P,RV1,3,3*%
%TO.N,unconnected-(RV1-Pad3)*%
X204530000Y-59340000D03*
%TD*%
D21*
%TO.N,VCC*%
X232794325Y-68280000D03*
X241430000Y-68280000D03*
X209765869Y-68280000D03*
X204008755Y-68280000D03*
X229915768Y-68280000D03*
X253310000Y-75210000D03*
X224158654Y-68280000D03*
X212644426Y-68280000D03*
X221280097Y-68280000D03*
X250540000Y-95200000D03*
X206887312Y-68280000D03*
X215522983Y-68280000D03*
X212645000Y-52165000D03*
X235672882Y-68280000D03*
X279680000Y-88850008D03*
X269140000Y-85340000D03*
X238551439Y-68280000D03*
X227037211Y-68280000D03*
X201130198Y-68280000D03*
X198251641Y-68280000D03*
X218401540Y-68280000D03*
%TO.N,GND*%
X229930000Y-66710000D03*
X246350000Y-70300000D03*
X208960000Y-92820000D03*
X252920000Y-72760000D03*
X246100000Y-83730000D03*
X256550000Y-54440000D03*
X222790000Y-85710000D03*
X242160000Y-95320000D03*
X247300000Y-71290000D03*
X232790000Y-95350000D03*
X238580000Y-66510000D03*
X256520000Y-57180000D03*
X201244000Y-78310000D03*
X261270000Y-90560000D03*
X199600000Y-92840000D03*
X198440000Y-66650000D03*
X269370000Y-102860000D03*
X210970000Y-55410000D03*
X227530000Y-92930000D03*
X223570000Y-95390000D03*
X208440000Y-66720000D03*
X217450000Y-65020000D03*
X255210000Y-54010000D03*
X211110000Y-66760000D03*
X252190000Y-90720000D03*
X224480000Y-66590000D03*
X259190000Y-76200000D03*
X205050000Y-95380000D03*
X232030000Y-85700000D03*
X266420000Y-61610000D03*
X251560000Y-100960000D03*
X260400000Y-76200000D03*
X227210000Y-66610000D03*
X266840000Y-102860000D03*
X206910000Y-96520000D03*
X252200000Y-95210000D03*
X213970000Y-59850000D03*
X257940000Y-79110000D03*
X210990000Y-57720000D03*
X225490000Y-101060000D03*
X227710000Y-63320000D03*
X248310000Y-72270000D03*
X214270000Y-95430000D03*
X250520000Y-74370000D03*
X271180000Y-66210000D03*
X249560000Y-100930000D03*
X273550000Y-89920000D03*
X248890000Y-68610000D03*
X275370000Y-86550000D03*
X252050000Y-71530000D03*
X202540000Y-66700000D03*
X252200000Y-86720000D03*
X250960000Y-70500000D03*
X269760000Y-91690000D03*
X280890000Y-66590000D03*
X250310000Y-76650000D03*
X249400000Y-73280000D03*
X250000000Y-69430000D03*
X261457059Y-93250000D03*
X254240000Y-95330000D03*
X242580000Y-92930000D03*
X204140000Y-85770000D03*
X218855686Y-66025686D03*
X252090000Y-82670000D03*
X279410000Y-73547500D03*
X253260000Y-95290000D03*
X261270000Y-80350000D03*
X261280000Y-83370000D03*
X262060000Y-78530000D03*
X272470000Y-67020000D03*
X258010000Y-76190000D03*
X220990000Y-66090000D03*
X267900000Y-59830000D03*
X211540000Y-52940000D03*
X222540000Y-66790000D03*
X236820000Y-92910000D03*
X278930000Y-83620000D03*
X276969998Y-94160000D03*
X268510000Y-91770000D03*
X246170000Y-79580000D03*
X238300000Y-78380000D03*
X216050000Y-59810000D03*
X261270000Y-85750000D03*
X225460000Y-96600000D03*
X264420000Y-102880000D03*
X273720000Y-88020000D03*
X246130000Y-91870000D03*
X261230000Y-94550000D03*
X246160000Y-87700000D03*
X256580000Y-60000000D03*
X245290000Y-95420000D03*
X210500000Y-78350000D03*
X205400000Y-66770000D03*
X219770000Y-78290000D03*
X246140000Y-85710000D03*
X216410000Y-96600000D03*
X214100000Y-56340000D03*
X246130000Y-89860000D03*
X213440000Y-85780000D03*
X271840000Y-102930000D03*
X256520000Y-55850000D03*
X280002500Y-71250000D03*
X241360000Y-85710000D03*
X232850000Y-66640000D03*
X269140000Y-87740000D03*
X244450000Y-100830000D03*
X262820000Y-88130000D03*
X214030000Y-55410000D03*
X274730000Y-78900000D03*
X234630000Y-101000000D03*
X241440000Y-66500000D03*
X235660000Y-66600000D03*
X246140000Y-81720000D03*
X214080000Y-57680000D03*
X211530000Y-52100000D03*
X252440000Y-76650000D03*
X269270000Y-100110000D03*
X244000000Y-85800000D03*
X210990000Y-56340000D03*
X213610000Y-67380000D03*
X279120000Y-76750000D03*
X210990000Y-59810000D03*
X216350000Y-101090000D03*
X218160000Y-92840000D03*
X256520000Y-58540000D03*
X250610000Y-100930000D03*
X251390000Y-76650000D03*
X246170000Y-77560000D03*
X260040000Y-78530000D03*
X234620000Y-95860000D03*
X228970000Y-78330000D03*
X206910000Y-101470000D03*
%TO.N,/DP*%
X232060000Y-86868000D03*
X245247500Y-86732000D03*
X204150000Y-86868000D03*
X241370000Y-86868000D03*
X222780000Y-86868000D03*
X213440000Y-86868000D03*
%TO.N,/F*%
X245247500Y-80636000D03*
X208940000Y-81650000D03*
X199620000Y-81652500D03*
X218240000Y-81650000D03*
X227540000Y-81650000D03*
X236840000Y-81650000D03*
%TO.N,/E*%
X235350006Y-91070003D03*
X207450000Y-91070003D03*
X226100000Y-91070003D03*
X216750000Y-91070003D03*
X198130000Y-91070003D03*
X245247500Y-92828000D03*
%TO.N,/B*%
X245247500Y-84700000D03*
X204140000Y-84690000D03*
X222760000Y-84690008D03*
X232060000Y-84690008D03*
X241350000Y-84690008D03*
X213440000Y-84690008D03*
%TO.N,/A*%
X202607910Y-83110000D03*
X230497910Y-83110000D03*
X211897910Y-83110000D03*
X245247500Y-82668000D03*
X239679999Y-83110002D03*
X221187910Y-83110000D03*
%TO.N,/D*%
X245247500Y-90796000D03*
X209030000Y-89539996D03*
X199750000Y-89539996D03*
X236910000Y-89540000D03*
X227600000Y-89540000D03*
X218330000Y-89540000D03*
%TO.N,/G*%
X235350000Y-80170000D03*
X207450000Y-80170000D03*
X245247500Y-78604000D03*
X198150000Y-80170000D03*
X226050000Y-80170000D03*
X216750000Y-80170000D03*
%TO.N,/C*%
X202660000Y-88260000D03*
X239810000Y-88210002D03*
X230530002Y-88230000D03*
X221310000Y-88280002D03*
X211990000Y-88260000D03*
X245247500Y-88764000D03*
%TO.N,/S13*%
X230960000Y-50200000D03*
X224075000Y-50471662D03*
%TO.N,/S15*%
X221550000Y-49060000D03*
X235225000Y-49125000D03*
%TO.N,/A2*%
X257350000Y-56510000D03*
X216455000Y-52165000D03*
%TO.N,LED_EN*%
X270433834Y-89786709D03*
X264165000Y-90855000D03*
X220265000Y-52165000D03*
X254250000Y-54380000D03*
%TO.N,/A3*%
X257460000Y-55230000D03*
X217725000Y-52165000D03*
%TO.N,/A1*%
X257350000Y-57800000D03*
X215185000Y-52165000D03*
%TO.N,/HEX0*%
X268340000Y-100050000D03*
X203850012Y-96162500D03*
%TO.N,/HEX1*%
X268380000Y-99070000D03*
X213130030Y-96162500D03*
%TO.N,/HEX2*%
X222440000Y-96162500D03*
X268400030Y-98100790D03*
%TO.N,/HEX3*%
X231730000Y-96162500D03*
X268399706Y-97250788D03*
%TO.N,/HEX4*%
X268380000Y-96320000D03*
X241050000Y-96162500D03*
%TO.N,/A_*%
X274590000Y-83090000D03*
X257700000Y-84770833D03*
X250740000Y-83580000D03*
%TO.N,/B_*%
X277640000Y-89340000D03*
X254620000Y-85610000D03*
X259600000Y-86825000D03*
%TO.N,/C_*%
X254550000Y-89690000D03*
X259599978Y-91072500D03*
X274590000Y-91590000D03*
%TO.N,/D_*%
X275390000Y-91590000D03*
X257699996Y-92937504D03*
X250710000Y-91710000D03*
%TO.N,/E_*%
X254560000Y-93750000D03*
X276190011Y-91589978D03*
X259599992Y-95320000D03*
%TO.N,/F_*%
X259622128Y-82470000D03*
X275390000Y-83090000D03*
X254610000Y-81570000D03*
%TO.N,/G_*%
X250730000Y-79530000D03*
X276190000Y-83090000D03*
X257700000Y-80687500D03*
%TO.N,/DP_*%
X277640000Y-90140000D03*
X250710000Y-87690000D03*
X257700000Y-88854166D03*
%TO.N,MOSI*%
X257330000Y-59220000D03*
X213915000Y-52165000D03*
X271940000Y-89840000D03*
%TO.N,Net-(JP4-C)*%
X211380000Y-96427500D03*
X203850000Y-94340000D03*
X213130000Y-94290000D03*
X229980000Y-96427500D03*
X241050006Y-94337500D03*
X231730000Y-94357500D03*
X220690000Y-96427500D03*
X222440000Y-94340000D03*
X202100000Y-96427500D03*
X249239998Y-95200002D03*
X239300000Y-96360000D03*
%TO.N,Net-(Q15-D)*%
X214030000Y-58850000D03*
X267445000Y-62135000D03*
X270610000Y-65280000D03*
X279120000Y-65285000D03*
%TO.N,MEASURE_EN*%
X275560000Y-79430000D03*
X269140000Y-88540000D03*
X276140000Y-84490000D03*
X272810000Y-88160000D03*
%TO.N,V_POT*%
X267900000Y-60950000D03*
X280580000Y-67490000D03*
X214060000Y-54350000D03*
X273239996Y-66430000D03*
%TO.N,BUTTON*%
X267090000Y-91650000D03*
X262550000Y-91730000D03*
%TD*%
D22*
%TO.N,VCC*%
X250540000Y-94250000D02*
X250540000Y-95200000D01*
X265630000Y-77510000D02*
X275910000Y-77510000D01*
D23*
X218401540Y-68280000D02*
X212670000Y-62548460D01*
D22*
X252910000Y-75610000D02*
X249750000Y-75610000D01*
X253310000Y-75210000D02*
X252910000Y-75610000D01*
X246380000Y-68280000D02*
X253310000Y-75210000D01*
X246380000Y-68280000D02*
X246380000Y-67200000D01*
X275910000Y-77510000D02*
X280169938Y-81769938D01*
X255610000Y-77510000D02*
X265630000Y-77510000D01*
D23*
X212670000Y-62548460D02*
X212670000Y-52190000D01*
X241430000Y-68280000D02*
X246380000Y-68280000D01*
D22*
X280169938Y-81769938D02*
X280169938Y-88360070D01*
X253310000Y-75210000D02*
X255610000Y-77510000D01*
X280169938Y-88360070D02*
X279680000Y-88850008D01*
D24*
X269140000Y-85340000D02*
X276169992Y-85340000D01*
D22*
X248020000Y-77340000D02*
X248020000Y-91730000D01*
D23*
X198251641Y-68280000D02*
X241430000Y-68280000D01*
X212670000Y-52190000D02*
X212645000Y-52165000D01*
D22*
X249750000Y-75610000D02*
X248020000Y-77340000D01*
D24*
X276169992Y-85340000D02*
X279680000Y-88850008D01*
D22*
X246380000Y-67200000D02*
X248430000Y-65150000D01*
X248020000Y-91730000D02*
X250540000Y-94250000D01*
%TO.N,GND*%
X265630000Y-75510000D02*
X263946898Y-75510000D01*
X263946898Y-75510000D02*
X262033449Y-73596551D01*
D25*
%TO.N,/DP*%
X204150000Y-86868000D02*
X204216000Y-86868000D01*
X222780000Y-86868000D02*
X232060000Y-86868000D01*
X204216000Y-86868000D02*
X213440000Y-86868000D01*
X245111500Y-86868000D02*
X245247500Y-86732000D01*
X213440000Y-86868000D02*
X222780000Y-86868000D01*
X241370000Y-86868000D02*
X245111500Y-86868000D01*
X232060000Y-86868000D02*
X241370000Y-86868000D01*
%TO.N,/F*%
X199632500Y-81650000D02*
X208940000Y-81650000D01*
X245247500Y-81062500D02*
X245247500Y-80636000D01*
X218240000Y-81650000D02*
X227540000Y-81650000D01*
X244660000Y-81650000D02*
X245247500Y-81062500D01*
D26*
X199630000Y-81310000D02*
X199640000Y-81310000D01*
D25*
X236840000Y-81650000D02*
X244660000Y-81650000D01*
X208940000Y-81650000D02*
X218240000Y-81650000D01*
X227540000Y-81650000D02*
X236840000Y-81650000D01*
%TO.N,/E*%
X235350006Y-91070003D02*
X243489503Y-91070003D01*
X207450000Y-91070003D02*
X216750000Y-91070003D01*
X198130000Y-91070003D02*
X207450000Y-91070003D01*
X243489503Y-91070003D02*
X245247500Y-92828000D01*
X216750000Y-91070003D02*
X226100000Y-91070003D01*
X226100000Y-91070003D02*
X235350006Y-91070003D01*
%TO.N,/B*%
X241350000Y-84690008D02*
X245237508Y-84690008D01*
D26*
X204140000Y-84690000D02*
X204190000Y-84690000D01*
D25*
X241350000Y-84690008D02*
X232060000Y-84690008D01*
X222760000Y-84690008D02*
X213440000Y-84690008D01*
X245237508Y-84690008D02*
X245247500Y-84700000D01*
X213440000Y-84690008D02*
X204190000Y-84690008D01*
X232060000Y-84690008D02*
X222760000Y-84690008D01*
%TO.N,/A*%
X245247500Y-82668000D02*
X244835500Y-83080000D01*
X211897910Y-83110000D02*
X221187910Y-83110000D01*
X244835500Y-83080000D02*
X239710001Y-83080000D01*
X202607910Y-83110000D02*
X211897910Y-83110000D01*
X221187910Y-83110000D02*
X230497910Y-83110000D01*
X230497910Y-83110000D02*
X239680000Y-83110000D01*
X239710001Y-83080000D02*
X239679999Y-83110002D01*
%TO.N,/D*%
X218330000Y-89540000D02*
X227600000Y-89540000D01*
X209030000Y-89539996D02*
X199750000Y-89539996D01*
X210148008Y-89540000D02*
X210148004Y-89539996D01*
X218330000Y-89540000D02*
X210148008Y-89540000D01*
X227600000Y-89540000D02*
X236910000Y-89540000D01*
X244011500Y-89560000D02*
X245247500Y-90796000D01*
X236930000Y-89560000D02*
X244011500Y-89560000D01*
X210148004Y-89539996D02*
X209030000Y-89539996D01*
X236910000Y-89540000D02*
X236930000Y-89560000D01*
%TO.N,/G*%
X207460000Y-80160000D02*
X207450000Y-80170000D01*
X243681500Y-80170000D02*
X245247500Y-78604000D01*
X235350000Y-80170000D02*
X243681500Y-80170000D01*
X216750000Y-80170000D02*
X216740000Y-80160000D01*
X235320000Y-80140000D02*
X226080000Y-80140000D01*
X216780000Y-80140000D02*
X216750000Y-80170000D01*
X207450000Y-80170000D02*
X207430000Y-80190000D01*
X198170000Y-80190000D02*
X198150000Y-80170000D01*
X235350000Y-80170000D02*
X235320000Y-80140000D01*
X216740000Y-80160000D02*
X207460000Y-80160000D01*
X226050000Y-80170000D02*
X226020000Y-80140000D01*
X207430000Y-80190000D02*
X198170000Y-80190000D01*
X226080000Y-80140000D02*
X226050000Y-80170000D01*
X226020000Y-80140000D02*
X216780000Y-80140000D01*
%TO.N,/C*%
X202690000Y-88230000D02*
X211960000Y-88230000D01*
X239810000Y-88210002D02*
X230550000Y-88210002D01*
X245247500Y-88764000D02*
X244693500Y-88210000D01*
X221309998Y-88280000D02*
X221310000Y-88280002D01*
X202660000Y-88260000D02*
X202690000Y-88230000D01*
X230480002Y-88280000D02*
X230530002Y-88230000D01*
X212010000Y-88280000D02*
X221309998Y-88280000D01*
X244693500Y-88210000D02*
X239810002Y-88210000D01*
X230550000Y-88210002D02*
X230530002Y-88230000D01*
X239810002Y-88210000D02*
X239810000Y-88210002D01*
X211990000Y-88260000D02*
X212010000Y-88280000D01*
X221310000Y-88280002D02*
X221310002Y-88280000D01*
X211960000Y-88230000D02*
X211990000Y-88260000D01*
X221310002Y-88280000D02*
X230480002Y-88280000D01*
%TO.N,/S13*%
X230440000Y-49680000D02*
X224866662Y-49680000D01*
X224866662Y-49680000D02*
X224075000Y-50471662D01*
X230960000Y-50200000D02*
X230440000Y-49680000D01*
%TO.N,/S15*%
X221550000Y-49060000D02*
X222900000Y-47710000D01*
X233810000Y-47710000D02*
X235225000Y-49125000D01*
X222900000Y-47710000D02*
X233810000Y-47710000D01*
D26*
%TO.N,/A2*%
X257350000Y-56510000D02*
X220800000Y-56510000D01*
X220800000Y-56510000D02*
X216455000Y-52165000D01*
%TO.N,LED_EN*%
X264670000Y-90350000D02*
X264165000Y-90855000D01*
X253680000Y-53810000D02*
X254250000Y-54380000D01*
X270433834Y-89786709D02*
X270433834Y-89866166D01*
X221910000Y-53810000D02*
X253680000Y-53810000D01*
X269950000Y-90350000D02*
X264670000Y-90350000D01*
X220265000Y-52165000D02*
X221910000Y-53810000D01*
X270433834Y-89866166D02*
X269950000Y-90350000D01*
%TO.N,/A3*%
X220790000Y-55230000D02*
X257460000Y-55230000D01*
X217725000Y-52165000D02*
X220790000Y-55230000D01*
%TO.N,/A1*%
X257350000Y-57800000D02*
X257250000Y-57900000D01*
X220920000Y-57900000D02*
X215185000Y-52165000D01*
X257250000Y-57900000D02*
X220920000Y-57900000D01*
%TO.N,/HEX0*%
X207737512Y-100050000D02*
X268340000Y-100050000D01*
X203850012Y-96162500D02*
X207737512Y-100050000D01*
%TO.N,/HEX1*%
X216037530Y-99070000D02*
X268380000Y-99070000D01*
X213130030Y-96162500D02*
X216037530Y-99070000D01*
%TO.N,/HEX2*%
X222440000Y-96210000D02*
X224330790Y-98100790D01*
X222440000Y-96162500D02*
X222440000Y-96210000D01*
X224330790Y-98100790D02*
X268400030Y-98100790D01*
%TO.N,/HEX3*%
X232818288Y-97250788D02*
X268399706Y-97250788D01*
X231730000Y-96162500D02*
X232818288Y-97250788D01*
%TO.N,/HEX4*%
X241050000Y-96162500D02*
X241257500Y-96370000D01*
X268330000Y-96370000D02*
X268380000Y-96320000D01*
X241257500Y-96370000D02*
X268330000Y-96370000D01*
D22*
%TO.N,Net-(JP3-B)*%
X250970000Y-65150000D02*
X253586898Y-65150000D01*
X253586898Y-65150000D02*
X255386645Y-66949747D01*
D26*
%TO.N,/A_*%
X250740000Y-83580000D02*
X256509167Y-83580000D01*
X274590000Y-83840000D02*
X274590000Y-83090000D01*
X256509167Y-83580000D02*
X257700000Y-84770833D01*
X262760000Y-84220000D02*
X274210000Y-84220000D01*
X257679167Y-84750000D02*
X262230000Y-84750000D01*
X274210000Y-84220000D02*
X274590000Y-83840000D01*
X262230000Y-84750000D02*
X262760000Y-84220000D01*
X256509167Y-83580000D02*
X257679167Y-84750000D01*
%TO.N,/B_*%
X254620000Y-85610000D02*
X258385000Y-85610000D01*
X259600000Y-86825000D02*
X259625000Y-86850000D01*
X273760000Y-86850000D02*
X276250000Y-89340000D01*
X276250000Y-89340000D02*
X277640000Y-89340000D01*
X258385000Y-85610000D02*
X259600000Y-86825000D01*
X259625000Y-86850000D02*
X273760000Y-86850000D01*
%TO.N,/C_*%
X254550000Y-89690000D02*
X258220000Y-89690000D01*
X259599978Y-91069978D02*
X259599978Y-91072500D01*
X259599978Y-91072500D02*
X261157649Y-92630171D01*
X274590000Y-92115000D02*
X274590000Y-91590000D01*
X274074829Y-92630171D02*
X274590000Y-92115000D01*
X261157649Y-92630171D02*
X274074829Y-92630171D01*
X258220000Y-89690000D02*
X259599978Y-91069978D01*
%TO.N,/D_*%
X250710000Y-91710000D02*
X256472492Y-91710000D01*
X258662492Y-93900000D02*
X273605000Y-93900000D01*
X275390000Y-92115000D02*
X275390000Y-91590000D01*
X256472492Y-91710000D02*
X257699996Y-92937504D01*
X257699996Y-92937504D02*
X258662492Y-93900000D01*
X273605000Y-93900000D02*
X275390000Y-92115000D01*
%TO.N,/E_*%
X276190011Y-91589978D02*
X276190011Y-94019989D01*
X259699992Y-95220000D02*
X259599992Y-95320000D01*
X254560000Y-93750000D02*
X256130000Y-95320000D01*
X256130000Y-95320000D02*
X259599992Y-95320000D01*
X274990000Y-95220000D02*
X259699992Y-95220000D01*
X276190011Y-94019989D02*
X274990000Y-95220000D01*
%TO.N,/F_*%
X273120000Y-80250000D02*
X262550000Y-80250000D01*
X258722128Y-81570000D02*
X259622128Y-82470000D01*
X275390000Y-82520000D02*
X273120000Y-80250000D01*
X254610000Y-81570000D02*
X258722128Y-81570000D01*
X262550000Y-80250000D02*
X260330000Y-82470000D01*
X260330000Y-82470000D02*
X259622128Y-82470000D01*
X275390000Y-83090000D02*
X275390000Y-82520000D01*
%TO.N,/G_*%
X273660000Y-79300000D02*
X260140000Y-79300000D01*
X276190000Y-83090000D02*
X276190000Y-81830000D01*
X260140000Y-79300000D02*
X258752500Y-80687500D01*
X257687500Y-80687500D02*
X257700000Y-80687500D01*
X258752500Y-80687500D02*
X257700000Y-80687500D01*
X276190000Y-81830000D02*
X273660000Y-79300000D01*
X257700000Y-80500000D02*
X257700000Y-80687500D01*
X250730000Y-79530000D02*
X256530000Y-79530000D01*
X256530000Y-79530000D02*
X257687500Y-80687500D01*
%TO.N,/DP_*%
X258025834Y-89180000D02*
X274790000Y-89180000D01*
X275750000Y-90140000D02*
X277640000Y-90140000D01*
X250710000Y-87690000D02*
X256535834Y-87690000D01*
X274790000Y-89180000D02*
X275750000Y-90140000D01*
X256535834Y-87690000D02*
X257700000Y-88854166D01*
X257700000Y-88854166D02*
X258025834Y-89180000D01*
%TO.N,MOSI*%
X273310000Y-101770000D02*
X278290000Y-96790000D01*
X221030000Y-59280000D02*
X213915000Y-52165000D01*
X278290000Y-91950000D02*
X277110000Y-90770000D01*
X257330000Y-59220000D02*
X257270000Y-59280000D01*
X277110000Y-90770000D02*
X272870000Y-90770000D01*
X278290000Y-96790000D02*
X278290000Y-91950000D01*
X257270000Y-59280000D02*
X221030000Y-59280000D01*
X272870000Y-90770000D02*
X271940000Y-89840000D01*
D23*
%TO.N,Net-(JP4-C)*%
X229990000Y-94493500D02*
X229990000Y-96417500D01*
X203850000Y-94340000D02*
X202300000Y-94340000D01*
X230100000Y-94383500D02*
X239390000Y-94383500D01*
X203872500Y-94317500D02*
X211640000Y-94317500D01*
X240994006Y-94383500D02*
X241040006Y-94337500D01*
X230100000Y-94383500D02*
X229990000Y-94493500D01*
X239280000Y-96340000D02*
X239300000Y-96360000D01*
X240470000Y-94383500D02*
X248633500Y-94383500D01*
X239390000Y-94383500D02*
X239280000Y-94493500D01*
X229990000Y-96417500D02*
X229980000Y-96427500D01*
X211640000Y-94317500D02*
X213179970Y-94317500D01*
X249239998Y-94989998D02*
X249239998Y-95200002D01*
X213179970Y-94317500D02*
X213245970Y-94383500D01*
X211380000Y-94577500D02*
X211380000Y-96427500D01*
X248633500Y-94383500D02*
X249239998Y-94989998D01*
X221150000Y-94383500D02*
X220690000Y-94843500D01*
X202100000Y-94540000D02*
X202100000Y-96427500D01*
X239280000Y-94493500D02*
X239280000Y-96340000D01*
X221150000Y-94383500D02*
X230100000Y-94383500D01*
X239390000Y-94383500D02*
X240470000Y-94383500D01*
X213245970Y-94383500D02*
X221150000Y-94383500D01*
X220690000Y-94843500D02*
X220690000Y-96427500D01*
X202300000Y-94340000D02*
X202100000Y-94540000D01*
X240470000Y-94383500D02*
X240994006Y-94383500D01*
X211640000Y-94317500D02*
X211380000Y-94577500D01*
X203850000Y-94340000D02*
X203872500Y-94317500D01*
D26*
%TO.N,Net-(Q15-D)*%
X217490000Y-62310000D02*
X267270000Y-62310000D01*
X270610000Y-65280000D02*
X279115000Y-65280000D01*
X279115000Y-65280000D02*
X279120000Y-65285000D01*
X267270000Y-62310000D02*
X267445000Y-62135000D01*
X214030000Y-58850000D02*
X217490000Y-62310000D01*
%TO.N,MEASURE_EN*%
X276610000Y-84490000D02*
X277180000Y-83920000D01*
X276140000Y-84490000D02*
X276610000Y-84490000D01*
X269140000Y-88540000D02*
X272430000Y-88540000D01*
X272430000Y-88540000D02*
X272810000Y-88160000D01*
X277180000Y-83920000D02*
X277180000Y-81050000D01*
X277180000Y-81050000D02*
X275560000Y-79430000D01*
%TO.N,V_POT*%
X280580000Y-67490000D02*
X274299996Y-67490000D01*
X214060000Y-54350000D02*
X220640000Y-60930000D01*
X267880000Y-60930000D02*
X267900000Y-60950000D01*
X274299996Y-67490000D02*
X273239996Y-66430000D01*
X220640000Y-60930000D02*
X267880000Y-60930000D01*
%TO.N,BUTTON*%
X267090000Y-91650000D02*
X262630000Y-91650000D01*
X262630000Y-91650000D02*
X262550000Y-91730000D01*
%TD*%
%TA.AperFunction,Conductor*%
%TO.N,GND*%
G36*
X265199075Y-104117007D02*
G01*
X265165000Y-104244174D01*
X265165000Y-104375826D01*
X265199075Y-104502993D01*
X265231988Y-104560000D01*
X263558012Y-104560000D01*
X263590925Y-104502993D01*
X263625000Y-104375826D01*
X263625000Y-104244174D01*
X263590925Y-104117007D01*
X263558012Y-104060000D01*
X265231988Y-104060000D01*
X265199075Y-104117007D01*
G37*
%TD.AperFunction*%
%TA.AperFunction,Conductor*%
G36*
X267739075Y-104117007D02*
G01*
X267705000Y-104244174D01*
X267705000Y-104375826D01*
X267739075Y-104502993D01*
X267771988Y-104560000D01*
X266098012Y-104560000D01*
X266130925Y-104502993D01*
X266165000Y-104375826D01*
X266165000Y-104244174D01*
X266130925Y-104117007D01*
X266098012Y-104060000D01*
X267771988Y-104060000D01*
X267739075Y-104117007D01*
G37*
%TD.AperFunction*%
%TA.AperFunction,Conductor*%
G36*
X270279075Y-104117007D02*
G01*
X270245000Y-104244174D01*
X270245000Y-104375826D01*
X270279075Y-104502993D01*
X270311988Y-104560000D01*
X268638012Y-104560000D01*
X268670925Y-104502993D01*
X268705000Y-104375826D01*
X268705000Y-104244174D01*
X268670925Y-104117007D01*
X268638012Y-104060000D01*
X270311988Y-104060000D01*
X270279075Y-104117007D01*
G37*
%TD.AperFunction*%
%TA.AperFunction,Conductor*%
G36*
X240907353Y-94984001D02*
G01*
X240914949Y-94984001D01*
X241080659Y-94984001D01*
X241080675Y-94984000D01*
X248333403Y-94984000D01*
X248400442Y-95003685D01*
X248421084Y-95020319D01*
X248603620Y-95202855D01*
X248637105Y-95264178D01*
X248638878Y-95274348D01*
X248639498Y-95279058D01*
X248680421Y-95431785D01*
X248680424Y-95431792D01*
X248759473Y-95568711D01*
X248759477Y-95568716D01*
X248759478Y-95568718D01*
X248871282Y-95680522D01*
X248871284Y-95680523D01*
X248871288Y-95680526D01*
X249008207Y-95759575D01*
X249008214Y-95759579D01*
X249160941Y-95800502D01*
X249160943Y-95800502D01*
X249319053Y-95800502D01*
X249319055Y-95800502D01*
X249471782Y-95759579D01*
X249608714Y-95680522D01*
X249720518Y-95568718D01*
X249724352Y-95562076D01*
X249774916Y-95513862D01*
X249843522Y-95500636D01*
X249908388Y-95526601D01*
X249934842Y-95555184D01*
X249995885Y-95646541D01*
X249995888Y-95646545D01*
X250093454Y-95744111D01*
X250093458Y-95744114D01*
X250208182Y-95820771D01*
X250208195Y-95820778D01*
X250232726Y-95830939D01*
X250287130Y-95874780D01*
X250309195Y-95941074D01*
X250291916Y-96008773D01*
X250240779Y-96056384D01*
X250185274Y-96069500D01*
X241637441Y-96069500D01*
X241570402Y-96049815D01*
X241524647Y-95997012D01*
X241522337Y-95991955D01*
X241475377Y-95889127D01*
X241381128Y-95780357D01*
X241260053Y-95702547D01*
X241260051Y-95702546D01*
X241260049Y-95702545D01*
X241260050Y-95702545D01*
X241121963Y-95662000D01*
X241121961Y-95662000D01*
X240978039Y-95662000D01*
X240978036Y-95662000D01*
X240839949Y-95702545D01*
X240718873Y-95780356D01*
X240624623Y-95889126D01*
X240624622Y-95889128D01*
X240564834Y-96020043D01*
X240544353Y-96162500D01*
X240564834Y-96304956D01*
X240616942Y-96419054D01*
X240624623Y-96435873D01*
X240718872Y-96544643D01*
X240839947Y-96622453D01*
X240839950Y-96622454D01*
X240839949Y-96622454D01*
X240931326Y-96649284D01*
X240975280Y-96662190D01*
X240978036Y-96662999D01*
X240978038Y-96663000D01*
X240978039Y-96663000D01*
X241121962Y-96663000D01*
X241130738Y-96661738D01*
X241130943Y-96663167D01*
X241188027Y-96662485D01*
X241217938Y-96670500D01*
X267966105Y-96670500D01*
X268033144Y-96690185D01*
X268047328Y-96700805D01*
X268048838Y-96702114D01*
X268086600Y-96760900D01*
X268086584Y-96830770D01*
X268061328Y-96877011D01*
X268034918Y-96907490D01*
X267976140Y-96945265D01*
X267941205Y-96950288D01*
X239858309Y-96950288D01*
X239791270Y-96930603D01*
X239745515Y-96877799D01*
X239735571Y-96808641D01*
X239764596Y-96745085D01*
X239770628Y-96738607D01*
X239780519Y-96728716D01*
X239859577Y-96591784D01*
X239900500Y-96439057D01*
X239900500Y-96280942D01*
X239884725Y-96222067D01*
X239880500Y-96189975D01*
X239880500Y-95108000D01*
X239900185Y-95040961D01*
X239952989Y-94995206D01*
X240004500Y-94984000D01*
X240390943Y-94984000D01*
X240907337Y-94984000D01*
X240907353Y-94984001D01*
G37*
%TD.AperFunction*%
%TA.AperFunction,Conductor*%
G36*
X269898146Y-89500185D02*
G01*
X269943901Y-89552989D01*
X269953845Y-89622147D01*
X269950082Y-89639442D01*
X269948668Y-89644254D01*
X269928187Y-89786709D01*
X269939482Y-89865274D01*
X269929538Y-89934433D01*
X269904427Y-89970599D01*
X269861849Y-90013179D01*
X269800527Y-90046666D01*
X269774166Y-90049500D01*
X264630438Y-90049500D01*
X264592224Y-90059739D01*
X264554009Y-90069979D01*
X264554008Y-90069980D01*
X264509821Y-90095492D01*
X264502591Y-90099665D01*
X264485489Y-90109539D01*
X264276847Y-90318181D01*
X264215524Y-90351666D01*
X264189166Y-90354500D01*
X264093036Y-90354500D01*
X263954949Y-90395045D01*
X263833873Y-90472856D01*
X263739623Y-90581626D01*
X263739622Y-90581628D01*
X263679834Y-90712543D01*
X263659353Y-90855000D01*
X263679834Y-90997456D01*
X263738357Y-91125601D01*
X263739623Y-91128373D01*
X263741074Y-91130047D01*
X263753422Y-91144298D01*
X263782446Y-91207854D01*
X263772502Y-91277013D01*
X263726746Y-91329816D01*
X263659708Y-91349500D01*
X262920094Y-91349500D01*
X262853055Y-91329815D01*
X262760055Y-91270047D01*
X262760050Y-91270045D01*
X262621963Y-91229500D01*
X262621961Y-91229500D01*
X262478039Y-91229500D01*
X262478036Y-91229500D01*
X262339949Y-91270045D01*
X262218873Y-91347856D01*
X262124623Y-91456626D01*
X262124622Y-91456628D01*
X262064834Y-91587543D01*
X262044353Y-91730000D01*
X262064834Y-91872456D01*
X262120021Y-91993297D01*
X262124623Y-92003373D01*
X262218872Y-92112143D01*
X262218873Y-92112143D01*
X262224680Y-92118845D01*
X262223655Y-92119732D01*
X262256434Y-92170739D01*
X262256432Y-92240608D01*
X262218657Y-92299386D01*
X262155100Y-92328409D01*
X262137456Y-92329671D01*
X261333482Y-92329671D01*
X261266443Y-92309986D01*
X261245801Y-92293352D01*
X260139373Y-91186924D01*
X260105888Y-91125601D01*
X260104317Y-91081594D01*
X260105625Y-91072500D01*
X260085143Y-90930043D01*
X260025355Y-90799127D01*
X259931106Y-90690357D01*
X259810031Y-90612547D01*
X259810029Y-90612546D01*
X259810027Y-90612545D01*
X259810028Y-90612545D01*
X259671941Y-90572000D01*
X259671939Y-90572000D01*
X259578333Y-90572000D01*
X259511294Y-90552315D01*
X259490652Y-90535681D01*
X258647152Y-89692181D01*
X258613667Y-89630858D01*
X258618651Y-89561166D01*
X258660523Y-89505233D01*
X258725987Y-89480816D01*
X258734833Y-89480500D01*
X269831107Y-89480500D01*
X269898146Y-89500185D01*
G37*
%TD.AperFunction*%
%TA.AperFunction,Conductor*%
G36*
X271428047Y-89500185D02*
G01*
X271473802Y-89552989D01*
X271483746Y-89622147D01*
X271473802Y-89656012D01*
X271454834Y-89697543D01*
X271434353Y-89840000D01*
X271454834Y-89982456D01*
X271514622Y-90113371D01*
X271514623Y-90113373D01*
X271608872Y-90222143D01*
X271729947Y-90299953D01*
X271729950Y-90299954D01*
X271729949Y-90299954D01*
X271795299Y-90319142D01*
X271865280Y-90339690D01*
X271868036Y-90340499D01*
X271868038Y-90340500D01*
X271964167Y-90340500D01*
X272031206Y-90360185D01*
X272051848Y-90376819D01*
X272685489Y-91010460D01*
X272754012Y-91050022D01*
X272830438Y-91070500D01*
X272909562Y-91070500D01*
X274106371Y-91070500D01*
X274173410Y-91090185D01*
X274219165Y-91142989D01*
X274229109Y-91212147D01*
X274200084Y-91275701D01*
X274190000Y-91287340D01*
X274164623Y-91316626D01*
X274164622Y-91316628D01*
X274104834Y-91447543D01*
X274084353Y-91590000D01*
X274104834Y-91732456D01*
X274159637Y-91852456D01*
X274164623Y-91863373D01*
X274206024Y-91911153D01*
X274235049Y-91974708D01*
X274225105Y-92043866D01*
X274199992Y-92080036D01*
X273986677Y-92293352D01*
X273925354Y-92326837D01*
X273898996Y-92329671D01*
X267380470Y-92329671D01*
X267313431Y-92309986D01*
X267267676Y-92257182D01*
X267257732Y-92188024D01*
X267286757Y-92124468D01*
X267313428Y-92101356D01*
X267421128Y-92032143D01*
X267515377Y-91923373D01*
X267575165Y-91792457D01*
X267595647Y-91650000D01*
X267575165Y-91507543D01*
X267515377Y-91376627D01*
X267421128Y-91267857D01*
X267300053Y-91190047D01*
X267300051Y-91190046D01*
X267300049Y-91190045D01*
X267300050Y-91190045D01*
X267161963Y-91149500D01*
X267161961Y-91149500D01*
X267018039Y-91149500D01*
X267018036Y-91149500D01*
X266879949Y-91190045D01*
X266758873Y-91267856D01*
X266758872Y-91267856D01*
X266758872Y-91267857D01*
X266752074Y-91275703D01*
X266725212Y-91306703D01*
X266666433Y-91344477D01*
X266631499Y-91349500D01*
X264670292Y-91349500D01*
X264603253Y-91329815D01*
X264557498Y-91277011D01*
X264547554Y-91207853D01*
X264576578Y-91144298D01*
X264577712Y-91142989D01*
X264590377Y-91128373D01*
X264650165Y-90997457D01*
X264670647Y-90855000D01*
X264669339Y-90845906D01*
X264679279Y-90776750D01*
X264704392Y-90740577D01*
X264758154Y-90686817D01*
X264819478Y-90653333D01*
X264845834Y-90650500D01*
X269989560Y-90650500D01*
X269989562Y-90650500D01*
X270065989Y-90630021D01*
X270134511Y-90590460D01*
X270190460Y-90534511D01*
X270401443Y-90323528D01*
X270462766Y-90290043D01*
X270489124Y-90287209D01*
X270505796Y-90287209D01*
X270505796Y-90287208D01*
X270643887Y-90246662D01*
X270764962Y-90168852D01*
X270859211Y-90060082D01*
X270918999Y-89929166D01*
X270939481Y-89786709D01*
X270918999Y-89644252D01*
X270918997Y-89644248D01*
X270917586Y-89639442D01*
X270917582Y-89569572D01*
X270955353Y-89510792D01*
X271018907Y-89481763D01*
X271036561Y-89480500D01*
X271361008Y-89480500D01*
X271428047Y-89500185D01*
G37*
%TD.AperFunction*%
%TA.AperFunction,Conductor*%
G36*
X274681206Y-89500185D02*
G01*
X274701848Y-89516819D01*
X275442848Y-90257819D01*
X275476333Y-90319142D01*
X275471349Y-90388834D01*
X275429477Y-90444767D01*
X275364013Y-90469184D01*
X275355167Y-90469500D01*
X273045833Y-90469500D01*
X272978794Y-90449815D01*
X272958152Y-90433181D01*
X272479395Y-89954424D01*
X272445910Y-89893101D01*
X272444339Y-89849094D01*
X272445647Y-89840000D01*
X272425165Y-89697543D01*
X272406197Y-89656011D01*
X272396254Y-89586854D01*
X272425279Y-89523298D01*
X272484056Y-89485523D01*
X272518992Y-89480500D01*
X274614167Y-89480500D01*
X274681206Y-89500185D01*
G37*
%TD.AperFunction*%
%TA.AperFunction,Conductor*%
G36*
X273551206Y-79620185D02*
G01*
X273571848Y-79636819D01*
X275853181Y-81918152D01*
X275886666Y-81979475D01*
X275889500Y-82005833D01*
X275889500Y-82321384D01*
X275869815Y-82388423D01*
X275817011Y-82434178D01*
X275747853Y-82444122D01*
X275684297Y-82415097D01*
X275658114Y-82383385D01*
X275630463Y-82335495D01*
X275630460Y-82335489D01*
X273304511Y-80009540D01*
X273281256Y-79996114D01*
X273281256Y-79996112D01*
X273281253Y-79996112D01*
X273235994Y-79969981D01*
X273235991Y-79969979D01*
X273197775Y-79959739D01*
X273159562Y-79949500D01*
X262510438Y-79949500D01*
X262479867Y-79957691D01*
X262434008Y-79969979D01*
X262434007Y-79969980D01*
X262388745Y-79996113D01*
X262388744Y-79996114D01*
X262365490Y-80009539D01*
X262365487Y-80009541D01*
X260241848Y-82133181D01*
X260180525Y-82166666D01*
X260154167Y-82169500D01*
X260080629Y-82169500D01*
X260013590Y-82149815D01*
X259986916Y-82126703D01*
X259974569Y-82112454D01*
X259953256Y-82087857D01*
X259832181Y-82010047D01*
X259832179Y-82010046D01*
X259832177Y-82010045D01*
X259832178Y-82010045D01*
X259694091Y-81969500D01*
X259694089Y-81969500D01*
X259597961Y-81969500D01*
X259530922Y-81949815D01*
X259510280Y-81933181D01*
X258906641Y-81329541D01*
X258906639Y-81329540D01*
X258895994Y-81323394D01*
X258895994Y-81323393D01*
X258895992Y-81323393D01*
X258838117Y-81289979D01*
X258761690Y-81269500D01*
X258761688Y-81269500D01*
X258129473Y-81269500D01*
X258062434Y-81249815D01*
X258016679Y-81197011D01*
X258006735Y-81127853D01*
X258035760Y-81064297D01*
X258064788Y-81030797D01*
X258123566Y-80993023D01*
X258158501Y-80988000D01*
X258792060Y-80988000D01*
X258792062Y-80988000D01*
X258868489Y-80967521D01*
X258937011Y-80927960D01*
X258992960Y-80872011D01*
X260228152Y-79636819D01*
X260289475Y-79603334D01*
X260315833Y-79600500D01*
X273484167Y-79600500D01*
X273551206Y-79620185D01*
G37*
%TD.AperFunction*%
%TA.AperFunction,Conductor*%
G36*
X277850252Y-46960185D02*
G01*
X277896007Y-47012989D01*
X277905951Y-47082147D01*
X277876926Y-47145703D01*
X277842952Y-47173160D01*
X277584462Y-47315268D01*
X277567516Y-47324584D01*
X277567504Y-47324591D01*
X277312978Y-47509515D01*
X277312968Y-47509523D01*
X277083608Y-47724907D01*
X277083606Y-47724909D01*
X276883054Y-47967334D01*
X276883051Y-47967338D01*
X276714464Y-48232990D01*
X276714461Y-48232996D01*
X276580499Y-48517678D01*
X276580497Y-48517683D01*
X276483270Y-48816916D01*
X276424311Y-49125988D01*
X276424310Y-49125995D01*
X276404556Y-49439994D01*
X276404556Y-49440005D01*
X276424310Y-49754004D01*
X276424311Y-49754011D01*
X276424312Y-49754015D01*
X276473469Y-50011708D01*
X276483270Y-50063083D01*
X276580497Y-50362316D01*
X276580499Y-50362321D01*
X276714461Y-50647003D01*
X276714464Y-50647009D01*
X276883051Y-50912661D01*
X276883054Y-50912665D01*
X277083606Y-51155090D01*
X277083608Y-51155092D01*
X277083610Y-51155094D01*
X277125629Y-51194552D01*
X277312968Y-51370476D01*
X277312978Y-51370484D01*
X277567504Y-51555408D01*
X277567509Y-51555410D01*
X277567516Y-51555416D01*
X277843234Y-51706994D01*
X277843239Y-51706996D01*
X277843241Y-51706997D01*
X277843242Y-51706998D01*
X278135771Y-51822818D01*
X278135774Y-51822819D01*
X278403768Y-51891628D01*
X278440527Y-51901066D01*
X278506010Y-51909338D01*
X278752670Y-51940499D01*
X278752679Y-51940499D01*
X278752682Y-51940500D01*
X278752684Y-51940500D01*
X279067316Y-51940500D01*
X279067318Y-51940500D01*
X279067321Y-51940499D01*
X279067329Y-51940499D01*
X279253593Y-51916968D01*
X279379473Y-51901066D01*
X279684225Y-51822819D01*
X279751245Y-51796284D01*
X279976757Y-51706998D01*
X279976758Y-51706997D01*
X279976756Y-51706997D01*
X279976766Y-51706994D01*
X280252484Y-51555416D01*
X280507030Y-51370478D01*
X280736390Y-51155094D01*
X280936947Y-50912663D01*
X281105537Y-50647007D01*
X281170149Y-50509700D01*
X281173302Y-50503000D01*
X281219657Y-50450722D01*
X281286917Y-50431805D01*
X281353727Y-50452254D01*
X281398876Y-50505578D01*
X281409500Y-50555797D01*
X281409500Y-104324202D01*
X281389815Y-104391241D01*
X281337011Y-104436996D01*
X281267853Y-104446940D01*
X281204297Y-104417915D01*
X281173302Y-104376999D01*
X281105539Y-104232996D01*
X281105535Y-104232990D01*
X280936948Y-103967338D01*
X280936945Y-103967334D01*
X280736393Y-103724909D01*
X280736391Y-103724907D01*
X280507031Y-103509523D01*
X280507021Y-103509515D01*
X280252495Y-103324591D01*
X280252488Y-103324586D01*
X280252484Y-103324584D01*
X279976766Y-103173006D01*
X279976763Y-103173004D01*
X279976758Y-103173002D01*
X279976757Y-103173001D01*
X279684228Y-103057181D01*
X279684225Y-103057180D01*
X279379476Y-102978934D01*
X279379463Y-102978932D01*
X279067329Y-102939500D01*
X279067318Y-102939500D01*
X278752682Y-102939500D01*
X278752670Y-102939500D01*
X278440536Y-102978932D01*
X278440523Y-102978934D01*
X278135774Y-103057180D01*
X278135771Y-103057181D01*
X277843242Y-103173001D01*
X277843241Y-103173002D01*
X277567516Y-103324584D01*
X277567504Y-103324591D01*
X277312978Y-103509515D01*
X277312968Y-103509523D01*
X277083608Y-103724907D01*
X277083606Y-103724909D01*
X276883054Y-103967334D01*
X276883051Y-103967338D01*
X276714464Y-104232990D01*
X276714461Y-104232996D01*
X276580499Y-104517678D01*
X276580497Y-104517683D01*
X276483270Y-104816916D01*
X276424311Y-105125988D01*
X276424310Y-105125995D01*
X276404556Y-105439994D01*
X276404556Y-105440005D01*
X276424310Y-105754004D01*
X276424311Y-105754011D01*
X276483270Y-106063083D01*
X276580497Y-106362316D01*
X276580499Y-106362321D01*
X276714461Y-106647003D01*
X276714464Y-106647009D01*
X276883051Y-106912661D01*
X276883054Y-106912665D01*
X277083606Y-107155090D01*
X277083608Y-107155092D01*
X277083610Y-107155094D01*
X277175929Y-107241787D01*
X277312968Y-107370476D01*
X277312978Y-107370484D01*
X277567504Y-107555408D01*
X277567509Y-107555410D01*
X277567516Y-107555416D01*
X277842951Y-107706838D01*
X277892215Y-107756384D01*
X277906871Y-107824699D01*
X277882267Y-107890094D01*
X277826214Y-107931805D01*
X277783213Y-107939500D01*
X199036787Y-107939500D01*
X198969748Y-107919815D01*
X198923993Y-107867011D01*
X198914049Y-107797853D01*
X198943074Y-107734297D01*
X198977047Y-107706839D01*
X199252484Y-107555416D01*
X199507030Y-107370478D01*
X199736390Y-107155094D01*
X199936947Y-106912663D01*
X200105537Y-106647007D01*
X200239503Y-106362315D01*
X200336731Y-106063079D01*
X200395688Y-105754015D01*
X200399916Y-105686810D01*
X200415444Y-105440005D01*
X200415444Y-105439994D01*
X200395689Y-105125995D01*
X200395688Y-105125988D01*
X200395688Y-105125985D01*
X200336731Y-104816921D01*
X200239503Y-104517685D01*
X200232589Y-104502993D01*
X200180003Y-104391241D01*
X200105537Y-104232993D01*
X199995402Y-104059447D01*
X199936948Y-103967338D01*
X199936945Y-103967334D01*
X199736393Y-103724909D01*
X199736391Y-103724907D01*
X199507031Y-103509523D01*
X199507021Y-103509515D01*
X199252495Y-103324591D01*
X199252488Y-103324586D01*
X199252484Y-103324584D01*
X198976766Y-103173006D01*
X198976763Y-103173004D01*
X198976758Y-103173002D01*
X198976757Y-103173001D01*
X198684228Y-103057181D01*
X198684225Y-103057180D01*
X198379476Y-102978934D01*
X198379463Y-102978932D01*
X198067329Y-102939500D01*
X198067318Y-102939500D01*
X197752682Y-102939500D01*
X197752670Y-102939500D01*
X197440536Y-102978932D01*
X197440523Y-102978934D01*
X197135774Y-103057180D01*
X197135771Y-103057181D01*
X196843242Y-103173001D01*
X196843241Y-103173002D01*
X196567516Y-103324584D01*
X196567504Y-103324591D01*
X196312978Y-103509515D01*
X196312968Y-103509523D01*
X196083608Y-103724907D01*
X196083606Y-103724909D01*
X195883054Y-103967334D01*
X195883051Y-103967338D01*
X195714464Y-104232990D01*
X195714460Y-104232996D01*
X195646698Y-104376999D01*
X195600343Y-104429277D01*
X195533083Y-104448194D01*
X195466273Y-104427745D01*
X195421124Y-104374421D01*
X195410500Y-104324202D01*
X195410500Y-91070003D01*
X197624353Y-91070003D01*
X197644834Y-91212459D01*
X197698430Y-91329815D01*
X197704623Y-91343376D01*
X197798872Y-91452146D01*
X197919947Y-91529956D01*
X197919950Y-91529957D01*
X197919949Y-91529957D01*
X198058036Y-91570502D01*
X198058038Y-91570503D01*
X198058039Y-91570503D01*
X198201962Y-91570503D01*
X198201962Y-91570502D01*
X198254797Y-91554988D01*
X198348563Y-91527458D01*
X198348995Y-91528929D01*
X198387727Y-91520503D01*
X207192273Y-91520503D01*
X207231004Y-91528929D01*
X207231437Y-91527458D01*
X207378036Y-91570502D01*
X207378038Y-91570503D01*
X207378039Y-91570503D01*
X207521962Y-91570503D01*
X207521962Y-91570502D01*
X207574797Y-91554988D01*
X207668563Y-91527458D01*
X207668995Y-91528929D01*
X207707727Y-91520503D01*
X216492273Y-91520503D01*
X216531004Y-91528929D01*
X216531437Y-91527458D01*
X216678036Y-91570502D01*
X216678038Y-91570503D01*
X216678039Y-91570503D01*
X216821962Y-91570503D01*
X216821962Y-91570502D01*
X216874797Y-91554988D01*
X216968563Y-91527458D01*
X216968995Y-91528929D01*
X217007727Y-91520503D01*
X225842273Y-91520503D01*
X225881004Y-91528929D01*
X225881437Y-91527458D01*
X226028036Y-91570502D01*
X226028038Y-91570503D01*
X226028039Y-91570503D01*
X226171962Y-91570503D01*
X226171962Y-91570502D01*
X226224797Y-91554988D01*
X226318563Y-91527458D01*
X226318995Y-91528929D01*
X226357727Y-91520503D01*
X235092279Y-91520503D01*
X235131010Y-91528929D01*
X235131443Y-91527458D01*
X235278042Y-91570502D01*
X235278044Y-91570503D01*
X235278045Y-91570503D01*
X235421968Y-91570503D01*
X235421968Y-91570502D01*
X235474803Y-91554988D01*
X235568569Y-91527458D01*
X235569001Y-91528929D01*
X235607733Y-91520503D01*
X243251538Y-91520503D01*
X243318577Y-91540188D01*
X243339219Y-91556822D01*
X244754484Y-92972087D01*
X244779597Y-93008256D01*
X244822123Y-93101373D01*
X244916372Y-93210143D01*
X245037447Y-93287953D01*
X245037450Y-93287954D01*
X245037449Y-93287954D01*
X245175536Y-93328499D01*
X245175538Y-93328500D01*
X245175539Y-93328500D01*
X245319462Y-93328500D01*
X245319462Y-93328499D01*
X245426621Y-93297035D01*
X245457550Y-93287954D01*
X245457550Y-93287953D01*
X245457553Y-93287953D01*
X245578628Y-93210143D01*
X245672877Y-93101373D01*
X245732665Y-92970457D01*
X245753147Y-92828000D01*
X245732665Y-92685543D01*
X245672877Y-92554627D01*
X245578628Y-92445857D01*
X245508339Y-92400685D01*
X245457552Y-92368046D01*
X245441336Y-92363285D01*
X245388592Y-92331989D01*
X243766119Y-90709516D01*
X243766117Y-90709514D01*
X243724425Y-90685443D01*
X243663388Y-90650202D01*
X243627174Y-90640500D01*
X243587992Y-90630001D01*
X243548812Y-90619503D01*
X243548811Y-90619503D01*
X235607733Y-90619503D01*
X235569001Y-90611076D01*
X235568569Y-90612548D01*
X235421969Y-90569503D01*
X235421967Y-90569503D01*
X235278045Y-90569503D01*
X235278042Y-90569503D01*
X235131443Y-90612548D01*
X235131010Y-90611076D01*
X235092279Y-90619503D01*
X226357727Y-90619503D01*
X226318995Y-90611076D01*
X226318563Y-90612548D01*
X226171963Y-90569503D01*
X226171961Y-90569503D01*
X226028039Y-90569503D01*
X226028036Y-90569503D01*
X225881437Y-90612548D01*
X225881004Y-90611076D01*
X225842273Y-90619503D01*
X217007727Y-90619503D01*
X216968995Y-90611076D01*
X216968563Y-90612548D01*
X216821963Y-90569503D01*
X216821961Y-90569503D01*
X216678039Y-90569503D01*
X216678036Y-90569503D01*
X216531437Y-90612548D01*
X216531004Y-90611076D01*
X216492273Y-90619503D01*
X207707727Y-90619503D01*
X207668995Y-90611076D01*
X207668563Y-90612548D01*
X207521963Y-90569503D01*
X207521961Y-90569503D01*
X207378039Y-90569503D01*
X207378036Y-90569503D01*
X207231437Y-90612548D01*
X207231004Y-90611076D01*
X207192273Y-90619503D01*
X198387727Y-90619503D01*
X198348995Y-90611076D01*
X198348563Y-90612548D01*
X198201963Y-90569503D01*
X198201961Y-90569503D01*
X198058039Y-90569503D01*
X198058036Y-90569503D01*
X197919949Y-90610048D01*
X197919950Y-90610048D01*
X197798873Y-90687859D01*
X197704623Y-90796629D01*
X197704622Y-90796631D01*
X197644834Y-90927546D01*
X197624353Y-91070003D01*
X195410500Y-91070003D01*
X195410500Y-89539996D01*
X199244353Y-89539996D01*
X199264834Y-89682452D01*
X199314934Y-89792153D01*
X199324623Y-89813369D01*
X199418872Y-89922139D01*
X199539947Y-89999949D01*
X199539950Y-89999950D01*
X199539949Y-89999950D01*
X199678036Y-90040495D01*
X199678038Y-90040496D01*
X199678039Y-90040496D01*
X199821962Y-90040496D01*
X199821962Y-90040495D01*
X199874797Y-90024981D01*
X199968563Y-89997451D01*
X199968995Y-89998922D01*
X200007727Y-89990496D01*
X208772273Y-89990496D01*
X208811004Y-89998922D01*
X208811437Y-89997451D01*
X208958036Y-90040495D01*
X208958038Y-90040496D01*
X208958039Y-90040496D01*
X209101962Y-90040496D01*
X209101962Y-90040495D01*
X209154797Y-90024981D01*
X209248563Y-89997451D01*
X209248995Y-89998922D01*
X209287727Y-89990496D01*
X210080578Y-89990496D01*
X210080640Y-89990500D01*
X210088699Y-89990500D01*
X218072273Y-89990500D01*
X218111004Y-89998926D01*
X218111437Y-89997455D01*
X218237529Y-90034477D01*
X218258025Y-90040496D01*
X218258036Y-90040499D01*
X218258038Y-90040500D01*
X218258039Y-90040500D01*
X218401962Y-90040500D01*
X218401962Y-90040499D01*
X218454797Y-90024985D01*
X218548563Y-89997455D01*
X218548995Y-89998926D01*
X218587727Y-89990500D01*
X227342273Y-89990500D01*
X227381004Y-89998926D01*
X227381437Y-89997455D01*
X227507529Y-90034477D01*
X227528025Y-90040496D01*
X227528036Y-90040499D01*
X227528038Y-90040500D01*
X227528039Y-90040500D01*
X227671962Y-90040500D01*
X227671962Y-90040499D01*
X227724797Y-90024985D01*
X227818563Y-89997455D01*
X227818995Y-89998926D01*
X227857727Y-89990500D01*
X236652273Y-89990500D01*
X236691004Y-89998926D01*
X236691437Y-89997455D01*
X236817529Y-90034477D01*
X236838025Y-90040496D01*
X236838036Y-90040499D01*
X236838038Y-90040500D01*
X236838039Y-90040500D01*
X236981961Y-90040500D01*
X237067026Y-90015522D01*
X237101960Y-90010500D01*
X243773535Y-90010500D01*
X243840574Y-90030185D01*
X243861216Y-90046819D01*
X244754484Y-90940087D01*
X244779597Y-90976256D01*
X244818389Y-91061197D01*
X244822123Y-91069373D01*
X244916372Y-91178143D01*
X245037447Y-91255953D01*
X245037450Y-91255954D01*
X245037449Y-91255954D01*
X245175536Y-91296499D01*
X245175538Y-91296500D01*
X245175539Y-91296500D01*
X245319462Y-91296500D01*
X245319462Y-91296499D01*
X245457553Y-91255953D01*
X245578628Y-91178143D01*
X245672877Y-91069373D01*
X245732665Y-90938457D01*
X245753147Y-90796000D01*
X245732665Y-90653543D01*
X245672877Y-90522627D01*
X245578628Y-90413857D01*
X245495113Y-90360185D01*
X245457552Y-90336046D01*
X245441336Y-90331285D01*
X245388592Y-90299989D01*
X244288116Y-89199513D01*
X244288114Y-89199511D01*
X244215961Y-89157853D01*
X244185388Y-89140201D01*
X244173280Y-89136957D01*
X244161173Y-89133713D01*
X244161170Y-89133712D01*
X244122978Y-89123478D01*
X244070809Y-89109500D01*
X244070808Y-89109500D01*
X237202292Y-89109500D01*
X237135254Y-89089816D01*
X237120050Y-89080045D01*
X236981963Y-89039500D01*
X236981961Y-89039500D01*
X236838039Y-89039500D01*
X236838036Y-89039500D01*
X236691437Y-89082545D01*
X236691004Y-89081073D01*
X236652273Y-89089500D01*
X227857727Y-89089500D01*
X227818995Y-89081073D01*
X227818563Y-89082545D01*
X227671963Y-89039500D01*
X227671961Y-89039500D01*
X227528039Y-89039500D01*
X227528036Y-89039500D01*
X227381437Y-89082545D01*
X227381004Y-89081073D01*
X227342273Y-89089500D01*
X218587727Y-89089500D01*
X218548995Y-89081073D01*
X218548563Y-89082545D01*
X218401963Y-89039500D01*
X218401961Y-89039500D01*
X218258039Y-89039500D01*
X218258036Y-89039500D01*
X218111437Y-89082545D01*
X218111004Y-89081073D01*
X218072273Y-89089500D01*
X210215434Y-89089500D01*
X210215372Y-89089496D01*
X210207313Y-89089496D01*
X209287727Y-89089496D01*
X209248995Y-89081069D01*
X209248563Y-89082541D01*
X209101963Y-89039496D01*
X209101961Y-89039496D01*
X208958039Y-89039496D01*
X208958036Y-89039496D01*
X208811437Y-89082541D01*
X208811004Y-89081069D01*
X208772273Y-89089496D01*
X200007727Y-89089496D01*
X199968995Y-89081069D01*
X199968563Y-89082541D01*
X199821963Y-89039496D01*
X199821961Y-89039496D01*
X199678039Y-89039496D01*
X199678036Y-89039496D01*
X199539949Y-89080041D01*
X199418873Y-89157852D01*
X199324623Y-89266622D01*
X199324622Y-89266624D01*
X199264834Y-89397539D01*
X199244353Y-89539996D01*
X195410500Y-89539996D01*
X195410500Y-88260000D01*
X202154353Y-88260000D01*
X202174834Y-88402456D01*
X202206605Y-88472023D01*
X202234623Y-88533373D01*
X202328872Y-88642143D01*
X202449947Y-88719953D01*
X202449950Y-88719954D01*
X202449949Y-88719954D01*
X202588036Y-88760499D01*
X202588038Y-88760500D01*
X202588039Y-88760500D01*
X202731962Y-88760500D01*
X202731962Y-88760499D01*
X202870053Y-88719953D01*
X202900814Y-88700183D01*
X202967853Y-88680500D01*
X211682147Y-88680500D01*
X211749185Y-88700183D01*
X211779947Y-88719953D01*
X211779950Y-88719954D01*
X211779949Y-88719954D01*
X211918036Y-88760499D01*
X211918038Y-88760500D01*
X211918039Y-88760500D01*
X212061961Y-88760500D01*
X212147026Y-88735522D01*
X212181960Y-88730500D01*
X221052268Y-88730500D01*
X221091005Y-88738926D01*
X221091437Y-88737457D01*
X221212986Y-88773146D01*
X221236632Y-88780089D01*
X221238036Y-88780501D01*
X221238038Y-88780502D01*
X221238039Y-88780502D01*
X221381962Y-88780502D01*
X221381962Y-88780501D01*
X221438162Y-88764000D01*
X221528563Y-88737457D01*
X221528994Y-88738926D01*
X221567732Y-88730500D01*
X230601964Y-88730500D01*
X230601964Y-88730499D01*
X230740052Y-88689954D01*
X230740053Y-88689954D01*
X230755253Y-88680186D01*
X230822291Y-88660502D01*
X239552273Y-88660502D01*
X239591004Y-88668928D01*
X239591437Y-88667457D01*
X239738036Y-88710501D01*
X239738038Y-88710502D01*
X239738039Y-88710502D01*
X239881962Y-88710502D01*
X239881962Y-88710501D01*
X239951942Y-88689954D01*
X240028563Y-88667457D01*
X240028994Y-88668926D01*
X240067732Y-88660500D01*
X244455535Y-88660500D01*
X244522574Y-88680185D01*
X244543216Y-88696819D01*
X244754484Y-88908087D01*
X244779597Y-88944256D01*
X244803512Y-88996622D01*
X244822123Y-89037373D01*
X244916372Y-89146143D01*
X245037447Y-89223953D01*
X245037450Y-89223954D01*
X245037449Y-89223954D01*
X245175536Y-89264499D01*
X245175538Y-89264500D01*
X245175539Y-89264500D01*
X245319462Y-89264500D01*
X245319462Y-89264499D01*
X245457553Y-89223953D01*
X245578628Y-89146143D01*
X245672877Y-89037373D01*
X245732665Y-88906457D01*
X245753147Y-88764000D01*
X245732665Y-88621543D01*
X245672877Y-88490627D01*
X245578628Y-88381857D01*
X245504131Y-88333981D01*
X245457552Y-88304046D01*
X245441336Y-88299285D01*
X245388592Y-88267989D01*
X244970116Y-87849513D01*
X244970114Y-87849511D01*
X244884441Y-87800047D01*
X244867388Y-87790201D01*
X244855280Y-87786957D01*
X244843173Y-87783713D01*
X244843170Y-87783712D01*
X244792163Y-87770045D01*
X244752809Y-87759500D01*
X244752808Y-87759500D01*
X240067723Y-87759500D01*
X240028995Y-87751075D01*
X240028563Y-87752547D01*
X239881963Y-87709502D01*
X239881961Y-87709502D01*
X239738039Y-87709502D01*
X239738036Y-87709502D01*
X239591437Y-87752547D01*
X239591004Y-87751075D01*
X239552273Y-87759502D01*
X230721969Y-87759502D01*
X230687035Y-87754479D01*
X230645148Y-87742180D01*
X230601964Y-87729500D01*
X230601963Y-87729500D01*
X230458041Y-87729500D01*
X230458038Y-87729500D01*
X230319952Y-87770045D01*
X230319950Y-87770045D01*
X230258066Y-87809816D01*
X230191028Y-87829500D01*
X221567723Y-87829500D01*
X221528995Y-87821075D01*
X221528563Y-87822547D01*
X221381963Y-87779502D01*
X221381961Y-87779502D01*
X221238039Y-87779502D01*
X221238036Y-87779502D01*
X221091437Y-87822547D01*
X221091004Y-87821075D01*
X221052277Y-87829500D01*
X212282292Y-87829500D01*
X212215254Y-87809816D01*
X212200050Y-87800045D01*
X212061963Y-87759500D01*
X212061961Y-87759500D01*
X211918039Y-87759500D01*
X211918038Y-87759500D01*
X211891441Y-87767309D01*
X211867030Y-87774477D01*
X211832097Y-87779500D01*
X202817903Y-87779500D01*
X202782969Y-87774477D01*
X202758558Y-87767309D01*
X202731962Y-87759500D01*
X202731961Y-87759500D01*
X202588039Y-87759500D01*
X202588036Y-87759500D01*
X202449949Y-87800045D01*
X202328873Y-87877856D01*
X202234623Y-87986626D01*
X202234622Y-87986628D01*
X202174834Y-88117543D01*
X202154353Y-88260000D01*
X195410500Y-88260000D01*
X195410500Y-86868000D01*
X203644353Y-86868000D01*
X203664834Y-87010456D01*
X203704984Y-87098371D01*
X203724623Y-87141373D01*
X203818872Y-87250143D01*
X203939947Y-87327953D01*
X203939950Y-87327954D01*
X203939949Y-87327954D01*
X204078036Y-87368499D01*
X204078038Y-87368500D01*
X204078039Y-87368500D01*
X204221962Y-87368500D01*
X204221962Y-87368499D01*
X204296196Y-87346703D01*
X204368563Y-87325455D01*
X204368995Y-87326926D01*
X204407727Y-87318500D01*
X213182273Y-87318500D01*
X213221004Y-87326926D01*
X213221437Y-87325455D01*
X213368036Y-87368499D01*
X213368038Y-87368500D01*
X213368039Y-87368500D01*
X213511962Y-87368500D01*
X213511962Y-87368499D01*
X213586196Y-87346703D01*
X213658563Y-87325455D01*
X213658995Y-87326926D01*
X213697727Y-87318500D01*
X222522273Y-87318500D01*
X222561004Y-87326926D01*
X222561437Y-87325455D01*
X222708036Y-87368499D01*
X222708038Y-87368500D01*
X222708039Y-87368500D01*
X222851962Y-87368500D01*
X222851962Y-87368499D01*
X222926196Y-87346703D01*
X222998563Y-87325455D01*
X222998995Y-87326926D01*
X223037727Y-87318500D01*
X231802273Y-87318500D01*
X231841004Y-87326926D01*
X231841437Y-87325455D01*
X231988036Y-87368499D01*
X231988038Y-87368500D01*
X231988039Y-87368500D01*
X232131962Y-87368500D01*
X232131962Y-87368499D01*
X232206196Y-87346703D01*
X232278563Y-87325455D01*
X232278995Y-87326926D01*
X232317727Y-87318500D01*
X241112273Y-87318500D01*
X241151004Y-87326926D01*
X241151437Y-87325455D01*
X241298036Y-87368499D01*
X241298038Y-87368500D01*
X241298039Y-87368500D01*
X241441962Y-87368500D01*
X241441962Y-87368499D01*
X241516196Y-87346703D01*
X241588563Y-87325455D01*
X241588995Y-87326926D01*
X241627727Y-87318500D01*
X245170808Y-87318500D01*
X245170809Y-87318500D01*
X245261173Y-87294286D01*
X245285387Y-87287799D01*
X245388114Y-87228489D01*
X245388582Y-87228020D01*
X245389208Y-87227648D01*
X245394565Y-87223539D01*
X245395056Y-87224179D01*
X245441343Y-87196712D01*
X245457553Y-87191953D01*
X245457555Y-87191951D01*
X245457557Y-87191951D01*
X245578623Y-87114146D01*
X245578622Y-87114146D01*
X245578628Y-87114143D01*
X245672877Y-87005373D01*
X245732665Y-86874457D01*
X245753147Y-86732000D01*
X245732665Y-86589543D01*
X245672877Y-86458627D01*
X245578628Y-86349857D01*
X245457553Y-86272047D01*
X245457551Y-86272046D01*
X245457549Y-86272045D01*
X245457550Y-86272045D01*
X245319463Y-86231500D01*
X245319461Y-86231500D01*
X245175539Y-86231500D01*
X245175536Y-86231500D01*
X245037449Y-86272045D01*
X244916372Y-86349856D01*
X244894842Y-86374704D01*
X244836064Y-86412477D01*
X244801130Y-86417500D01*
X241627727Y-86417500D01*
X241588995Y-86409073D01*
X241588563Y-86410545D01*
X241441963Y-86367500D01*
X241441961Y-86367500D01*
X241298039Y-86367500D01*
X241298036Y-86367500D01*
X241151437Y-86410545D01*
X241151004Y-86409073D01*
X241112273Y-86417500D01*
X232317727Y-86417500D01*
X232278995Y-86409073D01*
X232278563Y-86410545D01*
X232131963Y-86367500D01*
X232131961Y-86367500D01*
X231988039Y-86367500D01*
X231988036Y-86367500D01*
X231841437Y-86410545D01*
X231841004Y-86409073D01*
X231802273Y-86417500D01*
X223037727Y-86417500D01*
X222998995Y-86409073D01*
X222998563Y-86410545D01*
X222851963Y-86367500D01*
X222851961Y-86367500D01*
X222708039Y-86367500D01*
X222708036Y-86367500D01*
X222561437Y-86410545D01*
X222561004Y-86409073D01*
X222522273Y-86417500D01*
X213697727Y-86417500D01*
X213658995Y-86409073D01*
X213658563Y-86410545D01*
X213511963Y-86367500D01*
X213511961Y-86367500D01*
X213368039Y-86367500D01*
X213368036Y-86367500D01*
X213221437Y-86410545D01*
X213221004Y-86409073D01*
X213182273Y-86417500D01*
X204407727Y-86417500D01*
X204368995Y-86409073D01*
X204368563Y-86410545D01*
X204221963Y-86367500D01*
X204221961Y-86367500D01*
X204078039Y-86367500D01*
X204078036Y-86367500D01*
X203939949Y-86408045D01*
X203818873Y-86485856D01*
X203724623Y-86594626D01*
X203724622Y-86594628D01*
X203664834Y-86725543D01*
X203644353Y-86868000D01*
X195410500Y-86868000D01*
X195410500Y-84690000D01*
X203634353Y-84690000D01*
X203654834Y-84832456D01*
X203694731Y-84919816D01*
X203714623Y-84963373D01*
X203808872Y-85072143D01*
X203929947Y-85149953D01*
X203929950Y-85149954D01*
X203929949Y-85149954D01*
X204068036Y-85190499D01*
X204068038Y-85190500D01*
X204068039Y-85190500D01*
X204211962Y-85190500D01*
X204211962Y-85190499D01*
X204264797Y-85174985D01*
X204358563Y-85147455D01*
X204358996Y-85148930D01*
X204397710Y-85140508D01*
X213182273Y-85140508D01*
X213221004Y-85148934D01*
X213221437Y-85147463D01*
X213347529Y-85184485D01*
X213368008Y-85190499D01*
X213368036Y-85190507D01*
X213368038Y-85190508D01*
X213368039Y-85190508D01*
X213511962Y-85190508D01*
X213511962Y-85190507D01*
X213589118Y-85167853D01*
X213658563Y-85147463D01*
X213658995Y-85148934D01*
X213697727Y-85140508D01*
X222502273Y-85140508D01*
X222541004Y-85148934D01*
X222541437Y-85147463D01*
X222667529Y-85184485D01*
X222688008Y-85190499D01*
X222688036Y-85190507D01*
X222688038Y-85190508D01*
X222688039Y-85190508D01*
X222831962Y-85190508D01*
X222831962Y-85190507D01*
X222909118Y-85167853D01*
X222978563Y-85147463D01*
X222978995Y-85148934D01*
X223017727Y-85140508D01*
X231802273Y-85140508D01*
X231841004Y-85148934D01*
X231841437Y-85147463D01*
X231967529Y-85184485D01*
X231988008Y-85190499D01*
X231988036Y-85190507D01*
X231988038Y-85190508D01*
X231988039Y-85190508D01*
X232131962Y-85190508D01*
X232131962Y-85190507D01*
X232209118Y-85167853D01*
X232278563Y-85147463D01*
X232278995Y-85148934D01*
X232317727Y-85140508D01*
X241092273Y-85140508D01*
X241131004Y-85148934D01*
X241131437Y-85147463D01*
X241257529Y-85184485D01*
X241278008Y-85190499D01*
X241278036Y-85190507D01*
X241278038Y-85190508D01*
X241278039Y-85190508D01*
X241421962Y-85190508D01*
X241421962Y-85190507D01*
X241499118Y-85167853D01*
X241568563Y-85147463D01*
X241568995Y-85148934D01*
X241607727Y-85140508D01*
X244970781Y-85140508D01*
X245028799Y-85157544D01*
X245029382Y-85156270D01*
X245037449Y-85159954D01*
X245141478Y-85190499D01*
X245165468Y-85197543D01*
X245175536Y-85200499D01*
X245175538Y-85200500D01*
X245175539Y-85200500D01*
X245319462Y-85200500D01*
X245319462Y-85200499D01*
X245457553Y-85159953D01*
X245578628Y-85082143D01*
X245672877Y-84973373D01*
X245732665Y-84842457D01*
X245753147Y-84700000D01*
X245732665Y-84557543D01*
X245672877Y-84426627D01*
X245578628Y-84317857D01*
X245457553Y-84240047D01*
X245457551Y-84240046D01*
X245457549Y-84240045D01*
X245457550Y-84240045D01*
X245319463Y-84199500D01*
X245319461Y-84199500D01*
X245175539Y-84199500D01*
X245175538Y-84199500D01*
X245056390Y-84234485D01*
X245021455Y-84239508D01*
X241607727Y-84239508D01*
X241568995Y-84231081D01*
X241568563Y-84232553D01*
X241421963Y-84189508D01*
X241421961Y-84189508D01*
X241278039Y-84189508D01*
X241278036Y-84189508D01*
X241131437Y-84232553D01*
X241131004Y-84231081D01*
X241092273Y-84239508D01*
X232317727Y-84239508D01*
X232278995Y-84231081D01*
X232278563Y-84232553D01*
X232131963Y-84189508D01*
X232131961Y-84189508D01*
X231988039Y-84189508D01*
X231988036Y-84189508D01*
X231841437Y-84232553D01*
X231841004Y-84231081D01*
X231802273Y-84239508D01*
X223017727Y-84239508D01*
X222978995Y-84231081D01*
X222978563Y-84232553D01*
X222831963Y-84189508D01*
X222831961Y-84189508D01*
X222688039Y-84189508D01*
X222688036Y-84189508D01*
X222541437Y-84232553D01*
X222541004Y-84231081D01*
X222502273Y-84239508D01*
X213697727Y-84239508D01*
X213658995Y-84231081D01*
X213658563Y-84232553D01*
X213511963Y-84189508D01*
X213511961Y-84189508D01*
X213368039Y-84189508D01*
X213368036Y-84189508D01*
X213221437Y-84232553D01*
X213221004Y-84231081D01*
X213182273Y-84239508D01*
X204397745Y-84239508D01*
X204358993Y-84231077D01*
X204358563Y-84232545D01*
X204211963Y-84189500D01*
X204211961Y-84189500D01*
X204068039Y-84189500D01*
X204068036Y-84189500D01*
X203929949Y-84230045D01*
X203808873Y-84307856D01*
X203714623Y-84416626D01*
X203714622Y-84416628D01*
X203654834Y-84547543D01*
X203634353Y-84690000D01*
X195410500Y-84690000D01*
X195410500Y-81652500D01*
X199114353Y-81652500D01*
X199134834Y-81794956D01*
X199185921Y-81906819D01*
X199194623Y-81925873D01*
X199288872Y-82034643D01*
X199409947Y-82112453D01*
X199409950Y-82112454D01*
X199409949Y-82112454D01*
X199517107Y-82143917D01*
X199539521Y-82150499D01*
X199548036Y-82152999D01*
X199548038Y-82153000D01*
X199548039Y-82153000D01*
X199691962Y-82153000D01*
X199691962Y-82152999D01*
X199781521Y-82126703D01*
X199830047Y-82112455D01*
X199830048Y-82112454D01*
X199830053Y-82112453D01*
X199830056Y-82112450D01*
X199831686Y-82111707D01*
X199835198Y-82110942D01*
X199838563Y-82109955D01*
X199838633Y-82110195D01*
X199883201Y-82100500D01*
X208682273Y-82100500D01*
X208721004Y-82108926D01*
X208721437Y-82107455D01*
X208868036Y-82150499D01*
X208868038Y-82150500D01*
X208868039Y-82150500D01*
X209011962Y-82150500D01*
X209011962Y-82150499D01*
X209070945Y-82133181D01*
X209158563Y-82107455D01*
X209158995Y-82108926D01*
X209197727Y-82100500D01*
X217982273Y-82100500D01*
X218021004Y-82108926D01*
X218021437Y-82107455D01*
X218168036Y-82150499D01*
X218168038Y-82150500D01*
X218168039Y-82150500D01*
X218311962Y-82150500D01*
X218311962Y-82150499D01*
X218370945Y-82133181D01*
X218458563Y-82107455D01*
X218458995Y-82108926D01*
X218497727Y-82100500D01*
X227282273Y-82100500D01*
X227321004Y-82108926D01*
X227321437Y-82107455D01*
X227468036Y-82150499D01*
X227468038Y-82150500D01*
X227468039Y-82150500D01*
X227611962Y-82150500D01*
X227611962Y-82150499D01*
X227670945Y-82133181D01*
X227758563Y-82107455D01*
X227758995Y-82108926D01*
X227797727Y-82100500D01*
X236582273Y-82100500D01*
X236621004Y-82108926D01*
X236621437Y-82107455D01*
X236768036Y-82150499D01*
X236768038Y-82150500D01*
X236768039Y-82150500D01*
X236911962Y-82150500D01*
X236911962Y-82150499D01*
X236970945Y-82133181D01*
X237058563Y-82107455D01*
X237058995Y-82108926D01*
X237097727Y-82100500D01*
X244719307Y-82100500D01*
X244719309Y-82100500D01*
X244794487Y-82080355D01*
X244864332Y-82082016D01*
X244922196Y-82121177D01*
X244949702Y-82185405D01*
X244938117Y-82254307D01*
X244920293Y-82281331D01*
X244822123Y-82394627D01*
X244822119Y-82394632D01*
X244779596Y-82487742D01*
X244754486Y-82523909D01*
X244685217Y-82593180D01*
X244623894Y-82626666D01*
X244597534Y-82629500D01*
X239837895Y-82629500D01*
X239802961Y-82624477D01*
X239777913Y-82617122D01*
X239751961Y-82609502D01*
X239751960Y-82609502D01*
X239608038Y-82609502D01*
X239608035Y-82609502D01*
X239461436Y-82652547D01*
X239461003Y-82651075D01*
X239422276Y-82659500D01*
X230755637Y-82659500D01*
X230716905Y-82651073D01*
X230716473Y-82652545D01*
X230569873Y-82609500D01*
X230569871Y-82609500D01*
X230425949Y-82609500D01*
X230425946Y-82609500D01*
X230279347Y-82652545D01*
X230278914Y-82651073D01*
X230240183Y-82659500D01*
X221445637Y-82659500D01*
X221406905Y-82651073D01*
X221406473Y-82652545D01*
X221259873Y-82609500D01*
X221259871Y-82609500D01*
X221115949Y-82609500D01*
X221115946Y-82609500D01*
X220969347Y-82652545D01*
X220968914Y-82651073D01*
X220930183Y-82659500D01*
X212155637Y-82659500D01*
X212116905Y-82651073D01*
X212116473Y-82652545D01*
X211969873Y-82609500D01*
X211969871Y-82609500D01*
X211825949Y-82609500D01*
X211825946Y-82609500D01*
X211679347Y-82652545D01*
X211678914Y-82651073D01*
X211640183Y-82659500D01*
X202865637Y-82659500D01*
X202826905Y-82651073D01*
X202826473Y-82652545D01*
X202679873Y-82609500D01*
X202679871Y-82609500D01*
X202535949Y-82609500D01*
X202535946Y-82609500D01*
X202397859Y-82650045D01*
X202276783Y-82727856D01*
X202182533Y-82836626D01*
X202182532Y-82836628D01*
X202122744Y-82967543D01*
X202102263Y-83110000D01*
X202122744Y-83252456D01*
X202146070Y-83303532D01*
X202182533Y-83383373D01*
X202276782Y-83492143D01*
X202397857Y-83569953D01*
X202397860Y-83569954D01*
X202397859Y-83569954D01*
X202535946Y-83610499D01*
X202535948Y-83610500D01*
X202535949Y-83610500D01*
X202679872Y-83610500D01*
X202679872Y-83610499D01*
X202747989Y-83590499D01*
X202826473Y-83567455D01*
X202826905Y-83568926D01*
X202865637Y-83560500D01*
X211640183Y-83560500D01*
X211678914Y-83568926D01*
X211679347Y-83567455D01*
X211825946Y-83610499D01*
X211825948Y-83610500D01*
X211825949Y-83610500D01*
X211969872Y-83610500D01*
X211969872Y-83610499D01*
X212037989Y-83590499D01*
X212116473Y-83567455D01*
X212116905Y-83568926D01*
X212155637Y-83560500D01*
X220930183Y-83560500D01*
X220968914Y-83568926D01*
X220969347Y-83567455D01*
X221115946Y-83610499D01*
X221115948Y-83610500D01*
X221115949Y-83610500D01*
X221259872Y-83610500D01*
X221259872Y-83610499D01*
X221327989Y-83590499D01*
X221406473Y-83567455D01*
X221406905Y-83568926D01*
X221445637Y-83560500D01*
X230240183Y-83560500D01*
X230278914Y-83568926D01*
X230279347Y-83567455D01*
X230425946Y-83610499D01*
X230425948Y-83610500D01*
X230425949Y-83610500D01*
X230569872Y-83610500D01*
X230569872Y-83610499D01*
X230637989Y-83590499D01*
X230716473Y-83567455D01*
X230716905Y-83568926D01*
X230755637Y-83560500D01*
X239422267Y-83560500D01*
X239461004Y-83568926D01*
X239461436Y-83567457D01*
X239587528Y-83604479D01*
X239608031Y-83610500D01*
X239608035Y-83610501D01*
X239608037Y-83610502D01*
X239608038Y-83610502D01*
X239751961Y-83610502D01*
X239751961Y-83610501D01*
X239890052Y-83569955D01*
X239920816Y-83550183D01*
X239987855Y-83530500D01*
X244894808Y-83530500D01*
X244894809Y-83530500D01*
X244985173Y-83506286D01*
X245009387Y-83499799D01*
X245112114Y-83440489D01*
X245388596Y-83164005D01*
X245441342Y-83132712D01*
X245457553Y-83127953D01*
X245457555Y-83127951D01*
X245457557Y-83127951D01*
X245578623Y-83050146D01*
X245578622Y-83050146D01*
X245578628Y-83050143D01*
X245672877Y-82941373D01*
X245732665Y-82810457D01*
X245753147Y-82668000D01*
X245732665Y-82525543D01*
X245672877Y-82394627D01*
X245578628Y-82285857D01*
X245457553Y-82208047D01*
X245457551Y-82208046D01*
X245457549Y-82208045D01*
X245457550Y-82208045D01*
X245319463Y-82167500D01*
X245319461Y-82167500D01*
X245175539Y-82167500D01*
X245175535Y-82167500D01*
X245081166Y-82195209D01*
X245011296Y-82195209D01*
X244952518Y-82157434D01*
X244923494Y-82093878D01*
X244933438Y-82024720D01*
X244958548Y-81988554D01*
X245607989Y-81339114D01*
X245649708Y-81266854D01*
X245667299Y-81236386D01*
X245698000Y-81121809D01*
X245698000Y-80881335D01*
X245709205Y-80829825D01*
X245732665Y-80778457D01*
X245753147Y-80636000D01*
X245732665Y-80493543D01*
X245672877Y-80362627D01*
X245578628Y-80253857D01*
X245457553Y-80176047D01*
X245457551Y-80176046D01*
X245457549Y-80176045D01*
X245457550Y-80176045D01*
X245319463Y-80135500D01*
X245319461Y-80135500D01*
X245175539Y-80135500D01*
X245175536Y-80135500D01*
X245037449Y-80176045D01*
X244916373Y-80253856D01*
X244822123Y-80362626D01*
X244822122Y-80362628D01*
X244762334Y-80493543D01*
X244741853Y-80636000D01*
X244762334Y-80778453D01*
X244762334Y-80778454D01*
X244762334Y-80778455D01*
X244762335Y-80778457D01*
X244767986Y-80790831D01*
X244777930Y-80859987D01*
X244748906Y-80923543D01*
X244742873Y-80930023D01*
X244509716Y-81163181D01*
X244448393Y-81196666D01*
X244422035Y-81199500D01*
X237097727Y-81199500D01*
X237058995Y-81191073D01*
X237058563Y-81192545D01*
X236911963Y-81149500D01*
X236911961Y-81149500D01*
X236768039Y-81149500D01*
X236768036Y-81149500D01*
X236621437Y-81192545D01*
X236621004Y-81191073D01*
X236582273Y-81199500D01*
X227797727Y-81199500D01*
X227758995Y-81191073D01*
X227758563Y-81192545D01*
X227611963Y-81149500D01*
X227611961Y-81149500D01*
X227468039Y-81149500D01*
X227468036Y-81149500D01*
X227321437Y-81192545D01*
X227321004Y-81191073D01*
X227282273Y-81199500D01*
X218497727Y-81199500D01*
X218458995Y-81191073D01*
X218458563Y-81192545D01*
X218311963Y-81149500D01*
X218311961Y-81149500D01*
X218168039Y-81149500D01*
X218168036Y-81149500D01*
X218021437Y-81192545D01*
X218021004Y-81191073D01*
X217982273Y-81199500D01*
X209197727Y-81199500D01*
X209158995Y-81191073D01*
X209158563Y-81192545D01*
X209011963Y-81149500D01*
X209011961Y-81149500D01*
X208868039Y-81149500D01*
X208868036Y-81149500D01*
X208721437Y-81192545D01*
X208721004Y-81191073D01*
X208682273Y-81199500D01*
X199994782Y-81199500D01*
X199927743Y-81179815D01*
X199887395Y-81137500D01*
X199880462Y-81125492D01*
X199880458Y-81125487D01*
X199824512Y-81069541D01*
X199824504Y-81069535D01*
X199755995Y-81029982D01*
X199755990Y-81029979D01*
X199730513Y-81023152D01*
X199679562Y-81009500D01*
X199590438Y-81009500D01*
X199552224Y-81019739D01*
X199514009Y-81029979D01*
X199514004Y-81029982D01*
X199445495Y-81069535D01*
X199445487Y-81069541D01*
X199389539Y-81125489D01*
X199349980Y-81194009D01*
X199346870Y-81201519D01*
X199345287Y-81200863D01*
X199314010Y-81252163D01*
X199297653Y-81264713D01*
X199288872Y-81270356D01*
X199288869Y-81270358D01*
X199194625Y-81379122D01*
X199194622Y-81379128D01*
X199134834Y-81510043D01*
X199114353Y-81652500D01*
X195410500Y-81652500D01*
X195410500Y-80170000D01*
X197644353Y-80170000D01*
X197664834Y-80312456D01*
X197698878Y-80387000D01*
X197724623Y-80443373D01*
X197818872Y-80552143D01*
X197939947Y-80629953D01*
X197939950Y-80629954D01*
X197939949Y-80629954D01*
X198078036Y-80670499D01*
X198078038Y-80670500D01*
X198078039Y-80670500D01*
X198221961Y-80670500D01*
X198307026Y-80645522D01*
X198341960Y-80640500D01*
X207258040Y-80640500D01*
X207292973Y-80645522D01*
X207335537Y-80658020D01*
X207378038Y-80670500D01*
X207378039Y-80670500D01*
X207521962Y-80670500D01*
X207521962Y-80670499D01*
X207607697Y-80645326D01*
X207660048Y-80629955D01*
X207660051Y-80629953D01*
X207660053Y-80629953D01*
X207660054Y-80629952D01*
X207668120Y-80626269D01*
X207668700Y-80627539D01*
X207726733Y-80610500D01*
X216473267Y-80610500D01*
X216531299Y-80627539D01*
X216531880Y-80626269D01*
X216539951Y-80629955D01*
X216678036Y-80670499D01*
X216678038Y-80670500D01*
X216678039Y-80670500D01*
X216821962Y-80670500D01*
X216821962Y-80670499D01*
X216939459Y-80636000D01*
X216960050Y-80629954D01*
X216960050Y-80629953D01*
X216960053Y-80629953D01*
X216990814Y-80610183D01*
X217057853Y-80590500D01*
X225742147Y-80590500D01*
X225809185Y-80610183D01*
X225839947Y-80629953D01*
X225839950Y-80629954D01*
X225839949Y-80629954D01*
X225978036Y-80670499D01*
X225978038Y-80670500D01*
X225978039Y-80670500D01*
X226121962Y-80670500D01*
X226121962Y-80670499D01*
X226239459Y-80636000D01*
X226260050Y-80629954D01*
X226260050Y-80629953D01*
X226260053Y-80629953D01*
X226290814Y-80610183D01*
X226357853Y-80590500D01*
X235042147Y-80590500D01*
X235109185Y-80610183D01*
X235139947Y-80629953D01*
X235139950Y-80629954D01*
X235139949Y-80629954D01*
X235278036Y-80670499D01*
X235278038Y-80670500D01*
X235278039Y-80670500D01*
X235421962Y-80670500D01*
X235421962Y-80670499D01*
X235474797Y-80654985D01*
X235568563Y-80627455D01*
X235568995Y-80628926D01*
X235607727Y-80620500D01*
X243740808Y-80620500D01*
X243740809Y-80620500D01*
X243831173Y-80596286D01*
X243855387Y-80589799D01*
X243958114Y-80530489D01*
X245388594Y-79100007D01*
X245441342Y-79068712D01*
X245457553Y-79063953D01*
X245457555Y-79063951D01*
X245457557Y-79063951D01*
X245578623Y-78986146D01*
X245578622Y-78986146D01*
X245578628Y-78986143D01*
X245672877Y-78877373D01*
X245732665Y-78746457D01*
X245753147Y-78604000D01*
X245732665Y-78461543D01*
X245672877Y-78330627D01*
X245578628Y-78221857D01*
X245457553Y-78144047D01*
X245457551Y-78144046D01*
X245457549Y-78144045D01*
X245457550Y-78144045D01*
X245319463Y-78103500D01*
X245319461Y-78103500D01*
X245175539Y-78103500D01*
X245175536Y-78103500D01*
X245037449Y-78144045D01*
X244916373Y-78221856D01*
X244822123Y-78330626D01*
X244822121Y-78330629D01*
X244779595Y-78423745D01*
X244754483Y-78459912D01*
X243531216Y-79683181D01*
X243469893Y-79716666D01*
X243443535Y-79719500D01*
X235607727Y-79719500D01*
X235568995Y-79711073D01*
X235568563Y-79712545D01*
X235421963Y-79669500D01*
X235421961Y-79669500D01*
X235278039Y-79669500D01*
X235278038Y-79669500D01*
X235267968Y-79672457D01*
X235227030Y-79684477D01*
X235192097Y-79689500D01*
X226207903Y-79689500D01*
X226172969Y-79684477D01*
X226132032Y-79672457D01*
X226121962Y-79669500D01*
X226121961Y-79669500D01*
X225978039Y-79669500D01*
X225978038Y-79669500D01*
X225967968Y-79672457D01*
X225927030Y-79684477D01*
X225892097Y-79689500D01*
X216907903Y-79689500D01*
X216872969Y-79684477D01*
X216832032Y-79672457D01*
X216821962Y-79669500D01*
X216821961Y-79669500D01*
X216678039Y-79669500D01*
X216678038Y-79669500D01*
X216631445Y-79683181D01*
X216558915Y-79704477D01*
X216523983Y-79709500D01*
X207676017Y-79709500D01*
X207641084Y-79704477D01*
X207568555Y-79683181D01*
X207521962Y-79669500D01*
X207521961Y-79669500D01*
X207378039Y-79669500D01*
X207378036Y-79669500D01*
X207239950Y-79710045D01*
X207239948Y-79710045D01*
X207224746Y-79719816D01*
X207157708Y-79739500D01*
X198442292Y-79739500D01*
X198375254Y-79719816D01*
X198360050Y-79710045D01*
X198221963Y-79669500D01*
X198221961Y-79669500D01*
X198078039Y-79669500D01*
X198078036Y-79669500D01*
X197939949Y-79710045D01*
X197818873Y-79787856D01*
X197724623Y-79896626D01*
X197724622Y-79896628D01*
X197664834Y-80027543D01*
X197644353Y-80170000D01*
X195410500Y-80170000D01*
X195410500Y-68200943D01*
X197651141Y-68200943D01*
X197651141Y-68359056D01*
X197692064Y-68511783D01*
X197692067Y-68511790D01*
X197771116Y-68648709D01*
X197771120Y-68648714D01*
X197771121Y-68648716D01*
X197882925Y-68760520D01*
X197882927Y-68760521D01*
X197882931Y-68760524D01*
X198019850Y-68839573D01*
X198019857Y-68839577D01*
X198172584Y-68880500D01*
X218314871Y-68880500D01*
X218314887Y-68880501D01*
X218322483Y-68880501D01*
X218488194Y-68880501D01*
X218488210Y-68880500D01*
X241350943Y-68880500D01*
X245938481Y-68880500D01*
X246005520Y-68900185D01*
X246026162Y-68916819D01*
X251807162Y-74697819D01*
X251840647Y-74759142D01*
X251835663Y-74828834D01*
X251793791Y-74884767D01*
X251728327Y-74909184D01*
X251719481Y-74909500D01*
X249681003Y-74909500D01*
X249572590Y-74931065D01*
X249572589Y-74931065D01*
X249559131Y-74933742D01*
X249545673Y-74936419D01*
X249545671Y-74936420D01*
X249492866Y-74958292D01*
X249492864Y-74958293D01*
X249492863Y-74958292D01*
X249418196Y-74989221D01*
X249418185Y-74989227D01*
X249401779Y-75000189D01*
X249393575Y-75005672D01*
X249303456Y-75065886D01*
X249303453Y-75065889D01*
X247475890Y-76893451D01*
X247475887Y-76893454D01*
X247431758Y-76959500D01*
X247415491Y-76983844D01*
X247399225Y-77008188D01*
X247399221Y-77008195D01*
X247346421Y-77135667D01*
X247346418Y-77135677D01*
X247319500Y-77271004D01*
X247319500Y-77271007D01*
X247319500Y-91661006D01*
X247319500Y-91798994D01*
X247319500Y-91798996D01*
X247319499Y-91798996D01*
X247346418Y-91934322D01*
X247346421Y-91934332D01*
X247399222Y-92061807D01*
X247475887Y-92176545D01*
X247475888Y-92176546D01*
X248890462Y-93591119D01*
X248923947Y-93652442D01*
X248918963Y-93722134D01*
X248877091Y-93778067D01*
X248811627Y-93802484D01*
X248770688Y-93798575D01*
X248735734Y-93789209D01*
X248712557Y-93782999D01*
X248554443Y-93782999D01*
X248546847Y-93782999D01*
X248546831Y-93783000D01*
X241307063Y-93783000D01*
X241274969Y-93778775D01*
X241271792Y-93777923D01*
X241271791Y-93777923D01*
X241119063Y-93736999D01*
X240960949Y-93736999D01*
X240808221Y-93777923D01*
X240808219Y-93777923D01*
X240805043Y-93778775D01*
X240772949Y-93783000D01*
X213488415Y-93783000D01*
X213426417Y-93766388D01*
X213411755Y-93757923D01*
X213411754Y-93757922D01*
X213411753Y-93757922D01*
X213355851Y-93742943D01*
X213259027Y-93716999D01*
X213100913Y-93716999D01*
X213093317Y-93716999D01*
X213093301Y-93717000D01*
X211726670Y-93717000D01*
X211726654Y-93716999D01*
X211719058Y-93716999D01*
X211560943Y-93716999D01*
X211553347Y-93716999D01*
X211553331Y-93717000D01*
X203959170Y-93717000D01*
X203959154Y-93716999D01*
X203951558Y-93716999D01*
X203793443Y-93716999D01*
X203725236Y-93735275D01*
X203693143Y-93739500D01*
X202386670Y-93739500D01*
X202386654Y-93739499D01*
X202379058Y-93739499D01*
X202220943Y-93739499D01*
X202152189Y-93757922D01*
X202068214Y-93780423D01*
X202068209Y-93780426D01*
X201931290Y-93859475D01*
X201931282Y-93859481D01*
X201619479Y-94171284D01*
X201613869Y-94181002D01*
X201594216Y-94215043D01*
X201540423Y-94308215D01*
X201499499Y-94460943D01*
X201499499Y-94460945D01*
X201499499Y-94629046D01*
X201499500Y-94629059D01*
X201499500Y-96506557D01*
X201537745Y-96649287D01*
X201540423Y-96659283D01*
X201540426Y-96659290D01*
X201619475Y-96796209D01*
X201619479Y-96796214D01*
X201619480Y-96796216D01*
X201731284Y-96908020D01*
X201731286Y-96908021D01*
X201731290Y-96908024D01*
X201868209Y-96987073D01*
X201868216Y-96987077D01*
X202020943Y-97028000D01*
X202020945Y-97028000D01*
X202179055Y-97028000D01*
X202179057Y-97028000D01*
X202331784Y-96987077D01*
X202468716Y-96908020D01*
X202580520Y-96796216D01*
X202659577Y-96659284D01*
X202700500Y-96506557D01*
X202700500Y-95064500D01*
X202720185Y-94997461D01*
X202772989Y-94951706D01*
X202824500Y-94940500D01*
X203763331Y-94940500D01*
X203763347Y-94940501D01*
X203770943Y-94940501D01*
X203929055Y-94940501D01*
X203929057Y-94940501D01*
X203987928Y-94924726D01*
X203997264Y-94922225D01*
X204029357Y-94918000D01*
X210655500Y-94918000D01*
X210722539Y-94937685D01*
X210768294Y-94990489D01*
X210779500Y-95042000D01*
X210779500Y-96506557D01*
X210817745Y-96649287D01*
X210820423Y-96659283D01*
X210820426Y-96659290D01*
X210899475Y-96796209D01*
X210899479Y-96796214D01*
X210899480Y-96796216D01*
X211011284Y-96908020D01*
X211011286Y-96908021D01*
X211011290Y-96908024D01*
X211148209Y-96987073D01*
X211148216Y-96987077D01*
X211300943Y-97028000D01*
X211300945Y-97028000D01*
X211459055Y-97028000D01*
X211459057Y-97028000D01*
X211611784Y-96987077D01*
X211748716Y-96908020D01*
X211860520Y-96796216D01*
X211939577Y-96659284D01*
X211980500Y-96506557D01*
X211980500Y-95042000D01*
X212000185Y-94974961D01*
X212052989Y-94929206D01*
X212104500Y-94918000D01*
X212937524Y-94918000D01*
X212999524Y-94934613D01*
X213014181Y-94943075D01*
X213014182Y-94943075D01*
X213014185Y-94943077D01*
X213166913Y-94984000D01*
X219965500Y-94984000D01*
X220032539Y-95003685D01*
X220078294Y-95056489D01*
X220089500Y-95108000D01*
X220089500Y-96506557D01*
X220127745Y-96649287D01*
X220130423Y-96659283D01*
X220130426Y-96659290D01*
X220209475Y-96796209D01*
X220209479Y-96796214D01*
X220209480Y-96796216D01*
X220321284Y-96908020D01*
X220321286Y-96908021D01*
X220321290Y-96908024D01*
X220458209Y-96987073D01*
X220458216Y-96987077D01*
X220610943Y-97028000D01*
X220610945Y-97028000D01*
X220769055Y-97028000D01*
X220769057Y-97028000D01*
X220921784Y-96987077D01*
X221058716Y-96908020D01*
X221170520Y-96796216D01*
X221249577Y-96659284D01*
X221290500Y-96506557D01*
X221290500Y-95143597D01*
X221310185Y-95076558D01*
X221326819Y-95055916D01*
X221362416Y-95020319D01*
X221423739Y-94986834D01*
X221450097Y-94984000D01*
X229265500Y-94984000D01*
X229332539Y-95003685D01*
X229378294Y-95056489D01*
X229389500Y-95108000D01*
X229389500Y-96294793D01*
X229385275Y-96326884D01*
X229379499Y-96348438D01*
X229379499Y-96506554D01*
X229379498Y-96506554D01*
X229379499Y-96506556D01*
X229379499Y-96506557D01*
X229420423Y-96659285D01*
X229499481Y-96796216D01*
X229611284Y-96908019D01*
X229748215Y-96987077D01*
X229900943Y-97028001D01*
X229900946Y-97028001D01*
X230059054Y-97028001D01*
X230059057Y-97028001D01*
X230211785Y-96987077D01*
X230348716Y-96908019D01*
X230350747Y-96905988D01*
X230358714Y-96898020D01*
X230358716Y-96898020D01*
X230470520Y-96786216D01*
X230527196Y-96688050D01*
X230549577Y-96649285D01*
X230590500Y-96496557D01*
X230590500Y-96338443D01*
X230590500Y-95108000D01*
X230610185Y-95040961D01*
X230662989Y-94995206D01*
X230714500Y-94984000D01*
X238555500Y-94984000D01*
X238622539Y-95003685D01*
X238668294Y-95056489D01*
X238679500Y-95108000D01*
X238679500Y-96253330D01*
X238679499Y-96253348D01*
X238679499Y-96419054D01*
X238679498Y-96419054D01*
X238684858Y-96439056D01*
X238720423Y-96571785D01*
X238731970Y-96591784D01*
X238795685Y-96702143D01*
X238799479Y-96708714D01*
X238799481Y-96708717D01*
X238829371Y-96738607D01*
X238862856Y-96799930D01*
X238857872Y-96869622D01*
X238816000Y-96925555D01*
X238750536Y-96949972D01*
X238741690Y-96950288D01*
X232994121Y-96950288D01*
X232927082Y-96930603D01*
X232906440Y-96913969D01*
X232269395Y-96276924D01*
X232235910Y-96215601D01*
X232234339Y-96171594D01*
X232235647Y-96162500D01*
X232215165Y-96020043D01*
X232155377Y-95889127D01*
X232061128Y-95780357D01*
X231940053Y-95702547D01*
X231940051Y-95702546D01*
X231940049Y-95702545D01*
X231940050Y-95702545D01*
X231801963Y-95662000D01*
X231801961Y-95662000D01*
X231658039Y-95662000D01*
X231658036Y-95662000D01*
X231519949Y-95702545D01*
X231398873Y-95780356D01*
X231304623Y-95889126D01*
X231304622Y-95889128D01*
X231244834Y-96020043D01*
X231224353Y-96162500D01*
X231244834Y-96304956D01*
X231296942Y-96419054D01*
X231304623Y-96435873D01*
X231398872Y-96544643D01*
X231519947Y-96622453D01*
X231519950Y-96622454D01*
X231519949Y-96622454D01*
X231611326Y-96649284D01*
X231655280Y-96662190D01*
X231658036Y-96662999D01*
X231658038Y-96663000D01*
X231754167Y-96663000D01*
X231821206Y-96682685D01*
X231841848Y-96699319D01*
X232633777Y-97491248D01*
X232702300Y-97530810D01*
X232778726Y-97551288D01*
X232857850Y-97551288D01*
X267941205Y-97551288D01*
X268008244Y-97570973D01*
X268034870Y-97594030D01*
X268035466Y-97594718D01*
X268064528Y-97658255D01*
X268054626Y-97727420D01*
X268035654Y-97757016D01*
X268035382Y-97757331D01*
X267976669Y-97795207D01*
X267941529Y-97800290D01*
X224506623Y-97800290D01*
X224439584Y-97780605D01*
X224418942Y-97763971D01*
X222973424Y-96318453D01*
X222939939Y-96257130D01*
X222938367Y-96213129D01*
X222945647Y-96162500D01*
X222925165Y-96020043D01*
X222865377Y-95889127D01*
X222771128Y-95780357D01*
X222650053Y-95702547D01*
X222650051Y-95702546D01*
X222650049Y-95702545D01*
X222650050Y-95702545D01*
X222511963Y-95662000D01*
X222511961Y-95662000D01*
X222368039Y-95662000D01*
X222368036Y-95662000D01*
X222229949Y-95702545D01*
X222108873Y-95780356D01*
X222014623Y-95889126D01*
X222014622Y-95889128D01*
X221954834Y-96020043D01*
X221934353Y-96162500D01*
X221954834Y-96304956D01*
X222006942Y-96419054D01*
X222014623Y-96435873D01*
X222108872Y-96544643D01*
X222229947Y-96622453D01*
X222229950Y-96622454D01*
X222229949Y-96622454D01*
X222321326Y-96649284D01*
X222365280Y-96662190D01*
X222368036Y-96662999D01*
X222368038Y-96663000D01*
X222368039Y-96663000D01*
X222416667Y-96663000D01*
X222483706Y-96682685D01*
X222504348Y-96699319D01*
X224090330Y-98285301D01*
X224146279Y-98341250D01*
X224146281Y-98341251D01*
X224146285Y-98341254D01*
X224203283Y-98374161D01*
X224214801Y-98380811D01*
X224291228Y-98401290D01*
X267941529Y-98401290D01*
X268008568Y-98420975D01*
X268035242Y-98444087D01*
X268068902Y-98482933D01*
X268070974Y-98484728D01*
X268072455Y-98487032D01*
X268074710Y-98489635D01*
X268074335Y-98489959D01*
X268108747Y-98543506D01*
X268108747Y-98613376D01*
X268070972Y-98672154D01*
X268056811Y-98682754D01*
X268048876Y-98687853D01*
X268048873Y-98687855D01*
X268015212Y-98726703D01*
X267956433Y-98764477D01*
X267921499Y-98769500D01*
X216213363Y-98769500D01*
X216146324Y-98749815D01*
X216125682Y-98733181D01*
X213669425Y-96276924D01*
X213635940Y-96215601D01*
X213634369Y-96171594D01*
X213635677Y-96162500D01*
X213615195Y-96020043D01*
X213555407Y-95889127D01*
X213461158Y-95780357D01*
X213340083Y-95702547D01*
X213340081Y-95702546D01*
X213340079Y-95702545D01*
X213340080Y-95702545D01*
X213201993Y-95662000D01*
X213201991Y-95662000D01*
X213058069Y-95662000D01*
X213058066Y-95662000D01*
X212919979Y-95702545D01*
X212798903Y-95780356D01*
X212704653Y-95889126D01*
X212704652Y-95889128D01*
X212644864Y-96020043D01*
X212624383Y-96162500D01*
X212644864Y-96304956D01*
X212696972Y-96419054D01*
X212704653Y-96435873D01*
X212798902Y-96544643D01*
X212919977Y-96622453D01*
X212919980Y-96622454D01*
X212919979Y-96622454D01*
X213011356Y-96649284D01*
X213055310Y-96662190D01*
X213058066Y-96662999D01*
X213058068Y-96663000D01*
X213154197Y-96663000D01*
X213221236Y-96682685D01*
X213241878Y-96699319D01*
X215797070Y-99254511D01*
X215853019Y-99310460D01*
X215853021Y-99310461D01*
X215853025Y-99310464D01*
X215910023Y-99343371D01*
X215921541Y-99350021D01*
X215997968Y-99370500D01*
X216077092Y-99370500D01*
X267921499Y-99370500D01*
X267988538Y-99390185D01*
X268015212Y-99413297D01*
X268048873Y-99452144D01*
X268049590Y-99452765D01*
X268050102Y-99453561D01*
X268054680Y-99458845D01*
X268053920Y-99459503D01*
X268087363Y-99511544D01*
X268087361Y-99581413D01*
X268049586Y-99640191D01*
X268035427Y-99650790D01*
X268008873Y-99667855D01*
X267975212Y-99706703D01*
X267916433Y-99744477D01*
X267881499Y-99749500D01*
X207913345Y-99749500D01*
X207846306Y-99729815D01*
X207825664Y-99713181D01*
X204389407Y-96276924D01*
X204355922Y-96215601D01*
X204354351Y-96171594D01*
X204355659Y-96162500D01*
X204335177Y-96020043D01*
X204275389Y-95889127D01*
X204181140Y-95780357D01*
X204060065Y-95702547D01*
X204060063Y-95702546D01*
X204060061Y-95702545D01*
X204060062Y-95702545D01*
X203921975Y-95662000D01*
X203921973Y-95662000D01*
X203778051Y-95662000D01*
X203778048Y-95662000D01*
X203639961Y-95702545D01*
X203518885Y-95780356D01*
X203424635Y-95889126D01*
X203424634Y-95889128D01*
X203364846Y-96020043D01*
X203344365Y-96162500D01*
X203364846Y-96304956D01*
X203416954Y-96419054D01*
X203424635Y-96435873D01*
X203518884Y-96544643D01*
X203639959Y-96622453D01*
X203639962Y-96622454D01*
X203639961Y-96622454D01*
X203731338Y-96649284D01*
X203775292Y-96662190D01*
X203778048Y-96662999D01*
X203778050Y-96663000D01*
X203874179Y-96663000D01*
X203941218Y-96682685D01*
X203961860Y-96699319D01*
X207497052Y-100234511D01*
X207553001Y-100290460D01*
X207553003Y-100290461D01*
X207553007Y-100290464D01*
X207610005Y-100323371D01*
X207621523Y-100330021D01*
X207697950Y-100350500D01*
X207777074Y-100350500D01*
X267881499Y-100350500D01*
X267948538Y-100370185D01*
X267975212Y-100393297D01*
X268008873Y-100432144D01*
X268008876Y-100432146D01*
X268115837Y-100500886D01*
X268161592Y-100553689D01*
X268171536Y-100622848D01*
X268142511Y-100686404D01*
X268083733Y-100724178D01*
X268060953Y-100728604D01*
X267999067Y-100734699D01*
X267801043Y-100794769D01*
X267713114Y-100841769D01*
X267618550Y-100892315D01*
X267618548Y-100892316D01*
X267618547Y-100892317D01*
X267458589Y-101023589D01*
X267327317Y-101183547D01*
X267229769Y-101366043D01*
X267169699Y-101564067D01*
X267149417Y-101770000D01*
X267169699Y-101975932D01*
X267169700Y-101975934D01*
X267229768Y-102173954D01*
X267327315Y-102356450D01*
X267327317Y-102356452D01*
X267458589Y-102516410D01*
X267555209Y-102595702D01*
X267618550Y-102647685D01*
X267801046Y-102745232D01*
X267867551Y-102765405D01*
X267925989Y-102803702D01*
X267954446Y-102867514D01*
X267943887Y-102936581D01*
X267897663Y-102988975D01*
X267863650Y-103003841D01*
X267741514Y-103036567D01*
X267741507Y-103036570D01*
X267527422Y-103136399D01*
X267527420Y-103136400D01*
X267333926Y-103271886D01*
X267333920Y-103271891D01*
X267166891Y-103438920D01*
X267166890Y-103438922D01*
X267036575Y-103625031D01*
X266981998Y-103668655D01*
X266912499Y-103675848D01*
X266850145Y-103644326D01*
X266833425Y-103625031D01*
X266703109Y-103438922D01*
X266703108Y-103438920D01*
X266536082Y-103271894D01*
X266342578Y-103136399D01*
X266128492Y-103036570D01*
X266128486Y-103036567D01*
X266006349Y-103003841D01*
X265946689Y-102967476D01*
X265916160Y-102904629D01*
X265924455Y-102835253D01*
X265968940Y-102781375D01*
X266002444Y-102765407D01*
X266068954Y-102745232D01*
X266251450Y-102647685D01*
X266411410Y-102516410D01*
X266542685Y-102356450D01*
X266640232Y-102173954D01*
X266700300Y-101975934D01*
X266720583Y-101770000D01*
X266700300Y-101564066D01*
X266640232Y-101366046D01*
X266542685Y-101183550D01*
X266490702Y-101120209D01*
X266411410Y-101023589D01*
X266251452Y-100892317D01*
X266251453Y-100892317D01*
X266251450Y-100892315D01*
X266068954Y-100794768D01*
X265870934Y-100734700D01*
X265870932Y-100734699D01*
X265870934Y-100734699D01*
X265665000Y-100714417D01*
X265459067Y-100734699D01*
X265261043Y-100794769D01*
X265173114Y-100841769D01*
X265078550Y-100892315D01*
X265078548Y-100892316D01*
X265078547Y-100892317D01*
X264918589Y-101023589D01*
X264787317Y-101183547D01*
X264689769Y-101366043D01*
X264629699Y-101564067D01*
X264609417Y-101770000D01*
X264629699Y-101975932D01*
X264629700Y-101975934D01*
X264689768Y-102173954D01*
X264787315Y-102356450D01*
X264787317Y-102356452D01*
X264918589Y-102516410D01*
X265015209Y-102595702D01*
X265078550Y-102647685D01*
X265261046Y-102745232D01*
X265327551Y-102765405D01*
X265385989Y-102803702D01*
X265414446Y-102867514D01*
X265403887Y-102936581D01*
X265357663Y-102988975D01*
X265323650Y-103003841D01*
X265201514Y-103036567D01*
X265201507Y-103036570D01*
X264987422Y-103136399D01*
X264987420Y-103136400D01*
X264793926Y-103271886D01*
X264793920Y-103271891D01*
X264626891Y-103438920D01*
X264626890Y-103438922D01*
X264496575Y-103625031D01*
X264441998Y-103668655D01*
X264372499Y-103675848D01*
X264310145Y-103644326D01*
X264293425Y-103625031D01*
X264163109Y-103438922D01*
X264163108Y-103438920D01*
X263996082Y-103271894D01*
X263802578Y-103136399D01*
X263588492Y-103036570D01*
X263588486Y-103036567D01*
X263466349Y-103003841D01*
X263406689Y-102967476D01*
X263376160Y-102904629D01*
X263384455Y-102835253D01*
X263428940Y-102781375D01*
X263462444Y-102765407D01*
X263528954Y-102745232D01*
X263711450Y-102647685D01*
X263871410Y-102516410D01*
X264002685Y-102356450D01*
X264100232Y-102173954D01*
X264160300Y-101975934D01*
X264180583Y-101770000D01*
X264160300Y-101564066D01*
X264100232Y-101366046D01*
X264002685Y-101183550D01*
X263950702Y-101120209D01*
X263871410Y-101023589D01*
X263711452Y-100892317D01*
X263711453Y-100892317D01*
X263711450Y-100892315D01*
X263528954Y-100794768D01*
X263330934Y-100734700D01*
X263330932Y-100734699D01*
X263330934Y-100734699D01*
X263125000Y-100714417D01*
X262919067Y-100734699D01*
X262721043Y-100794769D01*
X262633114Y-100841769D01*
X262538550Y-100892315D01*
X262538548Y-100892316D01*
X262538547Y-100892317D01*
X262378589Y-101023589D01*
X262247317Y-101183547D01*
X262149769Y-101366043D01*
X262089699Y-101564067D01*
X262069417Y-101770000D01*
X262089699Y-101975932D01*
X262089700Y-101975934D01*
X262149768Y-102173954D01*
X262247315Y-102356450D01*
X262247317Y-102356452D01*
X262378589Y-102516410D01*
X262475209Y-102595702D01*
X262538550Y-102647685D01*
X262721046Y-102745232D01*
X262787551Y-102765405D01*
X262845989Y-102803702D01*
X262874446Y-102867514D01*
X262863887Y-102936581D01*
X262817663Y-102988975D01*
X262783650Y-103003841D01*
X262661514Y-103036567D01*
X262661507Y-103036570D01*
X262447422Y-103136399D01*
X262447420Y-103136400D01*
X262253926Y-103271886D01*
X262253920Y-103271891D01*
X262086891Y-103438920D01*
X262086886Y-103438926D01*
X261951400Y-103632420D01*
X261951399Y-103632422D01*
X261851570Y-103846507D01*
X261851567Y-103846513D01*
X261794364Y-104059999D01*
X261794364Y-104060000D01*
X262691988Y-104060000D01*
X262659075Y-104117007D01*
X262625000Y-104244174D01*
X262625000Y-104375826D01*
X262659075Y-104502993D01*
X262691988Y-104560000D01*
X261794364Y-104560000D01*
X261851567Y-104773486D01*
X261851570Y-104773492D01*
X261951399Y-104987578D01*
X262086894Y-105181082D01*
X262253917Y-105348105D01*
X262447421Y-105483600D01*
X262661507Y-105583429D01*
X262661516Y-105583433D01*
X262875000Y-105640634D01*
X262875000Y-104743012D01*
X262932007Y-104775925D01*
X263059174Y-104810000D01*
X263190826Y-104810000D01*
X263317993Y-104775925D01*
X263375000Y-104743012D01*
X263375000Y-105640633D01*
X263588483Y-105583433D01*
X263588492Y-105583429D01*
X263802578Y-105483600D01*
X263996082Y-105348105D01*
X264163105Y-105181082D01*
X264293425Y-104994968D01*
X264348002Y-104951344D01*
X264417501Y-104944151D01*
X264479855Y-104975673D01*
X264496575Y-104994968D01*
X264626894Y-105181082D01*
X264793917Y-105348105D01*
X264987421Y-105483600D01*
X265201507Y-105583429D01*
X265201516Y-105583433D01*
X265415000Y-105640634D01*
X265415000Y-104743012D01*
X265472007Y-104775925D01*
X265599174Y-104810000D01*
X265730826Y-104810000D01*
X265857993Y-104775925D01*
X265915000Y-104743012D01*
X265915000Y-105640633D01*
X266128483Y-105583433D01*
X266128492Y-105583429D01*
X266342578Y-105483600D01*
X266536082Y-105348105D01*
X266703105Y-105181082D01*
X266833425Y-104994968D01*
X266888002Y-104951344D01*
X266957501Y-104944151D01*
X267019855Y-104975673D01*
X267036575Y-104994968D01*
X267166894Y-105181082D01*
X267333917Y-105348105D01*
X267527421Y-105483600D01*
X267741507Y-105583429D01*
X267741516Y-105583433D01*
X267955000Y-105640634D01*
X267955000Y-104743012D01*
X268012007Y-104775925D01*
X268139174Y-104810000D01*
X268270826Y-104810000D01*
X268397993Y-104775925D01*
X268455000Y-104743012D01*
X268455000Y-105640633D01*
X268668483Y-105583433D01*
X268668492Y-105583429D01*
X268882578Y-105483600D01*
X269076082Y-105348105D01*
X269243105Y-105181082D01*
X269373425Y-104994968D01*
X269428002Y-104951344D01*
X269497501Y-104944151D01*
X269559855Y-104975673D01*
X269576575Y-104994968D01*
X269706894Y-105181082D01*
X269873917Y-105348105D01*
X270067421Y-105483600D01*
X270281507Y-105583429D01*
X270281516Y-105583433D01*
X270495000Y-105640634D01*
X270495000Y-104743012D01*
X270552007Y-104775925D01*
X270679174Y-104810000D01*
X270810826Y-104810000D01*
X270937993Y-104775925D01*
X270995000Y-104743012D01*
X270995000Y-105640633D01*
X271208483Y-105583433D01*
X271208492Y-105583429D01*
X271422578Y-105483600D01*
X271616082Y-105348105D01*
X271783105Y-105181082D01*
X271918600Y-104987578D01*
X272018429Y-104773492D01*
X272018433Y-104773483D01*
X272051158Y-104651350D01*
X272087522Y-104591690D01*
X272150369Y-104561160D01*
X272219745Y-104569454D01*
X272273623Y-104613939D01*
X272289593Y-104647447D01*
X272309768Y-104713954D01*
X272407315Y-104896450D01*
X272407317Y-104896452D01*
X272538589Y-105056410D01*
X272623380Y-105125995D01*
X272698550Y-105187685D01*
X272881046Y-105285232D01*
X273079066Y-105345300D01*
X273079065Y-105345300D01*
X273097529Y-105347118D01*
X273285000Y-105365583D01*
X273490934Y-105345300D01*
X273688954Y-105285232D01*
X273871450Y-105187685D01*
X274031410Y-105056410D01*
X274162685Y-104896450D01*
X274260232Y-104713954D01*
X274320300Y-104515934D01*
X274340583Y-104310000D01*
X274320300Y-104104066D01*
X274260232Y-103906046D01*
X274162685Y-103723550D01*
X274081833Y-103625031D01*
X274031410Y-103563589D01*
X273913677Y-103466969D01*
X273871450Y-103432315D01*
X273688954Y-103334768D01*
X273490934Y-103274700D01*
X273490932Y-103274699D01*
X273490934Y-103274699D01*
X273285000Y-103254417D01*
X273079067Y-103274699D01*
X272881043Y-103334769D01*
X272770898Y-103393643D01*
X272698550Y-103432315D01*
X272698548Y-103432316D01*
X272698547Y-103432317D01*
X272538589Y-103563589D01*
X272407317Y-103723547D01*
X272407315Y-103723550D01*
X272406590Y-103724907D01*
X272309767Y-103906046D01*
X272289593Y-103972552D01*
X272251296Y-104030990D01*
X272187483Y-104059447D01*
X272118416Y-104048886D01*
X272066023Y-104002661D01*
X272051158Y-103968649D01*
X272018433Y-103846516D01*
X272018429Y-103846507D01*
X271918600Y-103632422D01*
X271918599Y-103632420D01*
X271783113Y-103438926D01*
X271783108Y-103438920D01*
X271616082Y-103271894D01*
X271422578Y-103136399D01*
X271208492Y-103036570D01*
X271208486Y-103036567D01*
X271086349Y-103003841D01*
X271026689Y-102967476D01*
X270996160Y-102904629D01*
X271004455Y-102835253D01*
X271048940Y-102781375D01*
X271082444Y-102765407D01*
X271148954Y-102745232D01*
X271331450Y-102647685D01*
X271491410Y-102516410D01*
X271622685Y-102356450D01*
X271720232Y-102173954D01*
X271780300Y-101975934D01*
X271800583Y-101770000D01*
X271780300Y-101564066D01*
X271720232Y-101366046D01*
X271622685Y-101183550D01*
X271570702Y-101120209D01*
X271491410Y-101023589D01*
X271331452Y-100892317D01*
X271331453Y-100892317D01*
X271331450Y-100892315D01*
X271148954Y-100794768D01*
X270950934Y-100734700D01*
X270950932Y-100734699D01*
X270950934Y-100734699D01*
X270745000Y-100714417D01*
X270539067Y-100734699D01*
X270341043Y-100794769D01*
X270253114Y-100841769D01*
X270158550Y-100892315D01*
X270158548Y-100892316D01*
X270158547Y-100892317D01*
X269998589Y-101023589D01*
X269867317Y-101183547D01*
X269769769Y-101366043D01*
X269709699Y-101564067D01*
X269689417Y-101770000D01*
X269709699Y-101975932D01*
X269709700Y-101975934D01*
X269769768Y-102173954D01*
X269867315Y-102356450D01*
X269867317Y-102356452D01*
X269998589Y-102516410D01*
X270095209Y-102595702D01*
X270158550Y-102647685D01*
X270341046Y-102745232D01*
X270407551Y-102765405D01*
X270465989Y-102803702D01*
X270494446Y-102867514D01*
X270483887Y-102936581D01*
X270437663Y-102988975D01*
X270403650Y-103003841D01*
X270281514Y-103036567D01*
X270281507Y-103036570D01*
X270067422Y-103136399D01*
X270067420Y-103136400D01*
X269873926Y-103271886D01*
X269873920Y-103271891D01*
X269706891Y-103438920D01*
X269706890Y-103438922D01*
X269576575Y-103625031D01*
X269521998Y-103668655D01*
X269452499Y-103675848D01*
X269390145Y-103644326D01*
X269373425Y-103625031D01*
X269243109Y-103438922D01*
X269243108Y-103438920D01*
X269076082Y-103271894D01*
X268882578Y-103136399D01*
X268668492Y-103036570D01*
X268668486Y-103036567D01*
X268546349Y-103003841D01*
X268486689Y-102967476D01*
X268456160Y-102904629D01*
X268464455Y-102835253D01*
X268508940Y-102781375D01*
X268542444Y-102765407D01*
X268608954Y-102745232D01*
X268791450Y-102647685D01*
X268951410Y-102516410D01*
X269082685Y-102356450D01*
X269180232Y-102173954D01*
X269240300Y-101975934D01*
X269260583Y-101770000D01*
X269240300Y-101564066D01*
X269180232Y-101366046D01*
X269082685Y-101183550D01*
X269030702Y-101120209D01*
X268951410Y-101023589D01*
X268791452Y-100892317D01*
X268791453Y-100892317D01*
X268791450Y-100892315D01*
X268608954Y-100794768D01*
X268500432Y-100761848D01*
X268441994Y-100723551D01*
X268413538Y-100659739D01*
X268424098Y-100590672D01*
X268470322Y-100538278D01*
X268501490Y-100524212D01*
X268550053Y-100509953D01*
X268671128Y-100432143D01*
X268765377Y-100323373D01*
X268825165Y-100192457D01*
X268845647Y-100050000D01*
X268825165Y-99907543D01*
X268765377Y-99776627D01*
X268671128Y-99667857D01*
X268671124Y-99667854D01*
X268670408Y-99667233D01*
X268669895Y-99666435D01*
X268665320Y-99661155D01*
X268666079Y-99660496D01*
X268632636Y-99608454D01*
X268632638Y-99538585D01*
X268670414Y-99479808D01*
X268684576Y-99469207D01*
X268711125Y-99452145D01*
X268711125Y-99452144D01*
X268711128Y-99452143D01*
X268805377Y-99343373D01*
X268865165Y-99212457D01*
X268885647Y-99070000D01*
X268865165Y-98927543D01*
X268805377Y-98796627D01*
X268711128Y-98687857D01*
X268711126Y-98687855D01*
X268711122Y-98687851D01*
X268709055Y-98686060D01*
X268707575Y-98683758D01*
X268705320Y-98681155D01*
X268705694Y-98680830D01*
X268671281Y-98627282D01*
X268671283Y-98557412D01*
X268709058Y-98498635D01*
X268723211Y-98488040D01*
X268731158Y-98482933D01*
X268825407Y-98374163D01*
X268885195Y-98243247D01*
X268905677Y-98100790D01*
X268885195Y-97958333D01*
X268825407Y-97827417D01*
X268825405Y-97827415D01*
X268825404Y-97827412D01*
X268764221Y-97756803D01*
X268735196Y-97693247D01*
X268745140Y-97624089D01*
X268764217Y-97594404D01*
X268825083Y-97524161D01*
X268884871Y-97393245D01*
X268905353Y-97250788D01*
X268884871Y-97108331D01*
X268825083Y-96977415D01*
X268730834Y-96868645D01*
X268730832Y-96868643D01*
X268725026Y-96861943D01*
X268726003Y-96861095D01*
X268693111Y-96809907D01*
X268693115Y-96740037D01*
X268718373Y-96693780D01*
X268805377Y-96593373D01*
X268865165Y-96462457D01*
X268885647Y-96320000D01*
X268865165Y-96177543D01*
X268805377Y-96046627D01*
X268711128Y-95937857D01*
X268590053Y-95860047D01*
X268590051Y-95860046D01*
X268590049Y-95860045D01*
X268590050Y-95860045D01*
X268451963Y-95819500D01*
X268451961Y-95819500D01*
X268308039Y-95819500D01*
X268308036Y-95819500D01*
X268169949Y-95860045D01*
X268048873Y-95937856D01*
X268048872Y-95937856D01*
X268048872Y-95937857D01*
X268006394Y-95986879D01*
X267971887Y-96026703D01*
X267913109Y-96064477D01*
X267878174Y-96069500D01*
X250894726Y-96069500D01*
X250827687Y-96049815D01*
X250781932Y-95997011D01*
X250771988Y-95927853D01*
X250801013Y-95864297D01*
X250847274Y-95830939D01*
X250871804Y-95820778D01*
X250871804Y-95820777D01*
X250871811Y-95820775D01*
X250986542Y-95744114D01*
X251084114Y-95646542D01*
X251160775Y-95531811D01*
X251213580Y-95404328D01*
X251240500Y-95268993D01*
X251240500Y-94181007D01*
X251240500Y-94181004D01*
X251240499Y-94181002D01*
X251232434Y-94140458D01*
X251213580Y-94045672D01*
X251204343Y-94023373D01*
X251200785Y-94014784D01*
X251160778Y-93918196D01*
X251160777Y-93918195D01*
X251160775Y-93918189D01*
X251084114Y-93803457D01*
X251084112Y-93803454D01*
X248756819Y-91476161D01*
X248723334Y-91414838D01*
X248720500Y-91388480D01*
X248720500Y-77681518D01*
X248740185Y-77614479D01*
X248756819Y-77593837D01*
X250003837Y-76346819D01*
X250065160Y-76313334D01*
X250091518Y-76310500D01*
X252978996Y-76310500D01*
X253070040Y-76292389D01*
X253114328Y-76283580D01*
X253234778Y-76233687D01*
X253304246Y-76226219D01*
X253366726Y-76257494D01*
X253369911Y-76260568D01*
X255163453Y-78054111D01*
X255163454Y-78054112D01*
X255278190Y-78130776D01*
X255376790Y-78171617D01*
X255405671Y-78183580D01*
X255405672Y-78183580D01*
X255405677Y-78183582D01*
X255432545Y-78188925D01*
X255432551Y-78188926D01*
X255432591Y-78188934D01*
X255522937Y-78206905D01*
X255541006Y-78210500D01*
X255541007Y-78210500D01*
X265204506Y-78210500D01*
X265270477Y-78229506D01*
X265280474Y-78235787D01*
X265280475Y-78235787D01*
X265280478Y-78235789D01*
X265450745Y-78295368D01*
X265450750Y-78295369D01*
X265629996Y-78315565D01*
X265630000Y-78315565D01*
X265630004Y-78315565D01*
X265809249Y-78295369D01*
X265809252Y-78295368D01*
X265809255Y-78295368D01*
X265979522Y-78235789D01*
X265980488Y-78235181D01*
X265989523Y-78229506D01*
X266055494Y-78210500D01*
X275568481Y-78210500D01*
X275635520Y-78230185D01*
X275656162Y-78246819D01*
X279433119Y-82023776D01*
X279466604Y-82085099D01*
X279469438Y-82111457D01*
X279469438Y-87773691D01*
X279449753Y-87840730D01*
X279396949Y-87886485D01*
X279327791Y-87896429D01*
X279264235Y-87867404D01*
X279257757Y-87861372D01*
X276456597Y-85060212D01*
X276423112Y-84998889D01*
X276428096Y-84929197D01*
X276465514Y-84879212D01*
X276464423Y-84877953D01*
X276471126Y-84872144D01*
X276471125Y-84872144D01*
X276471128Y-84872143D01*
X276504788Y-84833296D01*
X276563567Y-84795523D01*
X276598501Y-84790500D01*
X276649560Y-84790500D01*
X276649562Y-84790500D01*
X276725989Y-84770021D01*
X276794511Y-84730460D01*
X276850460Y-84674511D01*
X277420460Y-84104511D01*
X277460022Y-84035988D01*
X277480500Y-83959562D01*
X277480500Y-83880438D01*
X277480500Y-81010438D01*
X277460021Y-80934011D01*
X277456530Y-80927964D01*
X277420464Y-80865495D01*
X277420458Y-80865487D01*
X276099395Y-79544424D01*
X276065910Y-79483101D01*
X276064339Y-79439094D01*
X276065647Y-79430000D01*
X276045165Y-79287543D01*
X275985377Y-79156627D01*
X275891128Y-79047857D01*
X275770053Y-78970047D01*
X275770051Y-78970046D01*
X275770049Y-78970045D01*
X275770050Y-78970045D01*
X275631963Y-78929500D01*
X275631961Y-78929500D01*
X275488039Y-78929500D01*
X275488036Y-78929500D01*
X275349949Y-78970045D01*
X275228873Y-79047856D01*
X275134623Y-79156626D01*
X275134622Y-79156628D01*
X275074834Y-79287543D01*
X275054353Y-79430000D01*
X275074834Y-79572456D01*
X275125993Y-79684477D01*
X275134623Y-79703373D01*
X275228872Y-79812143D01*
X275349947Y-79889953D01*
X275349950Y-79889954D01*
X275349949Y-79889954D01*
X275425520Y-79912143D01*
X275485280Y-79929690D01*
X275488036Y-79930499D01*
X275488038Y-79930500D01*
X275584167Y-79930500D01*
X275651206Y-79950185D01*
X275671848Y-79966819D01*
X276843181Y-81138152D01*
X276876666Y-81199475D01*
X276879500Y-81225833D01*
X276879500Y-82824956D01*
X276859815Y-82891995D01*
X276807011Y-82937750D01*
X276737853Y-82947694D01*
X276674297Y-82918669D01*
X276642706Y-82876468D01*
X276624510Y-82836626D01*
X276615377Y-82816627D01*
X276615375Y-82816625D01*
X276615374Y-82816622D01*
X276520787Y-82707462D01*
X276491762Y-82643906D01*
X276490500Y-82626260D01*
X276490500Y-81790439D01*
X276470020Y-81714009D01*
X276470017Y-81714004D01*
X276430464Y-81645495D01*
X276430458Y-81645487D01*
X273844510Y-79059539D01*
X273824275Y-79047857D01*
X273818208Y-79044354D01*
X273775991Y-79019980D01*
X273775990Y-79019979D01*
X273750513Y-79013152D01*
X273699562Y-78999500D01*
X260100438Y-78999500D01*
X260062224Y-79009739D01*
X260024009Y-79019979D01*
X260024008Y-79019980D01*
X259981792Y-79044354D01*
X259975725Y-79047857D01*
X259955489Y-79059539D01*
X259955487Y-79059541D01*
X258664348Y-80350681D01*
X258603025Y-80384166D01*
X258576667Y-80387000D01*
X258158501Y-80387000D01*
X258091462Y-80367315D01*
X258064788Y-80344203D01*
X258031128Y-80305357D01*
X257910053Y-80227547D01*
X257910051Y-80227546D01*
X257910049Y-80227545D01*
X257910050Y-80227545D01*
X257771963Y-80187000D01*
X257771961Y-80187000D01*
X257663333Y-80187000D01*
X257596294Y-80167315D01*
X257575652Y-80150681D01*
X256714512Y-79289541D01*
X256714507Y-79289537D01*
X256711051Y-79287542D01*
X256711050Y-79287542D01*
X256645991Y-79249980D01*
X256645990Y-79249979D01*
X256620513Y-79243152D01*
X256569562Y-79229500D01*
X256569560Y-79229500D01*
X251188501Y-79229500D01*
X251121462Y-79209815D01*
X251094788Y-79186703D01*
X251061128Y-79147857D01*
X250940053Y-79070047D01*
X250940051Y-79070046D01*
X250940049Y-79070045D01*
X250940050Y-79070045D01*
X250801963Y-79029500D01*
X250801961Y-79029500D01*
X250658039Y-79029500D01*
X250658036Y-79029500D01*
X250519949Y-79070045D01*
X250398873Y-79147856D01*
X250304623Y-79256626D01*
X250304622Y-79256628D01*
X250244834Y-79387543D01*
X250224353Y-79530000D01*
X250244834Y-79672456D01*
X250297537Y-79787857D01*
X250304623Y-79803373D01*
X250398872Y-79912143D01*
X250519947Y-79989953D01*
X250519950Y-79989954D01*
X250519949Y-79989954D01*
X250586658Y-80009541D01*
X250647968Y-80027543D01*
X250658036Y-80030499D01*
X250658038Y-80030500D01*
X250658039Y-80030500D01*
X250801962Y-80030500D01*
X250801962Y-80030499D01*
X250940053Y-79989953D01*
X251061128Y-79912143D01*
X251094788Y-79873296D01*
X251153567Y-79835523D01*
X251188501Y-79830500D01*
X256354167Y-79830500D01*
X256421206Y-79850185D01*
X256441848Y-79866819D01*
X257159032Y-80584003D01*
X257192517Y-80645326D01*
X257193710Y-80678633D01*
X257194353Y-80678633D01*
X257194353Y-80687499D01*
X257214834Y-80829956D01*
X257274622Y-80960871D01*
X257274625Y-80960877D01*
X257364240Y-81064298D01*
X257393265Y-81127853D01*
X257383321Y-81197012D01*
X257337566Y-81249816D01*
X257270527Y-81269500D01*
X255068501Y-81269500D01*
X255001462Y-81249815D01*
X254974788Y-81226703D01*
X254974034Y-81225833D01*
X254941128Y-81187857D01*
X254820053Y-81110047D01*
X254820051Y-81110046D01*
X254820049Y-81110045D01*
X254820050Y-81110045D01*
X254681963Y-81069500D01*
X254681961Y-81069500D01*
X254538039Y-81069500D01*
X254538036Y-81069500D01*
X254399949Y-81110045D01*
X254278873Y-81187856D01*
X254184623Y-81296626D01*
X254184622Y-81296628D01*
X254124834Y-81427543D01*
X254104353Y-81570000D01*
X254124834Y-81712456D01*
X254162511Y-81794956D01*
X254184623Y-81843373D01*
X254278872Y-81952143D01*
X254399947Y-82029953D01*
X254399950Y-82029954D01*
X254399949Y-82029954D01*
X254538036Y-82070499D01*
X254538038Y-82070500D01*
X254538039Y-82070500D01*
X254681962Y-82070500D01*
X254681962Y-82070499D01*
X254820053Y-82029953D01*
X254941128Y-81952143D01*
X254974788Y-81913296D01*
X255033567Y-81875523D01*
X255068501Y-81870500D01*
X258546295Y-81870500D01*
X258613334Y-81890185D01*
X258633976Y-81906819D01*
X259082732Y-82355575D01*
X259116217Y-82416898D01*
X259117789Y-82460902D01*
X259116481Y-82469999D01*
X259136962Y-82612456D01*
X259189665Y-82727857D01*
X259196751Y-82743373D01*
X259291000Y-82852143D01*
X259412075Y-82929953D01*
X259412078Y-82929954D01*
X259412077Y-82929954D01*
X259519235Y-82961417D01*
X259540096Y-82967543D01*
X259550164Y-82970499D01*
X259550166Y-82970500D01*
X259550167Y-82970500D01*
X259694090Y-82970500D01*
X259694090Y-82970499D01*
X259832181Y-82929953D01*
X259953256Y-82852143D01*
X259986916Y-82813296D01*
X260045695Y-82775523D01*
X260080629Y-82770500D01*
X260369560Y-82770500D01*
X260369562Y-82770500D01*
X260445989Y-82750021D01*
X260514511Y-82710460D01*
X260570460Y-82654511D01*
X262638152Y-80586819D01*
X262699475Y-80553334D01*
X262725833Y-80550500D01*
X272944167Y-80550500D01*
X273011206Y-80570185D01*
X273031848Y-80586819D01*
X274845866Y-82400837D01*
X274879351Y-82462160D01*
X274874367Y-82531852D01*
X274832495Y-82587785D01*
X274767031Y-82612202D01*
X274723251Y-82607496D01*
X274701694Y-82601166D01*
X274661961Y-82589500D01*
X274518039Y-82589500D01*
X274518036Y-82589500D01*
X274379949Y-82630045D01*
X274258873Y-82707856D01*
X274164623Y-82816626D01*
X274164622Y-82816628D01*
X274104834Y-82947543D01*
X274084353Y-83090000D01*
X274104834Y-83232456D01*
X274153738Y-83339539D01*
X274164623Y-83363373D01*
X274258872Y-83472143D01*
X274258875Y-83472144D01*
X274259213Y-83472535D01*
X274288238Y-83536091D01*
X274289500Y-83553738D01*
X274289500Y-83664167D01*
X274269815Y-83731206D01*
X274253181Y-83751848D01*
X274121848Y-83883181D01*
X274060525Y-83916666D01*
X274034167Y-83919500D01*
X262720438Y-83919500D01*
X262682224Y-83929739D01*
X262644009Y-83939979D01*
X262644004Y-83939982D01*
X262575495Y-83979535D01*
X262575487Y-83979541D01*
X262141848Y-84413181D01*
X262080525Y-84446666D01*
X262054167Y-84449500D01*
X258140449Y-84449500D01*
X258073410Y-84429815D01*
X258046737Y-84406703D01*
X258031130Y-84388692D01*
X258031129Y-84388691D01*
X258031128Y-84388690D01*
X257910053Y-84310880D01*
X257910051Y-84310879D01*
X257910049Y-84310878D01*
X257910050Y-84310878D01*
X257771963Y-84270333D01*
X257771961Y-84270333D01*
X257675833Y-84270333D01*
X257608794Y-84250648D01*
X257588152Y-84234014D01*
X256693679Y-83339541D01*
X256693678Y-83339540D01*
X256674282Y-83328342D01*
X256674282Y-83328340D01*
X256674279Y-83328340D01*
X256625161Y-83299981D01*
X256625158Y-83299979D01*
X256586942Y-83289739D01*
X256548729Y-83279500D01*
X256548727Y-83279500D01*
X251198501Y-83279500D01*
X251131462Y-83259815D01*
X251104788Y-83236703D01*
X251101108Y-83232456D01*
X251071128Y-83197857D01*
X250950053Y-83120047D01*
X250950051Y-83120046D01*
X250950049Y-83120045D01*
X250950050Y-83120045D01*
X250811963Y-83079500D01*
X250811961Y-83079500D01*
X250668039Y-83079500D01*
X250668036Y-83079500D01*
X250529949Y-83120045D01*
X250408873Y-83197856D01*
X250314623Y-83306626D01*
X250314622Y-83306628D01*
X250254834Y-83437543D01*
X250234353Y-83580000D01*
X250254834Y-83722456D01*
X250288206Y-83795529D01*
X250314623Y-83853373D01*
X250408872Y-83962143D01*
X250529947Y-84039953D01*
X250529950Y-84039954D01*
X250529949Y-84039954D01*
X250668036Y-84080499D01*
X250668038Y-84080500D01*
X250668039Y-84080500D01*
X250811962Y-84080500D01*
X250811962Y-84080499D01*
X250950053Y-84039953D01*
X251071128Y-83962143D01*
X251104788Y-83923296D01*
X251163567Y-83885523D01*
X251198501Y-83880500D01*
X256333334Y-83880500D01*
X256400373Y-83900185D01*
X256421015Y-83916819D01*
X257160604Y-84656408D01*
X257194089Y-84717731D01*
X257195661Y-84761735D01*
X257194353Y-84770832D01*
X257214834Y-84913289D01*
X257274622Y-85044204D01*
X257274625Y-85044210D01*
X257326692Y-85104298D01*
X257355717Y-85167853D01*
X257345773Y-85237012D01*
X257300018Y-85289816D01*
X257232979Y-85309500D01*
X255078501Y-85309500D01*
X255011462Y-85289815D01*
X254984788Y-85266703D01*
X254951128Y-85227857D01*
X254830053Y-85150047D01*
X254830051Y-85150046D01*
X254830049Y-85150045D01*
X254830050Y-85150045D01*
X254691963Y-85109500D01*
X254691961Y-85109500D01*
X254548039Y-85109500D01*
X254548036Y-85109500D01*
X254409949Y-85150045D01*
X254288873Y-85227856D01*
X254194623Y-85336626D01*
X254194622Y-85336628D01*
X254134834Y-85467543D01*
X254114353Y-85610000D01*
X254134834Y-85752456D01*
X254156526Y-85799953D01*
X254194623Y-85883373D01*
X254288872Y-85992143D01*
X254409947Y-86069953D01*
X254409950Y-86069954D01*
X254409949Y-86069954D01*
X254548036Y-86110499D01*
X254548038Y-86110500D01*
X254548039Y-86110500D01*
X254691962Y-86110500D01*
X254691962Y-86110499D01*
X254830053Y-86069953D01*
X254951128Y-85992143D01*
X254984788Y-85953296D01*
X255043567Y-85915523D01*
X255078501Y-85910500D01*
X258209167Y-85910500D01*
X258276206Y-85930185D01*
X258296848Y-85946819D01*
X259060604Y-86710575D01*
X259094089Y-86771898D01*
X259095661Y-86815902D01*
X259094353Y-86824999D01*
X259114834Y-86967456D01*
X259174622Y-87098371D01*
X259174623Y-87098373D01*
X259268872Y-87207143D01*
X259389947Y-87284953D01*
X259389950Y-87284954D01*
X259389949Y-87284954D01*
X259528036Y-87325499D01*
X259528038Y-87325500D01*
X259528039Y-87325500D01*
X259671962Y-87325500D01*
X259671962Y-87325499D01*
X259779121Y-87294035D01*
X259810050Y-87284954D01*
X259810050Y-87284953D01*
X259810053Y-87284953D01*
X259931128Y-87207143D01*
X259943126Y-87193296D01*
X260001903Y-87155523D01*
X260036838Y-87150500D01*
X273584167Y-87150500D01*
X273651206Y-87170185D01*
X273671848Y-87186819D01*
X276065489Y-89580460D01*
X276076564Y-89586854D01*
X276113385Y-89608114D01*
X276161600Y-89658681D01*
X276174822Y-89727288D01*
X276148854Y-89792153D01*
X276091939Y-89832681D01*
X276051384Y-89839500D01*
X275925833Y-89839500D01*
X275858794Y-89819815D01*
X275838152Y-89803181D01*
X274974515Y-88939543D01*
X274974514Y-88939542D01*
X274974511Y-88939540D01*
X274965795Y-88934508D01*
X274932358Y-88915203D01*
X274905990Y-88899979D01*
X274880513Y-88893152D01*
X274829562Y-88879500D01*
X274829560Y-88879500D01*
X272998556Y-88879500D01*
X272931517Y-88859815D01*
X272885762Y-88807011D01*
X272875818Y-88737853D01*
X272904843Y-88674297D01*
X272963621Y-88636523D01*
X272963622Y-88636523D01*
X273020050Y-88619954D01*
X273020050Y-88619953D01*
X273020053Y-88619953D01*
X273141128Y-88542143D01*
X273235377Y-88433373D01*
X273295165Y-88302457D01*
X273315647Y-88160000D01*
X273295165Y-88017543D01*
X273235377Y-87886627D01*
X273141128Y-87777857D01*
X273020053Y-87700047D01*
X273020051Y-87700046D01*
X273020049Y-87700045D01*
X273020050Y-87700045D01*
X272881963Y-87659500D01*
X272881961Y-87659500D01*
X272738039Y-87659500D01*
X272738036Y-87659500D01*
X272599949Y-87700045D01*
X272478873Y-87777856D01*
X272384623Y-87886626D01*
X272384622Y-87886628D01*
X272324834Y-88017543D01*
X272308214Y-88133147D01*
X272279189Y-88196702D01*
X272220411Y-88234477D01*
X272185476Y-88239500D01*
X269598501Y-88239500D01*
X269531462Y-88219815D01*
X269504788Y-88196703D01*
X269499412Y-88190499D01*
X269471128Y-88157857D01*
X269350053Y-88080047D01*
X269350051Y-88080046D01*
X269350049Y-88080045D01*
X269350050Y-88080045D01*
X269211963Y-88039500D01*
X269211961Y-88039500D01*
X269068039Y-88039500D01*
X269068036Y-88039500D01*
X268929949Y-88080045D01*
X268808873Y-88157856D01*
X268714623Y-88266626D01*
X268714622Y-88266628D01*
X268654834Y-88397543D01*
X268634353Y-88540000D01*
X268654834Y-88682456D01*
X268664668Y-88703988D01*
X268674612Y-88773147D01*
X268645587Y-88836703D01*
X268586809Y-88874477D01*
X268551874Y-88879500D01*
X258316736Y-88879500D01*
X258249697Y-88859815D01*
X258203942Y-88807011D01*
X258193998Y-88773146D01*
X258185165Y-88711709D01*
X258165626Y-88668926D01*
X258125377Y-88580793D01*
X258031128Y-88472023D01*
X257910053Y-88394213D01*
X257910051Y-88394212D01*
X257910049Y-88394211D01*
X257910050Y-88394211D01*
X257771963Y-88353666D01*
X257771961Y-88353666D01*
X257675833Y-88353666D01*
X257608794Y-88333981D01*
X257588152Y-88317347D01*
X256720346Y-87449541D01*
X256720338Y-87449535D01*
X256651829Y-87409982D01*
X256651824Y-87409979D01*
X256626347Y-87403152D01*
X256575396Y-87389500D01*
X256575394Y-87389500D01*
X251168501Y-87389500D01*
X251101462Y-87369815D01*
X251074788Y-87346703D01*
X251041128Y-87307857D01*
X250920053Y-87230047D01*
X250920051Y-87230046D01*
X250920049Y-87230045D01*
X250920050Y-87230045D01*
X250781963Y-87189500D01*
X250781961Y-87189500D01*
X250638039Y-87189500D01*
X250638036Y-87189500D01*
X250499949Y-87230045D01*
X250378873Y-87307856D01*
X250284623Y-87416626D01*
X250284622Y-87416628D01*
X250224834Y-87547543D01*
X250204353Y-87690000D01*
X250224834Y-87832456D01*
X250249509Y-87886485D01*
X250284623Y-87963373D01*
X250378872Y-88072143D01*
X250499947Y-88149953D01*
X250499950Y-88149954D01*
X250499949Y-88149954D01*
X250638036Y-88190499D01*
X250638038Y-88190500D01*
X250638039Y-88190500D01*
X250781962Y-88190500D01*
X250781962Y-88190499D01*
X250920053Y-88149953D01*
X251041128Y-88072143D01*
X251074788Y-88033296D01*
X251133567Y-87995523D01*
X251168501Y-87990500D01*
X256360001Y-87990500D01*
X256427040Y-88010185D01*
X256447682Y-88026819D01*
X257160604Y-88739741D01*
X257194089Y-88801064D01*
X257195661Y-88845068D01*
X257194353Y-88854165D01*
X257214834Y-88996622D01*
X257274622Y-89127537D01*
X257274623Y-89127539D01*
X257323804Y-89184297D01*
X257352829Y-89247853D01*
X257342885Y-89317012D01*
X257297130Y-89369816D01*
X257230091Y-89389500D01*
X255008501Y-89389500D01*
X254941462Y-89369815D01*
X254914788Y-89346703D01*
X254908980Y-89340000D01*
X254881128Y-89307857D01*
X254760053Y-89230047D01*
X254760051Y-89230046D01*
X254760049Y-89230045D01*
X254760050Y-89230045D01*
X254621963Y-89189500D01*
X254621961Y-89189500D01*
X254478039Y-89189500D01*
X254478036Y-89189500D01*
X254339949Y-89230045D01*
X254218873Y-89307856D01*
X254124623Y-89416626D01*
X254124622Y-89416628D01*
X254064834Y-89547543D01*
X254044353Y-89690000D01*
X254064834Y-89832456D01*
X254109001Y-89929166D01*
X254124623Y-89963373D01*
X254218872Y-90072143D01*
X254339947Y-90149953D01*
X254339950Y-90149954D01*
X254339949Y-90149954D01*
X254478036Y-90190499D01*
X254478038Y-90190500D01*
X254478039Y-90190500D01*
X254621962Y-90190500D01*
X254621962Y-90190499D01*
X254760053Y-90149953D01*
X254881128Y-90072143D01*
X254914788Y-90033296D01*
X254973567Y-89995523D01*
X255008501Y-89990500D01*
X258044167Y-89990500D01*
X258111206Y-90010185D01*
X258131848Y-90026819D01*
X259060899Y-90955870D01*
X259094384Y-91017193D01*
X259095956Y-91061197D01*
X259094331Y-91072499D01*
X259114812Y-91214956D01*
X259161245Y-91316628D01*
X259174601Y-91345873D01*
X259268850Y-91454643D01*
X259389925Y-91532453D01*
X259389928Y-91532454D01*
X259389927Y-91532454D01*
X259472919Y-91556822D01*
X259525258Y-91572190D01*
X259528014Y-91572999D01*
X259528016Y-91573000D01*
X259624145Y-91573000D01*
X259691184Y-91592685D01*
X259711826Y-91609319D01*
X260917189Y-92814682D01*
X260973138Y-92870631D01*
X260973140Y-92870632D01*
X260973144Y-92870635D01*
X260996990Y-92884402D01*
X261041660Y-92910192D01*
X261118087Y-92930671D01*
X261118089Y-92930671D01*
X273849995Y-92930671D01*
X273917034Y-92950356D01*
X273962789Y-93003160D01*
X273972733Y-93072318D01*
X273943708Y-93135874D01*
X273937676Y-93142352D01*
X273516848Y-93563181D01*
X273455525Y-93596666D01*
X273429167Y-93599500D01*
X258838325Y-93599500D01*
X258771286Y-93579815D01*
X258750644Y-93563181D01*
X258239391Y-93051928D01*
X258205906Y-92990605D01*
X258204335Y-92946598D01*
X258205643Y-92937504D01*
X258185161Y-92795047D01*
X258125373Y-92664131D01*
X258031124Y-92555361D01*
X257910049Y-92477551D01*
X257910047Y-92477550D01*
X257910045Y-92477549D01*
X257910046Y-92477549D01*
X257771959Y-92437004D01*
X257771957Y-92437004D01*
X257675829Y-92437004D01*
X257608790Y-92417319D01*
X257588148Y-92400685D01*
X256657002Y-91469539D01*
X256644973Y-91462594D01*
X256632943Y-91455649D01*
X256605566Y-91439843D01*
X256588483Y-91429980D01*
X256588482Y-91429979D01*
X256563005Y-91423152D01*
X256512054Y-91409500D01*
X256512052Y-91409500D01*
X251168501Y-91409500D01*
X251101462Y-91389815D01*
X251074788Y-91366703D01*
X251041128Y-91327857D01*
X250920053Y-91250047D01*
X250920051Y-91250046D01*
X250920049Y-91250045D01*
X250920050Y-91250045D01*
X250781963Y-91209500D01*
X250781961Y-91209500D01*
X250638039Y-91209500D01*
X250638036Y-91209500D01*
X250499949Y-91250045D01*
X250378873Y-91327856D01*
X250378872Y-91327856D01*
X250378872Y-91327857D01*
X250377175Y-91329816D01*
X250284623Y-91436626D01*
X250284622Y-91436628D01*
X250224834Y-91567543D01*
X250204353Y-91710000D01*
X250224834Y-91852456D01*
X250262226Y-91934332D01*
X250284623Y-91983373D01*
X250378872Y-92092143D01*
X250499947Y-92169953D01*
X250499950Y-92169954D01*
X250499949Y-92169954D01*
X250638036Y-92210499D01*
X250638038Y-92210500D01*
X250638039Y-92210500D01*
X250781962Y-92210500D01*
X250781962Y-92210499D01*
X250897599Y-92176546D01*
X250920050Y-92169954D01*
X250920050Y-92169953D01*
X250920053Y-92169953D01*
X251041128Y-92092143D01*
X251074788Y-92053296D01*
X251133567Y-92015523D01*
X251168501Y-92010500D01*
X256296659Y-92010500D01*
X256363698Y-92030185D01*
X256384340Y-92046819D01*
X257160600Y-92823079D01*
X257194085Y-92884402D01*
X257195657Y-92928406D01*
X257194349Y-92937503D01*
X257214830Y-93079960D01*
X257240366Y-93135874D01*
X257274619Y-93210877D01*
X257368868Y-93319647D01*
X257489943Y-93397457D01*
X257489946Y-93397458D01*
X257489945Y-93397458D01*
X257597103Y-93428921D01*
X257625276Y-93437194D01*
X257628032Y-93438003D01*
X257628034Y-93438004D01*
X257724163Y-93438004D01*
X257791202Y-93457689D01*
X257811844Y-93474323D01*
X258422032Y-94084511D01*
X258477981Y-94140460D01*
X258477983Y-94140461D01*
X258477987Y-94140464D01*
X258531370Y-94171284D01*
X258546503Y-94180021D01*
X258622930Y-94200500D01*
X258622932Y-94200500D01*
X273644560Y-94200500D01*
X273644562Y-94200500D01*
X273720989Y-94180021D01*
X273789511Y-94140460D01*
X273845460Y-94084511D01*
X275630460Y-92299511D01*
X275658123Y-92251595D01*
X275708690Y-92203380D01*
X275777297Y-92190156D01*
X275842162Y-92216124D01*
X275882691Y-92273037D01*
X275889511Y-92313595D01*
X275889511Y-93844156D01*
X275869826Y-93911195D01*
X275853192Y-93931837D01*
X274901848Y-94883181D01*
X274840525Y-94916666D01*
X274814167Y-94919500D01*
X259938966Y-94919500D01*
X259871928Y-94899816D01*
X259810042Y-94860045D01*
X259671955Y-94819500D01*
X259671953Y-94819500D01*
X259528031Y-94819500D01*
X259528028Y-94819500D01*
X259389941Y-94860045D01*
X259268865Y-94937856D01*
X259235204Y-94976703D01*
X259176425Y-95014477D01*
X259141491Y-95019500D01*
X256305833Y-95019500D01*
X256238794Y-94999815D01*
X256218152Y-94983181D01*
X255099395Y-93864424D01*
X255065910Y-93803101D01*
X255064339Y-93759094D01*
X255065647Y-93750000D01*
X255045165Y-93607543D01*
X254985377Y-93476627D01*
X254891128Y-93367857D01*
X254770053Y-93290047D01*
X254770051Y-93290046D01*
X254770049Y-93290045D01*
X254770050Y-93290045D01*
X254631963Y-93249500D01*
X254631961Y-93249500D01*
X254488039Y-93249500D01*
X254488036Y-93249500D01*
X254349949Y-93290045D01*
X254228873Y-93367856D01*
X254134623Y-93476626D01*
X254134622Y-93476628D01*
X254074834Y-93607543D01*
X254054353Y-93750000D01*
X254074834Y-93892456D01*
X254134622Y-94023372D01*
X254134623Y-94023373D01*
X254228872Y-94132143D01*
X254349947Y-94209953D01*
X254349950Y-94209954D01*
X254349949Y-94209954D01*
X254457107Y-94241417D01*
X254485280Y-94249690D01*
X254488036Y-94250499D01*
X254488038Y-94250500D01*
X254584167Y-94250500D01*
X254651206Y-94270185D01*
X254671848Y-94286819D01*
X255889540Y-95504511D01*
X255945489Y-95560460D01*
X255945491Y-95560461D01*
X255945495Y-95560464D01*
X256002496Y-95593373D01*
X256014011Y-95600021D01*
X256090438Y-95620500D01*
X259141491Y-95620500D01*
X259208530Y-95640185D01*
X259235203Y-95663296D01*
X259268864Y-95702143D01*
X259389939Y-95779953D01*
X259389942Y-95779954D01*
X259389941Y-95779954D01*
X259459923Y-95800502D01*
X259524625Y-95819500D01*
X259528028Y-95820499D01*
X259528030Y-95820500D01*
X259528031Y-95820500D01*
X259671954Y-95820500D01*
X259671954Y-95820499D01*
X259808669Y-95780357D01*
X259810042Y-95779954D01*
X259810042Y-95779953D01*
X259810045Y-95779953D01*
X259931120Y-95702143D01*
X260025369Y-95593373D01*
X260025545Y-95592986D01*
X260025823Y-95592665D01*
X260030163Y-95585913D01*
X260031134Y-95586537D01*
X260071301Y-95540184D01*
X260138339Y-95520500D01*
X275029560Y-95520500D01*
X275029562Y-95520500D01*
X275105989Y-95500021D01*
X275174511Y-95460460D01*
X275230460Y-95404511D01*
X276430471Y-94204500D01*
X276435931Y-94195043D01*
X276470032Y-94135978D01*
X276490511Y-94059551D01*
X276490511Y-92053716D01*
X276510196Y-91986677D01*
X276520798Y-91972513D01*
X276521135Y-91972122D01*
X276521139Y-91972121D01*
X276615388Y-91863351D01*
X276675176Y-91732435D01*
X276695658Y-91589978D01*
X276675176Y-91447521D01*
X276615388Y-91316605D01*
X276579945Y-91275701D01*
X276550921Y-91212147D01*
X276560865Y-91142989D01*
X276606619Y-91090185D01*
X276673659Y-91070500D01*
X276934167Y-91070500D01*
X277001206Y-91090185D01*
X277021848Y-91106819D01*
X277953181Y-92038152D01*
X277986666Y-92099475D01*
X277989500Y-92125833D01*
X277989500Y-96614167D01*
X277969815Y-96681206D01*
X277953181Y-96701848D01*
X273971848Y-100683181D01*
X273910525Y-100716666D01*
X273884167Y-100719500D01*
X272415247Y-100719500D01*
X272356770Y-100731131D01*
X272356769Y-100731132D01*
X272290447Y-100775447D01*
X272246132Y-100841769D01*
X272246131Y-100841770D01*
X272234500Y-100900247D01*
X272234500Y-102639752D01*
X272246131Y-102698229D01*
X272246132Y-102698230D01*
X272290447Y-102764552D01*
X272356769Y-102808867D01*
X272356770Y-102808868D01*
X272415247Y-102820499D01*
X272415250Y-102820500D01*
X272415252Y-102820500D01*
X274154750Y-102820500D01*
X274154751Y-102820499D01*
X274169568Y-102817552D01*
X274213229Y-102808868D01*
X274213229Y-102808867D01*
X274213231Y-102808867D01*
X274279552Y-102764552D01*
X274323867Y-102698231D01*
X274323867Y-102698229D01*
X274323868Y-102698229D01*
X274335499Y-102639752D01*
X274335500Y-102639750D01*
X274335500Y-101220833D01*
X274355185Y-101153794D01*
X274371819Y-101133152D01*
X276434971Y-99070000D01*
X278530460Y-96974511D01*
X278570022Y-96905988D01*
X278590500Y-96829562D01*
X278590500Y-96750438D01*
X278590500Y-91910438D01*
X278570021Y-91834011D01*
X278546030Y-91792457D01*
X278530464Y-91765495D01*
X278530458Y-91765487D01*
X277617152Y-90852181D01*
X277583667Y-90790858D01*
X277588651Y-90721166D01*
X277630523Y-90665233D01*
X277695987Y-90640816D01*
X277704833Y-90640500D01*
X277711962Y-90640500D01*
X277711962Y-90640499D01*
X277850053Y-90599953D01*
X277971128Y-90522143D01*
X278065377Y-90413373D01*
X278125165Y-90282457D01*
X278145647Y-90140000D01*
X278125165Y-89997543D01*
X278065377Y-89866627D01*
X278065375Y-89866625D01*
X278065374Y-89866622D01*
X278026017Y-89821203D01*
X277996991Y-89757648D01*
X278006934Y-89688489D01*
X278026017Y-89658797D01*
X278065374Y-89613377D01*
X278065374Y-89613375D01*
X278065377Y-89613373D01*
X278125165Y-89482457D01*
X278145647Y-89340000D01*
X278125165Y-89197543D01*
X278065377Y-89066627D01*
X277971128Y-88957857D01*
X277850053Y-88880047D01*
X277850051Y-88880046D01*
X277850049Y-88880045D01*
X277850050Y-88880045D01*
X277711963Y-88839500D01*
X277711961Y-88839500D01*
X277568039Y-88839500D01*
X277568036Y-88839500D01*
X277429949Y-88880045D01*
X277308873Y-88957856D01*
X277275212Y-88996703D01*
X277216433Y-89034477D01*
X277181499Y-89039500D01*
X276425833Y-89039500D01*
X276358794Y-89019815D01*
X276338152Y-89003181D01*
X273944510Y-86609539D01*
X273939588Y-86606698D01*
X273939585Y-86606696D01*
X273875991Y-86569980D01*
X273875990Y-86569979D01*
X273850513Y-86563152D01*
X273799562Y-86549500D01*
X273799560Y-86549500D01*
X260080163Y-86549500D01*
X260013124Y-86529815D01*
X259986450Y-86506703D01*
X259968387Y-86485857D01*
X259931128Y-86442857D01*
X259810053Y-86365047D01*
X259810051Y-86365046D01*
X259810049Y-86365045D01*
X259810050Y-86365045D01*
X259671963Y-86324500D01*
X259671961Y-86324500D01*
X259575833Y-86324500D01*
X259508794Y-86304815D01*
X259488152Y-86288181D01*
X258569512Y-85369541D01*
X258569504Y-85369535D01*
X258500995Y-85329982D01*
X258500990Y-85329979D01*
X258475513Y-85323152D01*
X258424562Y-85309500D01*
X258424560Y-85309500D01*
X258167021Y-85309500D01*
X258099982Y-85289815D01*
X258054227Y-85237011D01*
X258044283Y-85167853D01*
X258073306Y-85104300D01*
X258082837Y-85093300D01*
X258141614Y-85055524D01*
X258176552Y-85050500D01*
X262269560Y-85050500D01*
X262269562Y-85050500D01*
X262345989Y-85030021D01*
X262414511Y-84990460D01*
X262470460Y-84934511D01*
X262848152Y-84556819D01*
X262909475Y-84523334D01*
X262935833Y-84520500D01*
X274249560Y-84520500D01*
X274249562Y-84520500D01*
X274325989Y-84500021D01*
X274394511Y-84460460D01*
X274450460Y-84404511D01*
X274830460Y-84024511D01*
X274870021Y-83955989D01*
X274890500Y-83879562D01*
X274890500Y-83591026D01*
X274910185Y-83523987D01*
X274962989Y-83478232D01*
X275032147Y-83468288D01*
X275081538Y-83486709D01*
X275179947Y-83549953D01*
X275179950Y-83549954D01*
X275179949Y-83549954D01*
X275318036Y-83590499D01*
X275318038Y-83590500D01*
X275318039Y-83590500D01*
X275461962Y-83590500D01*
X275461962Y-83590499D01*
X275569121Y-83559035D01*
X275600050Y-83549954D01*
X275600051Y-83549954D01*
X275600053Y-83549953D01*
X275721128Y-83472143D01*
X275721129Y-83472141D01*
X275722960Y-83470965D01*
X275790000Y-83451280D01*
X275857039Y-83470964D01*
X275857040Y-83470965D01*
X275858870Y-83472141D01*
X275858872Y-83472143D01*
X275901906Y-83499799D01*
X275979948Y-83549954D01*
X276118036Y-83590499D01*
X276118038Y-83590500D01*
X276118039Y-83590500D01*
X276261962Y-83590500D01*
X276261962Y-83590499D01*
X276369121Y-83559035D01*
X276400050Y-83549954D01*
X276400050Y-83549953D01*
X276400053Y-83549953D01*
X276521128Y-83472143D01*
X276615377Y-83363373D01*
X276626262Y-83339539D01*
X276642706Y-83303532D01*
X276688461Y-83250728D01*
X276755500Y-83231043D01*
X276822539Y-83250728D01*
X276868294Y-83303532D01*
X276879500Y-83355043D01*
X276879500Y-83744166D01*
X276859815Y-83811205D01*
X276843181Y-83831847D01*
X276600254Y-84074774D01*
X276538931Y-84108259D01*
X276469239Y-84103275D01*
X276445534Y-84091409D01*
X276350053Y-84030047D01*
X276350051Y-84030046D01*
X276350049Y-84030045D01*
X276350050Y-84030045D01*
X276211963Y-83989500D01*
X276211961Y-83989500D01*
X276068039Y-83989500D01*
X276068036Y-83989500D01*
X275929949Y-84030045D01*
X275808873Y-84107856D01*
X275714623Y-84216626D01*
X275714622Y-84216628D01*
X275654834Y-84347543D01*
X275634353Y-84490000D01*
X275654834Y-84632456D01*
X275714904Y-84763988D01*
X275724848Y-84833147D01*
X275695823Y-84896702D01*
X275637045Y-84934477D01*
X275602110Y-84939500D01*
X269478974Y-84939500D01*
X269411936Y-84919816D01*
X269350050Y-84880045D01*
X269211963Y-84839500D01*
X269211961Y-84839500D01*
X269068039Y-84839500D01*
X269068036Y-84839500D01*
X268929949Y-84880045D01*
X268808873Y-84957856D01*
X268714623Y-85066626D01*
X268714622Y-85066628D01*
X268654834Y-85197543D01*
X268634353Y-85340000D01*
X268654834Y-85482456D01*
X268714622Y-85613371D01*
X268714623Y-85613373D01*
X268808872Y-85722143D01*
X268929947Y-85799953D01*
X268929950Y-85799954D01*
X268929949Y-85799954D01*
X269068036Y-85840499D01*
X269068038Y-85840500D01*
X269068039Y-85840500D01*
X269211962Y-85840500D01*
X269211962Y-85840499D01*
X269350050Y-85799954D01*
X269350051Y-85799954D01*
X269411936Y-85760184D01*
X269478974Y-85740500D01*
X275952737Y-85740500D01*
X276019776Y-85760185D01*
X276040418Y-85776819D01*
X278943867Y-88680268D01*
X278977352Y-88741591D01*
X278979290Y-88774922D01*
X278979500Y-88774922D01*
X278979500Y-88778540D01*
X278979590Y-88780089D01*
X278979500Y-88781003D01*
X278979500Y-88781014D01*
X278979500Y-88919002D01*
X278979500Y-88919004D01*
X278979499Y-88919004D01*
X279006418Y-89054330D01*
X279006421Y-89054340D01*
X279059222Y-89181815D01*
X279135887Y-89296553D01*
X279233454Y-89394120D01*
X279348192Y-89470785D01*
X279450921Y-89513336D01*
X279475672Y-89523588D01*
X279475676Y-89523588D01*
X279475677Y-89523589D01*
X279611003Y-89550508D01*
X279611006Y-89550508D01*
X279748996Y-89550508D01*
X279840040Y-89532397D01*
X279884328Y-89523588D01*
X279948069Y-89497185D01*
X280011807Y-89470785D01*
X280011808Y-89470784D01*
X280011811Y-89470783D01*
X280126543Y-89394122D01*
X280714052Y-88806613D01*
X280790713Y-88691881D01*
X280791512Y-88689954D01*
X280820506Y-88619953D01*
X280843518Y-88564398D01*
X280858192Y-88490627D01*
X280870438Y-88429066D01*
X280870438Y-81700942D01*
X280843519Y-81565615D01*
X280843518Y-81565614D01*
X280843518Y-81565610D01*
X280843516Y-81565605D01*
X280790715Y-81438131D01*
X280790714Y-81438129D01*
X280790713Y-81438127D01*
X280780598Y-81422989D01*
X280714052Y-81323395D01*
X280714051Y-81323394D01*
X280714050Y-81323392D01*
X276356545Y-76965887D01*
X276241807Y-76889222D01*
X276114332Y-76836421D01*
X276114322Y-76836418D01*
X275978996Y-76809500D01*
X275978994Y-76809500D01*
X275978993Y-76809500D01*
X266472619Y-76809500D01*
X266405580Y-76789815D01*
X266359825Y-76737011D01*
X266349881Y-76667853D01*
X266378906Y-76604297D01*
X266429286Y-76569318D01*
X266472086Y-76553354D01*
X266472093Y-76553350D01*
X266587187Y-76467190D01*
X266587190Y-76467187D01*
X266673350Y-76352093D01*
X266673354Y-76352086D01*
X266723596Y-76217379D01*
X266723598Y-76217372D01*
X266729999Y-76157844D01*
X266730000Y-76157827D01*
X266730000Y-75760000D01*
X265796988Y-75760000D01*
X265814205Y-75750060D01*
X265870060Y-75694205D01*
X265909556Y-75625796D01*
X265930000Y-75549496D01*
X265930000Y-75470504D01*
X265909556Y-75394204D01*
X265870060Y-75325795D01*
X265814205Y-75269940D01*
X265796988Y-75260000D01*
X265880000Y-75260000D01*
X266730000Y-75260000D01*
X266730000Y-74862172D01*
X266729999Y-74862155D01*
X266723598Y-74802627D01*
X266723596Y-74802620D01*
X266673354Y-74667913D01*
X266673350Y-74667906D01*
X266587190Y-74552812D01*
X266587187Y-74552809D01*
X266472093Y-74466649D01*
X266472086Y-74466645D01*
X266337379Y-74416403D01*
X266337372Y-74416401D01*
X266277844Y-74410000D01*
X265880000Y-74410000D01*
X265880000Y-75260000D01*
X265796988Y-75260000D01*
X265745796Y-75230444D01*
X265669496Y-75210000D01*
X265590504Y-75210000D01*
X265514204Y-75230444D01*
X265445795Y-75269940D01*
X265389940Y-75325795D01*
X265350444Y-75394204D01*
X265330000Y-75470504D01*
X265330000Y-75549496D01*
X265350444Y-75625796D01*
X265389940Y-75694205D01*
X265445795Y-75750060D01*
X265463012Y-75760000D01*
X264530000Y-75760000D01*
X264530000Y-76157844D01*
X264536401Y-76217372D01*
X264536403Y-76217379D01*
X264586645Y-76352086D01*
X264586649Y-76352093D01*
X264672809Y-76467187D01*
X264672812Y-76467190D01*
X264787906Y-76553350D01*
X264787913Y-76553354D01*
X264830714Y-76569318D01*
X264886648Y-76611189D01*
X264911065Y-76676654D01*
X264896213Y-76744927D01*
X264846808Y-76794332D01*
X264787381Y-76809500D01*
X255951519Y-76809500D01*
X255884480Y-76789815D01*
X255863838Y-76773181D01*
X252437208Y-73346551D01*
X259747742Y-73346551D01*
X259747743Y-73346552D01*
X261325208Y-73346552D01*
X261312271Y-73377784D01*
X261283449Y-73522682D01*
X261283449Y-73670420D01*
X261312271Y-73815318D01*
X261325208Y-73846550D01*
X259747742Y-73846550D01*
X259762965Y-73930440D01*
X259842025Y-74141096D01*
X259842029Y-74141105D01*
X259957425Y-74334244D01*
X259957431Y-74334252D01*
X260043511Y-74435041D01*
X260043522Y-74435052D01*
X261194947Y-75586475D01*
X261194961Y-75586488D01*
X261295751Y-75672571D01*
X261488894Y-75787970D01*
X261488903Y-75787974D01*
X261699559Y-75867034D01*
X261783449Y-75882257D01*
X261783450Y-75882257D01*
X261783450Y-74304792D01*
X261814682Y-74317729D01*
X261959580Y-74346551D01*
X262107318Y-74346551D01*
X262252216Y-74317729D01*
X262283448Y-74304792D01*
X262283448Y-75882257D01*
X262367335Y-75867034D01*
X262367341Y-75867033D01*
X262577994Y-75787974D01*
X262578003Y-75787970D01*
X262771142Y-75672574D01*
X262771150Y-75672568D01*
X262871939Y-75586488D01*
X262871950Y-75586477D01*
X263596271Y-74862155D01*
X264530000Y-74862155D01*
X264530000Y-75260000D01*
X265380000Y-75260000D01*
X265380000Y-74410000D01*
X264982155Y-74410000D01*
X264922627Y-74416401D01*
X264922620Y-74416403D01*
X264787913Y-74466645D01*
X264787906Y-74466649D01*
X264672812Y-74552809D01*
X264672809Y-74552812D01*
X264586649Y-74667906D01*
X264586645Y-74667913D01*
X264536403Y-74802620D01*
X264536401Y-74802627D01*
X264530000Y-74862155D01*
X263596271Y-74862155D01*
X264023373Y-74435052D01*
X264023386Y-74435038D01*
X264109469Y-74334248D01*
X264109469Y-74334247D01*
X264224868Y-74141105D01*
X264224872Y-74141096D01*
X264303932Y-73930440D01*
X264319155Y-73846549D01*
X262741691Y-73846549D01*
X262754627Y-73815318D01*
X262783449Y-73670420D01*
X262783449Y-73522682D01*
X262754627Y-73377784D01*
X262741690Y-73346551D01*
X264319155Y-73346551D01*
X264319155Y-73346550D01*
X264303932Y-73262664D01*
X264303931Y-73262658D01*
X264224872Y-73052005D01*
X264224868Y-73051996D01*
X264109472Y-72858857D01*
X264109466Y-72858849D01*
X264023386Y-72758060D01*
X264023375Y-72758049D01*
X262871950Y-71606626D01*
X262871936Y-71606613D01*
X262771146Y-71520530D01*
X262578003Y-71405131D01*
X262577994Y-71405127D01*
X262367339Y-71326067D01*
X262367340Y-71326067D01*
X262283447Y-71310842D01*
X262283447Y-72888309D01*
X262252216Y-72875373D01*
X262107318Y-72846551D01*
X261959580Y-72846551D01*
X261814682Y-72875373D01*
X261783449Y-72888310D01*
X261783449Y-71310843D01*
X261783448Y-71310843D01*
X261699559Y-71326067D01*
X261488903Y-71405127D01*
X261488894Y-71405131D01*
X261295755Y-71520527D01*
X261295747Y-71520533D01*
X261194958Y-71606613D01*
X261194947Y-71606624D01*
X260043524Y-72758049D01*
X260043511Y-72758063D01*
X259957428Y-72858853D01*
X259957428Y-72858854D01*
X259842029Y-73051996D01*
X259842025Y-73052005D01*
X259762965Y-73262661D01*
X259747742Y-73346551D01*
X252437208Y-73346551D01*
X247116819Y-68026162D01*
X247083334Y-67964839D01*
X247080500Y-67938481D01*
X247080500Y-67541519D01*
X247100185Y-67474480D01*
X247116819Y-67453838D01*
X248333838Y-66236819D01*
X248395161Y-66203334D01*
X248421519Y-66200500D01*
X249299750Y-66200500D01*
X249299751Y-66200499D01*
X249314568Y-66197552D01*
X249358229Y-66188868D01*
X249358229Y-66188867D01*
X249358231Y-66188867D01*
X249424552Y-66144552D01*
X249468867Y-66078231D01*
X249468867Y-66078229D01*
X249468868Y-66078229D01*
X249480499Y-66019752D01*
X249480500Y-66019750D01*
X249480500Y-65150000D01*
X249914417Y-65150000D01*
X249934699Y-65355932D01*
X249934700Y-65355934D01*
X249994768Y-65553954D01*
X250092315Y-65736450D01*
X250092317Y-65736452D01*
X250223589Y-65896410D01*
X250313315Y-65970045D01*
X250383550Y-66027685D01*
X250566046Y-66125232D01*
X250764066Y-66185300D01*
X250764065Y-66185300D01*
X250782529Y-66187118D01*
X250970000Y-66205583D01*
X251175934Y-66185300D01*
X251373954Y-66125232D01*
X251556450Y-66027685D01*
X251716410Y-65896410D01*
X251716885Y-65895830D01*
X251717212Y-65895608D01*
X251720713Y-65892107D01*
X251721377Y-65892771D01*
X251774632Y-65856499D01*
X251812735Y-65850500D01*
X253245379Y-65850500D01*
X253312418Y-65870185D01*
X253333060Y-65886819D01*
X253602071Y-66155830D01*
X253635556Y-66217153D01*
X253630572Y-66286845D01*
X253609491Y-66323083D01*
X253541832Y-66403945D01*
X253541825Y-66403956D01*
X253448014Y-66572972D01*
X253448007Y-66572987D01*
X253390139Y-66757424D01*
X253370583Y-66949747D01*
X253390139Y-67142069D01*
X253448007Y-67326506D01*
X253448010Y-67326513D01*
X253448011Y-67326515D01*
X253541825Y-67495538D01*
X253614891Y-67582864D01*
X254753528Y-68721501D01*
X254840854Y-68794567D01*
X255009877Y-68888381D01*
X255009881Y-68888382D01*
X255009885Y-68888384D01*
X255194322Y-68946252D01*
X255226825Y-68949557D01*
X255386645Y-68965809D01*
X255561215Y-68948057D01*
X255578967Y-68946252D01*
X255763404Y-68888384D01*
X255763405Y-68888383D01*
X255763413Y-68888381D01*
X255932436Y-68794567D01*
X256019762Y-68721501D01*
X257158399Y-67582864D01*
X257231465Y-67495538D01*
X257325279Y-67326515D01*
X257325282Y-67326506D01*
X257383150Y-67142069D01*
X257394541Y-67030047D01*
X257402707Y-66949747D01*
X257383150Y-66757426D01*
X257383150Y-66757424D01*
X257325282Y-66572987D01*
X257325280Y-66572983D01*
X257325279Y-66572979D01*
X257245920Y-66430000D01*
X272734349Y-66430000D01*
X272754830Y-66572456D01*
X272755066Y-66572972D01*
X272814619Y-66703373D01*
X272908868Y-66812143D01*
X273029943Y-66889953D01*
X273029946Y-66889954D01*
X273029945Y-66889954D01*
X273137103Y-66921417D01*
X273165276Y-66929690D01*
X273168032Y-66930499D01*
X273168034Y-66930500D01*
X273264163Y-66930500D01*
X273331202Y-66950185D01*
X273351844Y-66966819D01*
X274059536Y-67674511D01*
X274115485Y-67730460D01*
X274115487Y-67730461D01*
X274115491Y-67730464D01*
X274172489Y-67763371D01*
X274184007Y-67770021D01*
X274260434Y-67790500D01*
X274339558Y-67790500D01*
X280121499Y-67790500D01*
X280188538Y-67810185D01*
X280215211Y-67833296D01*
X280248872Y-67872143D01*
X280369947Y-67949953D01*
X280369950Y-67949954D01*
X280369949Y-67949954D01*
X280477107Y-67981417D01*
X280505801Y-67989843D01*
X280508036Y-67990499D01*
X280508038Y-67990500D01*
X280508039Y-67990500D01*
X280651962Y-67990500D01*
X280651962Y-67990499D01*
X280790053Y-67949953D01*
X280911128Y-67872143D01*
X281005377Y-67763373D01*
X281065165Y-67632457D01*
X281085647Y-67490000D01*
X281065165Y-67347543D01*
X281005377Y-67216627D01*
X280911128Y-67107857D01*
X280790053Y-67030047D01*
X280790051Y-67030046D01*
X280790049Y-67030045D01*
X280790050Y-67030045D01*
X280651963Y-66989500D01*
X280651961Y-66989500D01*
X280508039Y-66989500D01*
X280508036Y-66989500D01*
X280369949Y-67030045D01*
X280248873Y-67107856D01*
X280248872Y-67107856D01*
X280248872Y-67107857D01*
X280228813Y-67131007D01*
X280215212Y-67146703D01*
X280156433Y-67184477D01*
X280121499Y-67189500D01*
X274475829Y-67189500D01*
X274408790Y-67169815D01*
X274388148Y-67153181D01*
X273779391Y-66544424D01*
X273745906Y-66483101D01*
X273744335Y-66439094D01*
X273745643Y-66430000D01*
X273725161Y-66287543D01*
X273665373Y-66156627D01*
X273571124Y-66047857D01*
X273450049Y-65970047D01*
X273450047Y-65970046D01*
X273450045Y-65970045D01*
X273450046Y-65970045D01*
X273311959Y-65929500D01*
X273311957Y-65929500D01*
X273168035Y-65929500D01*
X273168032Y-65929500D01*
X273029945Y-65970045D01*
X272908869Y-66047856D01*
X272814619Y-66156626D01*
X272814618Y-66156628D01*
X272754830Y-66287543D01*
X272734349Y-66430000D01*
X257245920Y-66430000D01*
X257231465Y-66403956D01*
X257158399Y-66316630D01*
X256121769Y-65280000D01*
X270104353Y-65280000D01*
X270124834Y-65422456D01*
X270127118Y-65427457D01*
X270184623Y-65553373D01*
X270278872Y-65662143D01*
X270399947Y-65739953D01*
X270399950Y-65739954D01*
X270399949Y-65739954D01*
X270538036Y-65780499D01*
X270538038Y-65780500D01*
X270538039Y-65780500D01*
X270681962Y-65780500D01*
X270681962Y-65780499D01*
X270803021Y-65744954D01*
X270820050Y-65739954D01*
X270820050Y-65739953D01*
X270820053Y-65739953D01*
X270941128Y-65662143D01*
X270974788Y-65623296D01*
X271033567Y-65585523D01*
X271068501Y-65580500D01*
X278657167Y-65580500D01*
X278724206Y-65600185D01*
X278750878Y-65623295D01*
X278788872Y-65667143D01*
X278909947Y-65744953D01*
X278909950Y-65744954D01*
X278909949Y-65744954D01*
X279017107Y-65776417D01*
X279031010Y-65780500D01*
X279048036Y-65785499D01*
X279048038Y-65785500D01*
X279048039Y-65785500D01*
X279191962Y-65785500D01*
X279191962Y-65785499D01*
X279330053Y-65744953D01*
X279451128Y-65667143D01*
X279545377Y-65558373D01*
X279605165Y-65427457D01*
X279625647Y-65285000D01*
X279605165Y-65142543D01*
X279545377Y-65011627D01*
X279451128Y-64902857D01*
X279330053Y-64825047D01*
X279330051Y-64825046D01*
X279330049Y-64825045D01*
X279330050Y-64825045D01*
X279191963Y-64784500D01*
X279191961Y-64784500D01*
X279048039Y-64784500D01*
X279048036Y-64784500D01*
X278909949Y-64825045D01*
X278788873Y-64902856D01*
X278759545Y-64936703D01*
X278700767Y-64974477D01*
X278665832Y-64979500D01*
X271068501Y-64979500D01*
X271001462Y-64959815D01*
X270974788Y-64936703D01*
X270972173Y-64933685D01*
X270941128Y-64897857D01*
X270820053Y-64820047D01*
X270820051Y-64820046D01*
X270820049Y-64820045D01*
X270820050Y-64820045D01*
X270681963Y-64779500D01*
X270681961Y-64779500D01*
X270538039Y-64779500D01*
X270538036Y-64779500D01*
X270399949Y-64820045D01*
X270278873Y-64897856D01*
X270184623Y-65006626D01*
X270184622Y-65006628D01*
X270124834Y-65137543D01*
X270104353Y-65280000D01*
X256121769Y-65280000D01*
X256019762Y-65177993D01*
X255950537Y-65120073D01*
X255932440Y-65104930D01*
X255932438Y-65104929D01*
X255932436Y-65104927D01*
X255764341Y-65011628D01*
X255763419Y-65011116D01*
X255763404Y-65011109D01*
X255578967Y-64953241D01*
X255386645Y-64933685D01*
X255194322Y-64953241D01*
X255009885Y-65011109D01*
X255009870Y-65011116D01*
X254840854Y-65104927D01*
X254840843Y-65104934D01*
X254759981Y-65172593D01*
X254695934Y-65200516D01*
X254626957Y-65189380D01*
X254592728Y-65165173D01*
X254033444Y-64605888D01*
X254033443Y-64605887D01*
X253918705Y-64529222D01*
X253791230Y-64476421D01*
X253791220Y-64476418D01*
X253655894Y-64449500D01*
X253655892Y-64449500D01*
X253655891Y-64449500D01*
X251812735Y-64449500D01*
X251745696Y-64429815D01*
X251720880Y-64407725D01*
X251720713Y-64407893D01*
X251717834Y-64405014D01*
X251716885Y-64404169D01*
X251716408Y-64403588D01*
X251636430Y-64337952D01*
X251556450Y-64272315D01*
X251373954Y-64174768D01*
X251175934Y-64114700D01*
X251175932Y-64114699D01*
X251175934Y-64114699D01*
X250970000Y-64094417D01*
X250764067Y-64114699D01*
X250566043Y-64174769D01*
X250478114Y-64221769D01*
X250383550Y-64272315D01*
X250383548Y-64272316D01*
X250383547Y-64272317D01*
X250223589Y-64403589D01*
X250092317Y-64563547D01*
X249994769Y-64746043D01*
X249934699Y-64944067D01*
X249914417Y-65150000D01*
X249480500Y-65150000D01*
X249480500Y-64280249D01*
X249480499Y-64280247D01*
X249468868Y-64221770D01*
X249468867Y-64221769D01*
X249424552Y-64155447D01*
X249358230Y-64111132D01*
X249358229Y-64111131D01*
X249299752Y-64099500D01*
X249299748Y-64099500D01*
X247560252Y-64099500D01*
X247560247Y-64099500D01*
X247501770Y-64111131D01*
X247501769Y-64111132D01*
X247435447Y-64155447D01*
X247391132Y-64221769D01*
X247391131Y-64221770D01*
X247379500Y-64280247D01*
X247379500Y-65158480D01*
X247359815Y-65225519D01*
X247343181Y-65246161D01*
X245835888Y-66753453D01*
X245835887Y-66753454D01*
X245759222Y-66868192D01*
X245706421Y-66995667D01*
X245706418Y-66995679D01*
X245699582Y-67030047D01*
X245684802Y-67104354D01*
X245684105Y-67107857D01*
X245679500Y-67131006D01*
X245679500Y-67555500D01*
X245659815Y-67622539D01*
X245607011Y-67668294D01*
X245555500Y-67679500D01*
X218701638Y-67679500D01*
X218634599Y-67659815D01*
X218613957Y-67643181D01*
X213306819Y-62336043D01*
X213273334Y-62274720D01*
X213270500Y-62248362D01*
X213270500Y-58850000D01*
X213524353Y-58850000D01*
X213544834Y-58992456D01*
X213583693Y-59077543D01*
X213604623Y-59123373D01*
X213698872Y-59232143D01*
X213819947Y-59309953D01*
X213819950Y-59309954D01*
X213819949Y-59309954D01*
X213922279Y-59340000D01*
X213955280Y-59349690D01*
X213958036Y-59350499D01*
X213958038Y-59350500D01*
X214054167Y-59350500D01*
X214121206Y-59370185D01*
X214141848Y-59386819D01*
X217249540Y-62494511D01*
X217305489Y-62550460D01*
X217305491Y-62550461D01*
X217305495Y-62550464D01*
X217361093Y-62582563D01*
X217374011Y-62590021D01*
X217450438Y-62610500D01*
X217529562Y-62610500D01*
X267230438Y-62610500D01*
X267270068Y-62610500D01*
X267305003Y-62615523D01*
X267373038Y-62635500D01*
X267373039Y-62635500D01*
X267516962Y-62635500D01*
X267516962Y-62635499D01*
X267655053Y-62594953D01*
X267776128Y-62517143D01*
X267870377Y-62408373D01*
X267930165Y-62277457D01*
X267950647Y-62135000D01*
X267930165Y-61992543D01*
X267870377Y-61861627D01*
X267776128Y-61752857D01*
X267771682Y-61750000D01*
X271344293Y-61750000D01*
X271344294Y-61750001D01*
X272921759Y-61750001D01*
X272908822Y-61781233D01*
X272880000Y-61926131D01*
X272880000Y-62073869D01*
X272908822Y-62218767D01*
X272921759Y-62249999D01*
X271344293Y-62249999D01*
X271359516Y-62333889D01*
X271438576Y-62544545D01*
X271438580Y-62544554D01*
X271553976Y-62737693D01*
X271553982Y-62737701D01*
X271640062Y-62838490D01*
X271640073Y-62838501D01*
X272791498Y-63989924D01*
X272791512Y-63989937D01*
X272892302Y-64076020D01*
X273085445Y-64191419D01*
X273085454Y-64191423D01*
X273296110Y-64270483D01*
X273517494Y-64310659D01*
X273742505Y-64310659D01*
X273963889Y-64270483D01*
X274174545Y-64191423D01*
X274174554Y-64191419D01*
X274367693Y-64076023D01*
X274367701Y-64076017D01*
X274468490Y-63989937D01*
X274468501Y-63989926D01*
X275619924Y-62838501D01*
X275619937Y-62838487D01*
X275706020Y-62737697D01*
X275706020Y-62737696D01*
X275821419Y-62544554D01*
X275821423Y-62544545D01*
X275900483Y-62333889D01*
X275915706Y-62249998D01*
X274338241Y-62249998D01*
X274351178Y-62218767D01*
X274380000Y-62073869D01*
X274380000Y-61926131D01*
X274351178Y-61781233D01*
X274338241Y-61750000D01*
X275915706Y-61750000D01*
X275915706Y-61749999D01*
X275900483Y-61666113D01*
X275900482Y-61666107D01*
X275821423Y-61455454D01*
X275821419Y-61455445D01*
X275706023Y-61262306D01*
X275706017Y-61262298D01*
X275619937Y-61161509D01*
X275619926Y-61161498D01*
X274468501Y-60010075D01*
X274468487Y-60010062D01*
X274367697Y-59923979D01*
X274174554Y-59808580D01*
X274174545Y-59808576D01*
X273963890Y-59729516D01*
X273963891Y-59729516D01*
X273879998Y-59714291D01*
X273879998Y-61291758D01*
X273848767Y-61278822D01*
X273703869Y-61250000D01*
X273556131Y-61250000D01*
X273411233Y-61278822D01*
X273380000Y-61291759D01*
X273380000Y-59714292D01*
X273379999Y-59714292D01*
X273296110Y-59729516D01*
X273085454Y-59808576D01*
X273085445Y-59808580D01*
X272892306Y-59923976D01*
X272892298Y-59923982D01*
X272791509Y-60010062D01*
X272791498Y-60010073D01*
X271640075Y-61161498D01*
X271640062Y-61161512D01*
X271553979Y-61262302D01*
X271553979Y-61262303D01*
X271438580Y-61455445D01*
X271438576Y-61455454D01*
X271359516Y-61666110D01*
X271344293Y-61750000D01*
X267771682Y-61750000D01*
X267655053Y-61675047D01*
X267655051Y-61675046D01*
X267655049Y-61675045D01*
X267655050Y-61675045D01*
X267516963Y-61634500D01*
X267516961Y-61634500D01*
X267373039Y-61634500D01*
X267373036Y-61634500D01*
X267234949Y-61675045D01*
X267113873Y-61752856D01*
X267019623Y-61861626D01*
X267019622Y-61861628D01*
X266985195Y-61937012D01*
X266939440Y-61989816D01*
X266872401Y-62009500D01*
X217665833Y-62009500D01*
X217598794Y-61989815D01*
X217578152Y-61973181D01*
X214569395Y-58964424D01*
X214535910Y-58903101D01*
X214534339Y-58859094D01*
X214535647Y-58850000D01*
X214515165Y-58707543D01*
X214455377Y-58576627D01*
X214361128Y-58467857D01*
X214240053Y-58390047D01*
X214240051Y-58390046D01*
X214240049Y-58390045D01*
X214240050Y-58390045D01*
X214101963Y-58349500D01*
X214101961Y-58349500D01*
X213958039Y-58349500D01*
X213958036Y-58349500D01*
X213819949Y-58390045D01*
X213698873Y-58467856D01*
X213604623Y-58576626D01*
X213604622Y-58576628D01*
X213544834Y-58707543D01*
X213524353Y-58850000D01*
X213270500Y-58850000D01*
X213270500Y-54350000D01*
X213554353Y-54350000D01*
X213574834Y-54492456D01*
X213634622Y-54623371D01*
X213634623Y-54623373D01*
X213728872Y-54732143D01*
X213849947Y-54809953D01*
X213849950Y-54809954D01*
X213849949Y-54809954D01*
X213952119Y-54839953D01*
X213985280Y-54849690D01*
X213988036Y-54850499D01*
X213988038Y-54850500D01*
X214084167Y-54850500D01*
X214151206Y-54870185D01*
X214171848Y-54886819D01*
X220399540Y-61114511D01*
X220455489Y-61170460D01*
X220455491Y-61170461D01*
X220455495Y-61170464D01*
X220524004Y-61210017D01*
X220524011Y-61210021D01*
X220600438Y-61230500D01*
X267424170Y-61230500D01*
X267491209Y-61250185D01*
X267517884Y-61273299D01*
X267568869Y-61332141D01*
X267568871Y-61332142D01*
X267568872Y-61332143D01*
X267689947Y-61409953D01*
X267689950Y-61409954D01*
X267689949Y-61409954D01*
X267828036Y-61450499D01*
X267828038Y-61450500D01*
X267828039Y-61450500D01*
X267971962Y-61450500D01*
X267971962Y-61450499D01*
X268110053Y-61409953D01*
X268231128Y-61332143D01*
X268325377Y-61223373D01*
X268385165Y-61092457D01*
X268405647Y-60950000D01*
X268385165Y-60807543D01*
X268325377Y-60676627D01*
X268231128Y-60567857D01*
X268110053Y-60490047D01*
X268110051Y-60490046D01*
X268110049Y-60490045D01*
X268110050Y-60490045D01*
X267971963Y-60449500D01*
X267971961Y-60449500D01*
X267828039Y-60449500D01*
X267828036Y-60449500D01*
X267689949Y-60490045D01*
X267568872Y-60567856D01*
X267552541Y-60586704D01*
X267493762Y-60624478D01*
X267458829Y-60629500D01*
X220815833Y-60629500D01*
X220748794Y-60609815D01*
X220728152Y-60593181D01*
X214599395Y-54464424D01*
X214565910Y-54403101D01*
X214564339Y-54359094D01*
X214565647Y-54350000D01*
X214545165Y-54207543D01*
X214485377Y-54076627D01*
X214391128Y-53967857D01*
X214270053Y-53890047D01*
X214270051Y-53890046D01*
X214270049Y-53890045D01*
X214270050Y-53890045D01*
X214131963Y-53849500D01*
X214131961Y-53849500D01*
X213988039Y-53849500D01*
X213988036Y-53849500D01*
X213849949Y-53890045D01*
X213728873Y-53967856D01*
X213634623Y-54076626D01*
X213634622Y-54076628D01*
X213574834Y-54207543D01*
X213554353Y-54350000D01*
X213270500Y-54350000D01*
X213270500Y-52517948D01*
X213290185Y-52450909D01*
X213342989Y-52405154D01*
X213412147Y-52395210D01*
X213475703Y-52424235D01*
X213488213Y-52436746D01*
X213578461Y-52540899D01*
X213583872Y-52547143D01*
X213704947Y-52624953D01*
X213704950Y-52624954D01*
X213704949Y-52624954D01*
X213812107Y-52656417D01*
X213840280Y-52664690D01*
X213843036Y-52665499D01*
X213843038Y-52665500D01*
X213939167Y-52665500D01*
X214006206Y-52685185D01*
X214026848Y-52701819D01*
X220789540Y-59464511D01*
X220845489Y-59520460D01*
X220845491Y-59520461D01*
X220845495Y-59520464D01*
X220914004Y-59560017D01*
X220914011Y-59560021D01*
X220990438Y-59580500D01*
X256928785Y-59580500D01*
X256995824Y-59600184D01*
X256998871Y-59602142D01*
X256998872Y-59602143D01*
X257119947Y-59679953D01*
X257119950Y-59679954D01*
X257119949Y-59679954D01*
X257258036Y-59720499D01*
X257258038Y-59720500D01*
X257258039Y-59720500D01*
X257401962Y-59720500D01*
X257401962Y-59720499D01*
X257540053Y-59679953D01*
X257661128Y-59602143D01*
X257755377Y-59493373D01*
X257815165Y-59362457D01*
X257835647Y-59220000D01*
X257815165Y-59077543D01*
X257755377Y-58946627D01*
X257661128Y-58837857D01*
X257540053Y-58760047D01*
X257540051Y-58760046D01*
X257540049Y-58760045D01*
X257540050Y-58760045D01*
X257401963Y-58719500D01*
X257401961Y-58719500D01*
X257258039Y-58719500D01*
X257258036Y-58719500D01*
X257119949Y-58760045D01*
X256998873Y-58837856D01*
X256913222Y-58936703D01*
X256854444Y-58974477D01*
X256819509Y-58979500D01*
X221205833Y-58979500D01*
X221138794Y-58959815D01*
X221118152Y-58943181D01*
X215052152Y-52877181D01*
X215018667Y-52815858D01*
X215023651Y-52746166D01*
X215065523Y-52690233D01*
X215130987Y-52665816D01*
X215139833Y-52665500D01*
X215209167Y-52665500D01*
X215276206Y-52685185D01*
X215296848Y-52701819D01*
X220735489Y-58140460D01*
X220804012Y-58180022D01*
X220880438Y-58200500D01*
X257011026Y-58200500D01*
X257078064Y-58220184D01*
X257139949Y-58259954D01*
X257278036Y-58300499D01*
X257278038Y-58300500D01*
X257278039Y-58300500D01*
X257421962Y-58300500D01*
X257421962Y-58300499D01*
X257560053Y-58259953D01*
X257681128Y-58182143D01*
X257775377Y-58073373D01*
X257835165Y-57942457D01*
X257855647Y-57800000D01*
X257835165Y-57657543D01*
X257775377Y-57526627D01*
X257681128Y-57417857D01*
X257560053Y-57340047D01*
X257560051Y-57340046D01*
X257560049Y-57340045D01*
X257560050Y-57340045D01*
X257421963Y-57299500D01*
X257421961Y-57299500D01*
X257278039Y-57299500D01*
X257278036Y-57299500D01*
X257139949Y-57340045D01*
X257018873Y-57417856D01*
X256924623Y-57526626D01*
X256924447Y-57527013D01*
X256924168Y-57527334D01*
X256919829Y-57534087D01*
X256918857Y-57533462D01*
X256878691Y-57579816D01*
X256811653Y-57599500D01*
X221095833Y-57599500D01*
X221028794Y-57579815D01*
X221008152Y-57563181D01*
X216322152Y-52877181D01*
X216288667Y-52815858D01*
X216293651Y-52746166D01*
X216335523Y-52690233D01*
X216400987Y-52665816D01*
X216409833Y-52665500D01*
X216479167Y-52665500D01*
X216546206Y-52685185D01*
X216566848Y-52701819D01*
X220559540Y-56694511D01*
X220615489Y-56750460D01*
X220615491Y-56750461D01*
X220615495Y-56750464D01*
X220672493Y-56783371D01*
X220684011Y-56790021D01*
X220760438Y-56810500D01*
X220839562Y-56810500D01*
X256891499Y-56810500D01*
X256958538Y-56830185D01*
X256985211Y-56853296D01*
X257018872Y-56892143D01*
X257139947Y-56969953D01*
X257139950Y-56969954D01*
X257139949Y-56969954D01*
X257278036Y-57010499D01*
X257278038Y-57010500D01*
X257278039Y-57010500D01*
X257421962Y-57010500D01*
X257421962Y-57010499D01*
X257560053Y-56969953D01*
X257681128Y-56892143D01*
X257775377Y-56783373D01*
X257835165Y-56652457D01*
X257855647Y-56510000D01*
X257835165Y-56367543D01*
X257775377Y-56236627D01*
X257681128Y-56127857D01*
X257560053Y-56050047D01*
X257560051Y-56050046D01*
X257560049Y-56050045D01*
X257560050Y-56050045D01*
X257421963Y-56009500D01*
X257421961Y-56009500D01*
X257278039Y-56009500D01*
X257278036Y-56009500D01*
X257139949Y-56050045D01*
X257018873Y-56127856D01*
X256985212Y-56166703D01*
X256926433Y-56204477D01*
X256891499Y-56209500D01*
X220975833Y-56209500D01*
X220908794Y-56189815D01*
X220888152Y-56173181D01*
X217592152Y-52877181D01*
X217558667Y-52815858D01*
X217563651Y-52746166D01*
X217605523Y-52690233D01*
X217670987Y-52665816D01*
X217679833Y-52665500D01*
X217749167Y-52665500D01*
X217816206Y-52685185D01*
X217836848Y-52701819D01*
X220605489Y-55470460D01*
X220674012Y-55510022D01*
X220750438Y-55530500D01*
X220829562Y-55530500D01*
X257001499Y-55530500D01*
X257068538Y-55550185D01*
X257095211Y-55573296D01*
X257128872Y-55612143D01*
X257249947Y-55689953D01*
X257249950Y-55689954D01*
X257249949Y-55689954D01*
X257388036Y-55730499D01*
X257388038Y-55730500D01*
X257388039Y-55730500D01*
X257531962Y-55730500D01*
X257531962Y-55730499D01*
X257670053Y-55689953D01*
X257791128Y-55612143D01*
X257885377Y-55503373D01*
X257945165Y-55372457D01*
X257947934Y-55353196D01*
X264967134Y-55353196D01*
X264986690Y-55545518D01*
X265044558Y-55729955D01*
X265044561Y-55729962D01*
X265044562Y-55729964D01*
X265138376Y-55898987D01*
X265211442Y-55986313D01*
X266350079Y-57124950D01*
X266437405Y-57198016D01*
X266606428Y-57291830D01*
X266606432Y-57291831D01*
X266606436Y-57291833D01*
X266790873Y-57349701D01*
X266823376Y-57353006D01*
X266983196Y-57369258D01*
X267157766Y-57351506D01*
X267175518Y-57349701D01*
X267359955Y-57291833D01*
X267359956Y-57291832D01*
X267359964Y-57291830D01*
X267528987Y-57198016D01*
X267616313Y-57124950D01*
X268754950Y-55986313D01*
X268828016Y-55898987D01*
X268921830Y-55729964D01*
X268921833Y-55729955D01*
X268979701Y-55545518D01*
X268983310Y-55510022D01*
X268999258Y-55353196D01*
X268979701Y-55160875D01*
X268979701Y-55160873D01*
X268921833Y-54976436D01*
X268921831Y-54976432D01*
X268921830Y-54976428D01*
X268828016Y-54807405D01*
X268754950Y-54720079D01*
X267616313Y-53581442D01*
X267547088Y-53523522D01*
X267528991Y-53508379D01*
X267528989Y-53508378D01*
X267528987Y-53508376D01*
X267423016Y-53449558D01*
X267359970Y-53414565D01*
X267359955Y-53414558D01*
X267175518Y-53356690D01*
X266983196Y-53337134D01*
X266790873Y-53356690D01*
X266606436Y-53414558D01*
X266606421Y-53414565D01*
X266437405Y-53508376D01*
X266437400Y-53508379D01*
X266375640Y-53560055D01*
X266350079Y-53581442D01*
X266350076Y-53581445D01*
X266350069Y-53581451D01*
X265211451Y-54720069D01*
X265211445Y-54720076D01*
X265211442Y-54720079D01*
X265201348Y-54732143D01*
X265138379Y-54807400D01*
X265138376Y-54807405D01*
X265044565Y-54976421D01*
X265044558Y-54976436D01*
X264986690Y-55160873D01*
X264967134Y-55353196D01*
X257947934Y-55353196D01*
X257965647Y-55230000D01*
X257945165Y-55087543D01*
X257885377Y-54956627D01*
X257791128Y-54847857D01*
X257670053Y-54770047D01*
X257670051Y-54770046D01*
X257670049Y-54770045D01*
X257670050Y-54770045D01*
X257531963Y-54729500D01*
X257531961Y-54729500D01*
X257388039Y-54729500D01*
X257388036Y-54729500D01*
X257249949Y-54770045D01*
X257128873Y-54847856D01*
X257095212Y-54886703D01*
X257036433Y-54924477D01*
X257001499Y-54929500D01*
X254707634Y-54929500D01*
X254640595Y-54909815D01*
X254594840Y-54857011D01*
X254584896Y-54787853D01*
X254613921Y-54724297D01*
X254617576Y-54720079D01*
X254675377Y-54653373D01*
X254735165Y-54522457D01*
X254755647Y-54380000D01*
X254735165Y-54237543D01*
X254675377Y-54106627D01*
X254581128Y-53997857D01*
X254460053Y-53920047D01*
X254460051Y-53920046D01*
X254460049Y-53920045D01*
X254460050Y-53920045D01*
X254321963Y-53879500D01*
X254321961Y-53879500D01*
X254225833Y-53879500D01*
X254158794Y-53859815D01*
X254138152Y-53843181D01*
X253864512Y-53569541D01*
X253864504Y-53569535D01*
X253813783Y-53540251D01*
X253813783Y-53540252D01*
X253803510Y-53534321D01*
X253795989Y-53529979D01*
X253719562Y-53509500D01*
X253719560Y-53509500D01*
X222085833Y-53509500D01*
X222018794Y-53489815D01*
X221998152Y-53473181D01*
X220804395Y-52279424D01*
X220770910Y-52218101D01*
X220769339Y-52174094D01*
X220770647Y-52165000D01*
X220750165Y-52022543D01*
X220690377Y-51891627D01*
X220596128Y-51782857D01*
X220475053Y-51705047D01*
X220475051Y-51705046D01*
X220475049Y-51705045D01*
X220475050Y-51705045D01*
X220336963Y-51664500D01*
X220336961Y-51664500D01*
X220193039Y-51664500D01*
X220193036Y-51664500D01*
X220054949Y-51705045D01*
X219933873Y-51782856D01*
X219839623Y-51891626D01*
X219839622Y-51891628D01*
X219779834Y-52022543D01*
X219759353Y-52165000D01*
X219779834Y-52307456D01*
X219832457Y-52422682D01*
X219839623Y-52438373D01*
X219933872Y-52547143D01*
X220054947Y-52624953D01*
X220054950Y-52624954D01*
X220054949Y-52624954D01*
X220162107Y-52656417D01*
X220190280Y-52664690D01*
X220193036Y-52665499D01*
X220193038Y-52665500D01*
X220289167Y-52665500D01*
X220356206Y-52685185D01*
X220376848Y-52701819D01*
X221669540Y-53994511D01*
X221725489Y-54050460D01*
X221725491Y-54050461D01*
X221725495Y-54050464D01*
X221794004Y-54090017D01*
X221794011Y-54090021D01*
X221870438Y-54110500D01*
X221949562Y-54110500D01*
X253504167Y-54110500D01*
X253571206Y-54130185D01*
X253591848Y-54146819D01*
X253710604Y-54265575D01*
X253744089Y-54326898D01*
X253745661Y-54370902D01*
X253744353Y-54379999D01*
X253764834Y-54522456D01*
X253824622Y-54653371D01*
X253824623Y-54653373D01*
X253886079Y-54724297D01*
X253915104Y-54787853D01*
X253905160Y-54857012D01*
X253859405Y-54909816D01*
X253792366Y-54929500D01*
X220965833Y-54929500D01*
X220898794Y-54909815D01*
X220878152Y-54893181D01*
X218264395Y-52279424D01*
X218230910Y-52218101D01*
X218229339Y-52174094D01*
X218230647Y-52165000D01*
X218210165Y-52022543D01*
X218150377Y-51891627D01*
X218056128Y-51782857D01*
X217935053Y-51705047D01*
X217935051Y-51705046D01*
X217935049Y-51705045D01*
X217935050Y-51705045D01*
X217796963Y-51664500D01*
X217796961Y-51664500D01*
X217653039Y-51664500D01*
X217653036Y-51664500D01*
X217514949Y-51705045D01*
X217393873Y-51782856D01*
X217299623Y-51891626D01*
X217299622Y-51891628D01*
X217239834Y-52022543D01*
X217219353Y-52165000D01*
X217219353Y-52165003D01*
X217223321Y-52192606D01*
X217213376Y-52261764D01*
X217167620Y-52314567D01*
X217100580Y-52334250D01*
X217033541Y-52314564D01*
X217012902Y-52297931D01*
X216994395Y-52279424D01*
X216960910Y-52218101D01*
X216959339Y-52174094D01*
X216960647Y-52165000D01*
X216940165Y-52022543D01*
X216880377Y-51891627D01*
X216786128Y-51782857D01*
X216665053Y-51705047D01*
X216665051Y-51705046D01*
X216665049Y-51705045D01*
X216665050Y-51705045D01*
X216526963Y-51664500D01*
X216526961Y-51664500D01*
X216383039Y-51664500D01*
X216383036Y-51664500D01*
X216244949Y-51705045D01*
X216123873Y-51782856D01*
X216029623Y-51891626D01*
X216029622Y-51891628D01*
X215969834Y-52022543D01*
X215949353Y-52165000D01*
X215949353Y-52165003D01*
X215953321Y-52192606D01*
X215943376Y-52261764D01*
X215897620Y-52314567D01*
X215830580Y-52334250D01*
X215763541Y-52314564D01*
X215742902Y-52297931D01*
X215724395Y-52279424D01*
X215690910Y-52218101D01*
X215689339Y-52174094D01*
X215690647Y-52165000D01*
X215670165Y-52022543D01*
X215610377Y-51891627D01*
X215516128Y-51782857D01*
X215395053Y-51705047D01*
X215395051Y-51705046D01*
X215395049Y-51705045D01*
X215395050Y-51705045D01*
X215256963Y-51664500D01*
X215256961Y-51664500D01*
X215113039Y-51664500D01*
X215113036Y-51664500D01*
X214974949Y-51705045D01*
X214853873Y-51782856D01*
X214759623Y-51891626D01*
X214759622Y-51891628D01*
X214699834Y-52022543D01*
X214679353Y-52165000D01*
X214679353Y-52165003D01*
X214683321Y-52192606D01*
X214673376Y-52261764D01*
X214627620Y-52314567D01*
X214560580Y-52334250D01*
X214493541Y-52314564D01*
X214472902Y-52297931D01*
X214454395Y-52279424D01*
X214420910Y-52218101D01*
X214419339Y-52174094D01*
X214420647Y-52165000D01*
X214400165Y-52022543D01*
X214340377Y-51891627D01*
X214246128Y-51782857D01*
X214125053Y-51705047D01*
X214125051Y-51705046D01*
X214125049Y-51705045D01*
X214125050Y-51705045D01*
X213986963Y-51664500D01*
X213986961Y-51664500D01*
X213843039Y-51664500D01*
X213843036Y-51664500D01*
X213704949Y-51705045D01*
X213583873Y-51782856D01*
X213489623Y-51891626D01*
X213457134Y-51962766D01*
X213411378Y-52015569D01*
X213344338Y-52035253D01*
X213277299Y-52015568D01*
X213233682Y-51965229D01*
X213233641Y-51965254D01*
X213233516Y-51965038D01*
X213231545Y-51962763D01*
X213229774Y-51958695D01*
X213229579Y-51958226D01*
X213229577Y-51958216D01*
X213229571Y-51958206D01*
X213229570Y-51958203D01*
X213150524Y-51821290D01*
X213150521Y-51821286D01*
X213150520Y-51821284D01*
X213038716Y-51709480D01*
X213038715Y-51709479D01*
X213034385Y-51705149D01*
X213034374Y-51705139D01*
X213013718Y-51684483D01*
X213013716Y-51684481D01*
X212876785Y-51605423D01*
X212724057Y-51564499D01*
X212565943Y-51564499D01*
X212451397Y-51595192D01*
X212413214Y-51605423D01*
X212276284Y-51684481D01*
X212276281Y-51684483D01*
X212164483Y-51796281D01*
X212164481Y-51796284D01*
X212085423Y-51933214D01*
X212077505Y-51962766D01*
X212044499Y-52085943D01*
X212044499Y-52244057D01*
X212063392Y-52314564D01*
X212065275Y-52321592D01*
X212069500Y-52353686D01*
X212069500Y-62461790D01*
X212069499Y-62461808D01*
X212069499Y-62627514D01*
X212069498Y-62627514D01*
X212110423Y-62780245D01*
X212139358Y-62830360D01*
X212139359Y-62830364D01*
X212139360Y-62830364D01*
X212189479Y-62917174D01*
X212189481Y-62917177D01*
X212308349Y-63036045D01*
X212308355Y-63036050D01*
X216740123Y-67467819D01*
X216773608Y-67529142D01*
X216768624Y-67598834D01*
X216726752Y-67654767D01*
X216661288Y-67679184D01*
X216652442Y-67679500D01*
X198172584Y-67679500D01*
X198019857Y-67720423D01*
X198019850Y-67720426D01*
X197882931Y-67799475D01*
X197882923Y-67799481D01*
X197771122Y-67911282D01*
X197771116Y-67911290D01*
X197692067Y-68048209D01*
X197692064Y-68048216D01*
X197651141Y-68200943D01*
X195410500Y-68200943D01*
X195410500Y-59340000D01*
X203544756Y-59340000D01*
X203563686Y-59532210D01*
X203578335Y-59580500D01*
X203619753Y-59717037D01*
X203710800Y-59887372D01*
X203710802Y-59887374D01*
X203833326Y-60036673D01*
X203923507Y-60110681D01*
X203982628Y-60159200D01*
X204152963Y-60250247D01*
X204337788Y-60306313D01*
X204530000Y-60325244D01*
X204722212Y-60306313D01*
X204907037Y-60250247D01*
X205077372Y-60159200D01*
X205226673Y-60036673D01*
X205349200Y-59887372D01*
X205440247Y-59717037D01*
X205496313Y-59532212D01*
X205515244Y-59340000D01*
X205496313Y-59147788D01*
X205440247Y-58962963D01*
X205349200Y-58792628D01*
X205279373Y-58707543D01*
X205226673Y-58643326D01*
X205077374Y-58520802D01*
X205077375Y-58520802D01*
X205077372Y-58520800D01*
X204907037Y-58429753D01*
X204776144Y-58390047D01*
X204722210Y-58373686D01*
X204530000Y-58354756D01*
X204337789Y-58373686D01*
X204152960Y-58429754D01*
X204081678Y-58467856D01*
X203982628Y-58520800D01*
X203982626Y-58520801D01*
X203982625Y-58520802D01*
X203833326Y-58643326D01*
X203710802Y-58792625D01*
X203619754Y-58962960D01*
X203563686Y-59147789D01*
X203544756Y-59340000D01*
X195410500Y-59340000D01*
X195410500Y-56840000D01*
X198544756Y-56840000D01*
X198563686Y-57032210D01*
X198563687Y-57032212D01*
X198619753Y-57217037D01*
X198710800Y-57387372D01*
X198710802Y-57387374D01*
X198833326Y-57536673D01*
X198923507Y-57610681D01*
X198982628Y-57659200D01*
X199152963Y-57750247D01*
X199337788Y-57806313D01*
X199530000Y-57825244D01*
X199722212Y-57806313D01*
X199907037Y-57750247D01*
X200077372Y-57659200D01*
X200226673Y-57536673D01*
X200349200Y-57387372D01*
X200440247Y-57217037D01*
X200496313Y-57032212D01*
X200515244Y-56840000D01*
X200496313Y-56647788D01*
X200440247Y-56462963D01*
X200349200Y-56292628D01*
X200276857Y-56204477D01*
X200226673Y-56143326D01*
X200077374Y-56020802D01*
X200077375Y-56020802D01*
X200077372Y-56020800D01*
X199907037Y-55929753D01*
X199805612Y-55898986D01*
X199722210Y-55873686D01*
X199530000Y-55854756D01*
X199337789Y-55873686D01*
X199152960Y-55929754D01*
X199050154Y-55984706D01*
X198982628Y-56020800D01*
X198982626Y-56020801D01*
X198982625Y-56020802D01*
X198833326Y-56143326D01*
X198710802Y-56292625D01*
X198619754Y-56462960D01*
X198563686Y-56647789D01*
X198544756Y-56840000D01*
X195410500Y-56840000D01*
X195410500Y-53540247D01*
X203549500Y-53540247D01*
X203549500Y-55139752D01*
X203561131Y-55198229D01*
X203561132Y-55198230D01*
X203605447Y-55264552D01*
X203671769Y-55308867D01*
X203671770Y-55308868D01*
X203730247Y-55320499D01*
X203730250Y-55320500D01*
X203730252Y-55320500D01*
X205329750Y-55320500D01*
X205329751Y-55320499D01*
X205344568Y-55317552D01*
X205388229Y-55308868D01*
X205388229Y-55308867D01*
X205388231Y-55308867D01*
X205454552Y-55264552D01*
X205498867Y-55198231D01*
X205498867Y-55198229D01*
X205498868Y-55198229D01*
X205510499Y-55139752D01*
X205510500Y-55139750D01*
X205510500Y-53540249D01*
X205510499Y-53540247D01*
X205498868Y-53481770D01*
X205498867Y-53481769D01*
X205454552Y-53415447D01*
X205388230Y-53371132D01*
X205388229Y-53371131D01*
X205329752Y-53359500D01*
X205329748Y-53359500D01*
X203730252Y-53359500D01*
X203730247Y-53359500D01*
X203671770Y-53371131D01*
X203671769Y-53371132D01*
X203605447Y-53415447D01*
X203561132Y-53481769D01*
X203561131Y-53481770D01*
X203549500Y-53540247D01*
X195410500Y-53540247D01*
X195410500Y-50555797D01*
X195430185Y-50488758D01*
X195482989Y-50443003D01*
X195552147Y-50433059D01*
X195615703Y-50462084D01*
X195646698Y-50503000D01*
X195714461Y-50647003D01*
X195714464Y-50647009D01*
X195883051Y-50912661D01*
X195883054Y-50912665D01*
X196083606Y-51155090D01*
X196083608Y-51155092D01*
X196083610Y-51155094D01*
X196125629Y-51194552D01*
X196312968Y-51370476D01*
X196312978Y-51370484D01*
X196567504Y-51555408D01*
X196567509Y-51555410D01*
X196567516Y-51555416D01*
X196843234Y-51706994D01*
X196843239Y-51706996D01*
X196843241Y-51706997D01*
X196843242Y-51706998D01*
X197135771Y-51822818D01*
X197135774Y-51822819D01*
X197403768Y-51891628D01*
X197440527Y-51901066D01*
X197506010Y-51909338D01*
X197752670Y-51940499D01*
X197752679Y-51940499D01*
X197752682Y-51940500D01*
X197752684Y-51940500D01*
X198067316Y-51940500D01*
X198067318Y-51940500D01*
X198067321Y-51940499D01*
X198067329Y-51940499D01*
X198253593Y-51916968D01*
X198379473Y-51901066D01*
X198684225Y-51822819D01*
X198751245Y-51796284D01*
X198976757Y-51706998D01*
X198976758Y-51706997D01*
X198976756Y-51706997D01*
X198976766Y-51706994D01*
X199252484Y-51555416D01*
X199507030Y-51370478D01*
X199736390Y-51155094D01*
X199936947Y-50912663D01*
X200105537Y-50647007D01*
X200188048Y-50471662D01*
X223569353Y-50471662D01*
X223589834Y-50614118D01*
X223629284Y-50700499D01*
X223649623Y-50745035D01*
X223743872Y-50853805D01*
X223864947Y-50931615D01*
X223864950Y-50931616D01*
X223864949Y-50931616D01*
X224003036Y-50972161D01*
X224003038Y-50972162D01*
X224003039Y-50972162D01*
X224146962Y-50972162D01*
X224146962Y-50972161D01*
X224285053Y-50931615D01*
X224406128Y-50853805D01*
X224500377Y-50745035D01*
X224542904Y-50651912D01*
X224568011Y-50615752D01*
X225016946Y-50166819D01*
X225078269Y-50133334D01*
X225104627Y-50130500D01*
X230202035Y-50130500D01*
X230269074Y-50150185D01*
X230289716Y-50166819D01*
X230466984Y-50344087D01*
X230492097Y-50380256D01*
X230534623Y-50473373D01*
X230628872Y-50582143D01*
X230749947Y-50659953D01*
X230749950Y-50659954D01*
X230749949Y-50659954D01*
X230888036Y-50700499D01*
X230888038Y-50700500D01*
X230888039Y-50700500D01*
X231031962Y-50700500D01*
X231031962Y-50700499D01*
X231170053Y-50659953D01*
X231291128Y-50582143D01*
X231385377Y-50473373D01*
X231445165Y-50342457D01*
X231465647Y-50200000D01*
X231445165Y-50057543D01*
X231385377Y-49926627D01*
X231291128Y-49817857D01*
X231191788Y-49754015D01*
X231170052Y-49740046D01*
X231153836Y-49735285D01*
X231101092Y-49703989D01*
X230716616Y-49319513D01*
X230716614Y-49319511D01*
X230613887Y-49260201D01*
X230576950Y-49250304D01*
X230576947Y-49250303D01*
X230539454Y-49240257D01*
X230499309Y-49229500D01*
X224807353Y-49229500D01*
X224729711Y-49250303D01*
X224729712Y-49250304D01*
X224692773Y-49260201D01*
X224590048Y-49319511D01*
X224590045Y-49319513D01*
X223933905Y-49975652D01*
X223881163Y-50006947D01*
X223864949Y-50011708D01*
X223864945Y-50011710D01*
X223743873Y-50089518D01*
X223649623Y-50198288D01*
X223649622Y-50198290D01*
X223589834Y-50329205D01*
X223569353Y-50471662D01*
X200188048Y-50471662D01*
X200239503Y-50362315D01*
X200336731Y-50063079D01*
X200395688Y-49754015D01*
X200396567Y-49740046D01*
X200415444Y-49440005D01*
X200415444Y-49439994D01*
X200395689Y-49125995D01*
X200395688Y-49125988D01*
X200395688Y-49125985D01*
X200383101Y-49060000D01*
X221044353Y-49060000D01*
X221064834Y-49202456D01*
X221094519Y-49267456D01*
X221124623Y-49333373D01*
X221218872Y-49442143D01*
X221339947Y-49519953D01*
X221339950Y-49519954D01*
X221339949Y-49519954D01*
X221478036Y-49560499D01*
X221478038Y-49560500D01*
X221478039Y-49560500D01*
X221621962Y-49560500D01*
X221621962Y-49560499D01*
X221760053Y-49519953D01*
X221881128Y-49442143D01*
X221975377Y-49333373D01*
X222017904Y-49240250D01*
X222043011Y-49204090D01*
X223050284Y-48196819D01*
X223111607Y-48163334D01*
X223137965Y-48160500D01*
X233572035Y-48160500D01*
X233639074Y-48180185D01*
X233659716Y-48196819D01*
X234731984Y-49269087D01*
X234757097Y-49305256D01*
X234779312Y-49353899D01*
X234799623Y-49398373D01*
X234893872Y-49507143D01*
X235014947Y-49584953D01*
X235014950Y-49584954D01*
X235014949Y-49584954D01*
X235122107Y-49616417D01*
X235129849Y-49618691D01*
X235153036Y-49625499D01*
X235153038Y-49625500D01*
X235153039Y-49625500D01*
X235296962Y-49625500D01*
X235296962Y-49625499D01*
X235435053Y-49584953D01*
X235556128Y-49507143D01*
X235650377Y-49398373D01*
X235710165Y-49267457D01*
X235730647Y-49125000D01*
X235710165Y-48982543D01*
X235650377Y-48851627D01*
X235556128Y-48742857D01*
X235454986Y-48677857D01*
X235435052Y-48665046D01*
X235418836Y-48660285D01*
X235368212Y-48630247D01*
X240389500Y-48630247D01*
X240389500Y-51069752D01*
X240401131Y-51128229D01*
X240401132Y-51128230D01*
X240445447Y-51194552D01*
X240511769Y-51238867D01*
X240511770Y-51238868D01*
X240570247Y-51250499D01*
X240570250Y-51250500D01*
X240570252Y-51250500D01*
X243009750Y-51250500D01*
X243009751Y-51250499D01*
X243024568Y-51247552D01*
X243068229Y-51238868D01*
X243068229Y-51238867D01*
X243068231Y-51238867D01*
X243134552Y-51194552D01*
X243178867Y-51128231D01*
X243178867Y-51128229D01*
X243178868Y-51128229D01*
X243190499Y-51069752D01*
X243190500Y-51069750D01*
X243190500Y-49849993D01*
X253084700Y-49849993D01*
X253084700Y-49850006D01*
X253103864Y-50081297D01*
X253103866Y-50081308D01*
X253160842Y-50306300D01*
X253254075Y-50518848D01*
X253381016Y-50713147D01*
X253381019Y-50713151D01*
X253381021Y-50713153D01*
X253538216Y-50883913D01*
X253538219Y-50883915D01*
X253538222Y-50883918D01*
X253721365Y-51026464D01*
X253721371Y-51026468D01*
X253721374Y-51026470D01*
X253925497Y-51136936D01*
X254039487Y-51176068D01*
X254145015Y-51212297D01*
X254145017Y-51212297D01*
X254145019Y-51212298D01*
X254373951Y-51250500D01*
X254373952Y-51250500D01*
X254606048Y-51250500D01*
X254606049Y-51250500D01*
X254834981Y-51212298D01*
X255054503Y-51136936D01*
X255258626Y-51026470D01*
X255441784Y-50883913D01*
X255598979Y-50713153D01*
X255623744Y-50675247D01*
X258384500Y-50675247D01*
X258384500Y-52414752D01*
X258396131Y-52473229D01*
X258396132Y-52473230D01*
X258440447Y-52539552D01*
X258506769Y-52583867D01*
X258506770Y-52583868D01*
X258565247Y-52595499D01*
X258565250Y-52595500D01*
X258565252Y-52595500D01*
X260304750Y-52595500D01*
X260304751Y-52595499D01*
X260319568Y-52592552D01*
X260363229Y-52583868D01*
X260363229Y-52583867D01*
X260363231Y-52583867D01*
X260429552Y-52539552D01*
X260473867Y-52473231D01*
X260473867Y-52473229D01*
X260473868Y-52473229D01*
X260485499Y-52414752D01*
X260485500Y-52414750D01*
X260485500Y-51545000D01*
X260919417Y-51545000D01*
X260939699Y-51750932D01*
X260961506Y-51822819D01*
X260997203Y-51940499D01*
X260999769Y-51948956D01*
X261004712Y-51958203D01*
X261097315Y-52131450D01*
X261124847Y-52164998D01*
X261228589Y-52291410D01*
X261304474Y-52353686D01*
X261388550Y-52422685D01*
X261571046Y-52520232D01*
X261769066Y-52580300D01*
X261769065Y-52580300D01*
X261787529Y-52582118D01*
X261975000Y-52600583D01*
X262180934Y-52580300D01*
X262378954Y-52520232D01*
X262561450Y-52422685D01*
X262721410Y-52291410D01*
X262852685Y-52131450D01*
X262950232Y-51948954D01*
X263010300Y-51750934D01*
X263030583Y-51545000D01*
X263459417Y-51545000D01*
X263479699Y-51750932D01*
X263501506Y-51822819D01*
X263537203Y-51940499D01*
X263539769Y-51948956D01*
X263544712Y-51958203D01*
X263637315Y-52131450D01*
X263664847Y-52164998D01*
X263768589Y-52291410D01*
X263844474Y-52353686D01*
X263928550Y-52422685D01*
X264111046Y-52520232D01*
X264309066Y-52580300D01*
X264309065Y-52580300D01*
X264327529Y-52582118D01*
X264515000Y-52600583D01*
X264720934Y-52580300D01*
X264850833Y-52540896D01*
X268706761Y-52540896D01*
X268706761Y-52540899D01*
X268727348Y-52776213D01*
X268727350Y-52776224D01*
X268788484Y-53004381D01*
X268788488Y-53004390D01*
X268888316Y-53218474D01*
X268946991Y-53302270D01*
X269578955Y-52670306D01*
X269595993Y-52733891D01*
X269661819Y-52847905D01*
X269754911Y-52940997D01*
X269868925Y-53006823D01*
X269932509Y-53023860D01*
X269300544Y-53655824D01*
X269384335Y-53714496D01*
X269384339Y-53714498D01*
X269598425Y-53814327D01*
X269598434Y-53814331D01*
X269826591Y-53875465D01*
X269826602Y-53875467D01*
X270061916Y-53896055D01*
X270061920Y-53896055D01*
X270297233Y-53875467D01*
X270297244Y-53875465D01*
X270525401Y-53814331D01*
X270525410Y-53814327D01*
X270739498Y-53714497D01*
X270823289Y-53655823D01*
X270191326Y-53023860D01*
X270254911Y-53006823D01*
X270368925Y-52940997D01*
X270462017Y-52847905D01*
X270527843Y-52733891D01*
X270544880Y-52670306D01*
X271176843Y-53302269D01*
X271235517Y-53218478D01*
X271335347Y-53004390D01*
X271335351Y-53004381D01*
X271396485Y-52776224D01*
X271396487Y-52776213D01*
X271417075Y-52540899D01*
X271417075Y-52540896D01*
X271396487Y-52305582D01*
X271396485Y-52305571D01*
X271335351Y-52077414D01*
X271335348Y-52077405D01*
X271309661Y-52022320D01*
X271299169Y-51953243D01*
X271327688Y-51889459D01*
X271386165Y-51851219D01*
X271456032Y-51850664D01*
X271509724Y-51882234D01*
X271730152Y-52102662D01*
X271730156Y-52102665D01*
X271730158Y-52102667D01*
X271773235Y-52131450D01*
X271779738Y-52135795D01*
X271857967Y-52151356D01*
X271857969Y-52151356D01*
X271857971Y-52151356D01*
X271911043Y-52140799D01*
X271936200Y-52135795D01*
X271985780Y-52102667D01*
X273215789Y-50872658D01*
X273248917Y-50823078D01*
X273254104Y-50797001D01*
X273264478Y-50744849D01*
X273264478Y-50744844D01*
X273248917Y-50666616D01*
X273248917Y-50666615D01*
X273232295Y-50641740D01*
X273215789Y-50617036D01*
X273215787Y-50617034D01*
X273215784Y-50617030D01*
X271985785Y-49387031D01*
X271985781Y-49387028D01*
X271936199Y-49353898D01*
X271857971Y-49338338D01*
X271857967Y-49338338D01*
X271779738Y-49353898D01*
X271779737Y-49353898D01*
X271730156Y-49387028D01*
X271730152Y-49387031D01*
X270500153Y-50617030D01*
X270500150Y-50617034D01*
X270467020Y-50666615D01*
X270467020Y-50666616D01*
X270451460Y-50744844D01*
X270451460Y-50744849D01*
X270467020Y-50823077D01*
X270467020Y-50823078D01*
X270500150Y-50872659D01*
X270500153Y-50872663D01*
X270720581Y-51093091D01*
X270754066Y-51154414D01*
X270749082Y-51224106D01*
X270707210Y-51280039D01*
X270641746Y-51304456D01*
X270580496Y-51293154D01*
X270525415Y-51267469D01*
X270525401Y-51267464D01*
X270297244Y-51206330D01*
X270297233Y-51206328D01*
X270061920Y-51185741D01*
X270061916Y-51185741D01*
X269826602Y-51206328D01*
X269826591Y-51206330D01*
X269598434Y-51267464D01*
X269598425Y-51267468D01*
X269384341Y-51367297D01*
X269384339Y-51367298D01*
X269300545Y-51425971D01*
X269300544Y-51425971D01*
X269932509Y-52057935D01*
X269868925Y-52074973D01*
X269754911Y-52140799D01*
X269661819Y-52233891D01*
X269595993Y-52347905D01*
X269578955Y-52411488D01*
X268946991Y-51779524D01*
X268946991Y-51779525D01*
X268888318Y-51863319D01*
X268888317Y-51863321D01*
X268788488Y-52077405D01*
X268788484Y-52077414D01*
X268727350Y-52305571D01*
X268727348Y-52305582D01*
X268706761Y-52540896D01*
X264850833Y-52540896D01*
X264918954Y-52520232D01*
X265101450Y-52422685D01*
X265261410Y-52291410D01*
X265392685Y-52131450D01*
X265490232Y-51948954D01*
X265550300Y-51750934D01*
X265570583Y-51545000D01*
X265550300Y-51339066D01*
X265490232Y-51141046D01*
X265392685Y-50958550D01*
X265339395Y-50893616D01*
X265261410Y-50798589D01*
X265111121Y-50675252D01*
X265101450Y-50667315D01*
X264918954Y-50569768D01*
X264720934Y-50509700D01*
X264720932Y-50509699D01*
X264720934Y-50509699D01*
X264515000Y-50489417D01*
X264309067Y-50509699D01*
X264111043Y-50569769D01*
X264000898Y-50628643D01*
X263928550Y-50667315D01*
X263928548Y-50667316D01*
X263928547Y-50667317D01*
X263768589Y-50798589D01*
X263637317Y-50958547D01*
X263539769Y-51141043D01*
X263479699Y-51339067D01*
X263459417Y-51545000D01*
X263030583Y-51545000D01*
X263010300Y-51339066D01*
X262950232Y-51141046D01*
X262852685Y-50958550D01*
X262799395Y-50893616D01*
X262721410Y-50798589D01*
X262571121Y-50675252D01*
X262561450Y-50667315D01*
X262378954Y-50569768D01*
X262180934Y-50509700D01*
X262180932Y-50509699D01*
X262180934Y-50509699D01*
X261975000Y-50489417D01*
X261769067Y-50509699D01*
X261571043Y-50569769D01*
X261460898Y-50628643D01*
X261388550Y-50667315D01*
X261388548Y-50667316D01*
X261388547Y-50667317D01*
X261228589Y-50798589D01*
X261097317Y-50958547D01*
X260999769Y-51141043D01*
X260939699Y-51339067D01*
X260919417Y-51545000D01*
X260485500Y-51545000D01*
X260485500Y-50675249D01*
X260485499Y-50675247D01*
X260473868Y-50616770D01*
X260473867Y-50616769D01*
X260429552Y-50550447D01*
X260363230Y-50506132D01*
X260363229Y-50506131D01*
X260304752Y-50494500D01*
X260304748Y-50494500D01*
X258565252Y-50494500D01*
X258565247Y-50494500D01*
X258506770Y-50506131D01*
X258506769Y-50506132D01*
X258440447Y-50550447D01*
X258396132Y-50616769D01*
X258396131Y-50616770D01*
X258384500Y-50675247D01*
X255623744Y-50675247D01*
X255725924Y-50518849D01*
X255819157Y-50306300D01*
X255876134Y-50081305D01*
X255877644Y-50063083D01*
X255895300Y-49850006D01*
X255895300Y-49849993D01*
X255876135Y-49618702D01*
X255876133Y-49618691D01*
X255819157Y-49393699D01*
X255725924Y-49181151D01*
X255598983Y-48986852D01*
X255598980Y-48986849D01*
X255598979Y-48986847D01*
X255441784Y-48816087D01*
X255441779Y-48816083D01*
X255441777Y-48816081D01*
X255258634Y-48673535D01*
X255258628Y-48673531D01*
X255054504Y-48563064D01*
X255054495Y-48563061D01*
X254834984Y-48487702D01*
X254663282Y-48459050D01*
X254606049Y-48449500D01*
X254373951Y-48449500D01*
X254328164Y-48457140D01*
X254145015Y-48487702D01*
X253925504Y-48563061D01*
X253925495Y-48563064D01*
X253721371Y-48673531D01*
X253721365Y-48673535D01*
X253538222Y-48816081D01*
X253538219Y-48816084D01*
X253381016Y-48986852D01*
X253254075Y-49181151D01*
X253160842Y-49393699D01*
X253103866Y-49618691D01*
X253103864Y-49618702D01*
X253084700Y-49849993D01*
X243190500Y-49849993D01*
X243190500Y-48630249D01*
X243190499Y-48630247D01*
X243178868Y-48571770D01*
X243178867Y-48571769D01*
X243134552Y-48505447D01*
X243068230Y-48461132D01*
X243068229Y-48461131D01*
X243009752Y-48449500D01*
X243009748Y-48449500D01*
X240570252Y-48449500D01*
X240570247Y-48449500D01*
X240511770Y-48461131D01*
X240511769Y-48461132D01*
X240445447Y-48505447D01*
X240401132Y-48571769D01*
X240401131Y-48571770D01*
X240389500Y-48630247D01*
X235368212Y-48630247D01*
X235366092Y-48628989D01*
X234086616Y-47349513D01*
X234086614Y-47349511D01*
X234027302Y-47315267D01*
X233983888Y-47290201D01*
X233971780Y-47286957D01*
X233959673Y-47283713D01*
X233959670Y-47283712D01*
X233921478Y-47273478D01*
X233869309Y-47259500D01*
X222840691Y-47259500D01*
X222771944Y-47277920D01*
X222726112Y-47290201D01*
X222726107Y-47290204D01*
X222682695Y-47315267D01*
X222682696Y-47315268D01*
X222623389Y-47349508D01*
X222623383Y-47349513D01*
X221408905Y-48563990D01*
X221356163Y-48595285D01*
X221339949Y-48600046D01*
X221339945Y-48600048D01*
X221218873Y-48677856D01*
X221124623Y-48786626D01*
X221124622Y-48786628D01*
X221064834Y-48917543D01*
X221044353Y-49060000D01*
X200383101Y-49060000D01*
X200336731Y-48816921D01*
X200239503Y-48517685D01*
X200105537Y-48232993D01*
X199936947Y-47967337D01*
X199918983Y-47945622D01*
X199736393Y-47724909D01*
X199736391Y-47724907D01*
X199507031Y-47509523D01*
X199507021Y-47509515D01*
X199252495Y-47324591D01*
X199252488Y-47324586D01*
X199252484Y-47324584D01*
X198977048Y-47173161D01*
X198927785Y-47123616D01*
X198913129Y-47055301D01*
X198937733Y-46989906D01*
X198993786Y-46948195D01*
X199036787Y-46940500D01*
X277783213Y-46940500D01*
X277850252Y-46960185D01*
G37*
%TD.AperFunction*%
%TD*%
M02*
