M48
; DRILL file {KiCad 8.0.7} date 2025-10-15T01:11:39+0200
; FORMAT={-:-/ absolute / inch / decimal}
; #@! TF.CreationDate,2025-10-15T01:11:39+02:00
; #@! TF.GenerationSoftware,Kicad,Pcbnew,8.0.7
; #@! TF.FileFunction,Plated,1,2,PTH
FMAT,2
INCH
; #@! TA.AperFunction,Plated,PTH,ViaDrill
T1C0.0118
; #@! TA.AperFunction,Plated,PTH,ComponentDrill
T2C0.0236
; #@! TA.AperFunction,Plated,PTH,ComponentDrill
T3C0.0394
; #@! TA.AperFunction,Plated,PTH,ComponentDrill
T4C0.0472
; #@! TA.AperFunction,Plated,PTH,ComponentDrill
T5C0.0591
%
G90
G05
T1
X7.8004Y-3.5854
X7.8012Y-3.1563
X7.8052Y-2.6882
X7.8126Y-2.624
X7.8583Y-3.6551
X7.8591Y-3.2147
X7.8642Y-3.5252
X7.9185Y-2.6882
X7.923Y-3.0831
X7.9567Y-3.7964
X7.974Y-2.626
X7.9767Y-3.272
X7.9787Y-3.4748
X8.0256Y-3.7142
X8.0256Y-3.7859
X8.0318Y-2.6882
X8.037Y-3.3343
X8.037Y-3.3768
X8.0374Y-3.42
X8.0728Y-3.7551
X8.0866Y-2.6287
X8.1452Y-2.6882
X8.1461Y-3.8
X8.1461Y-3.9949
X8.1673Y-3.1563
X8.1673Y-3.5854
X8.2063Y-2.6268
X8.226Y-3.2146
X8.2268Y-3.6543
X8.2295Y-3.5252
X8.2585Y-2.6882
X8.2874Y-3.0846
X8.3059Y-2.1815
X8.3067Y-2.2181
X8.3067Y-2.2724
X8.3067Y-2.3547
X8.3114Y-2.6283
X8.322Y-3.7964
X8.328Y-2.0512
X8.3283Y-2.0843
X8.3424Y-3.272
X8.3461Y-3.4748
X8.3718Y-2.6882
X8.3719Y-2.0537
X8.3909Y-3.7122
X8.3909Y-3.7859
X8.4031Y-3.3343
X8.4031Y-3.3772
X8.4031Y-3.42
X8.4098Y-2.6528
X8.4219Y-2.0537
X8.424Y-2.3563
X8.4264Y-2.1815
X8.4264Y-2.3169
X8.4276Y-2.1398
X8.4283Y-2.2709
X8.4291Y-2.2181
X8.4358Y-3.7571
X8.4719Y-2.0537
X8.4852Y-2.6882
X8.5059Y-2.3547
X8.5177Y-3.9799
X8.5201Y-3.8031
X8.5219Y-2.0537
X8.5335Y-3.1563
X8.5335Y-3.5854
X8.561Y-2.5598
X8.5719Y-2.0537
X8.589Y-3.6551
X8.5921Y-3.2146
X8.5957Y-3.5252
X8.5985Y-2.6882
X8.6164Y-2.5994
X8.6524Y-3.0823
X8.6719Y-2.0537
X8.6886Y-3.7964
X8.7004Y-2.602
X8.7082Y-3.272
X8.7118Y-2.6882
X8.713Y-3.4756
X8.7224Y-1.9315
X8.7575Y-3.7142
X8.7575Y-3.7859
X8.7614Y-2.6295
X8.7701Y-3.3343
X8.7709Y-3.42
X8.7713Y-3.3744
X8.802Y-3.7555
X8.8219Y-1.9871
X8.8251Y-2.6882
X8.8378Y-2.6217
X8.8764Y-3.8031
X8.8776Y-3.9787
X8.8996Y-3.1563
X8.9016Y-3.5854
X8.9385Y-2.6882
X8.9453Y-2.6224
X8.9579Y-3.6587
X8.9583Y-3.2146
X8.9606Y-3.5252
X8.965Y-2.4929
X9.0146Y-3.0839
X9.0518Y-2.6882
X9.0524Y-2.6264
X9.0543Y-3.7964
X9.0747Y-3.272
X9.076Y-3.4736
X9.0929Y-1.9764
X9.1232Y-3.7149
X9.1232Y-3.7859
X9.135Y-3.374
X9.1362Y-3.3343
X9.1362Y-3.42
X9.165Y-3.7539
X9.1651Y-2.6882
X9.1673Y-2.6236
X9.237Y-3.774
X9.2374Y-3.9764
X9.2608Y-1.9341
X9.2657Y-3.1563
X9.2657Y-3.5854
X9.278Y-2.622
X9.2785Y-2.6882
X9.3236Y-3.6579
X9.3244Y-3.2146
X9.3272Y-3.5252
X9.3819Y-3.0858
X9.3918Y-2.6882
X9.3929Y-2.6185
X9.4213Y-3.7937
X9.4362Y-3.272
X9.4413Y-3.4728
X9.4902Y-3.7859
X9.4902Y-3.7141
X9.502Y-3.3343
X9.5024Y-3.3744
X9.5028Y-3.42
X9.5051Y-2.6882
X9.5055Y-2.6181
X9.5339Y-3.7528
X9.5504Y-3.6587
X9.6063Y-3.378
X9.624Y-3.9697
X9.6554Y-3.0946
X9.6554Y-3.1746
X9.6554Y-3.2546
X9.6554Y-3.3346
X9.6554Y-3.4146
X9.6554Y-3.4946
X9.6554Y-3.5746
X9.6554Y-3.6546
X9.6571Y-3.7567
X9.689Y-3.2965
X9.6902Y-3.5378
X9.6902Y-3.6169
X9.6906Y-3.2173
X9.6906Y-3.3744
X9.6913Y-3.4528
X9.6917Y-3.0535
X9.6917Y-3.1331
X9.6988Y-2.7677
X9.7362Y-2.8067
X9.776Y-2.8453
X9.7988Y-2.7012
X9.8126Y-3.748
X9.8189Y-2.885
X9.8252Y-3.9736
X9.8425Y-2.7335
X9.8547Y-3.0177
X9.863Y-2.928
X9.8638Y-3.748
X9.8665Y-3.9736
X9.8705Y-3.4524
X9.8705Y-3.6106
X9.8713Y-3.1311
X9.8717Y-3.2906
X9.8803Y-2.7756
X9.8972Y-3.0177
X9.9039Y-3.9748
X9.9232Y-2.8161
X9.9248Y-3.2547
X9.9287Y-3.5717
X9.9291Y-3.4142
X9.9291Y-3.7484
X9.9386Y-3.0177
X9.9575Y-2.8646
X9.9709Y-3.7516
X9.9728Y-2.961
X10.0094Y-3.7531
X10.0098Y-2.1409
X10.0217Y-3.5311
X10.022Y-3.6909
X10.024Y-3.2114
X10.0244Y-3.3705
X10.0476Y-2.1264
X10.0992Y-2.1988
X10.0992Y-2.2512
X10.0992Y-2.3047
X10.1004Y-2.1433
X10.1016Y-2.3622
X10.1311Y-2.3315
X10.1319Y-2.2248
X10.1319Y-2.2756
X10.1362Y-2.1744
X10.1457Y-3.659
X10.1457Y-3.1767
X10.1457Y-3.3374
X10.1457Y-3.4982
X10.1551Y-3.1146
X10.1579Y-2.9996
X10.2043Y-3.0
X10.2205Y-3.5855
X10.2205Y-3.7528
X10.2205Y-3.4183
X10.2213Y-3.2469
X10.2378Y-3.0917
X10.252Y-3.0
X10.2846Y-3.7224
X10.2862Y-3.1634
X10.2862Y-3.376
X10.2862Y-3.5654
X10.2866Y-3.2823
X10.2936Y-3.6713
X10.3173Y-3.0917
X10.3366Y-3.6114
X10.3472Y-3.4697
X10.4002Y-3.577
X10.4102Y-4.0504
X10.489Y-2.4256
X10.5055Y-4.0496
X10.5154Y-3.6083
X10.5293Y-2.4463
X10.5472Y-2.3555
X10.5472Y-2.3996
X10.5646Y-3.939
X10.5661Y-3.7921
X10.5661Y-3.9004
X10.5669Y-3.8288
X10.5669Y-3.8622
X10.5713Y-3.613
X10.5961Y-3.3598
X10.5961Y-3.4543
X10.5961Y-3.4858
X10.6012Y-3.9413
X10.6051Y-4.0496
X10.6205Y-3.6098
X10.647Y-3.5349
X10.6539Y-2.5701
X10.6764Y-2.6067
X10.7024Y-4.0524
X10.7063Y-3.537
X10.7272Y-2.6386
X10.7406Y-3.4709
X10.7575Y-2.6154
X10.7697Y-3.5402
X10.7764Y-3.4654
X10.8106Y-3.2713
X10.8106Y-3.6059
X10.8161Y-3.1063
X10.8413Y-3.4075
X10.8421Y-3.2713
X10.8421Y-3.6059
X10.8488Y-3.1272
X10.8717Y-3.3264
X10.8736Y-3.2713
X10.8736Y-3.6059
X10.9043Y-3.7071
X10.9307Y-3.5173
X10.9307Y-3.5488
X10.9815Y-3.2921
X10.989Y-2.5703
X10.989Y-3.0217
X11.0004Y-2.8956
X11.011Y-3.498
X11.0237Y-2.8051
X11.0465Y-2.6571
X11.0587Y-2.6217
T2
X10.4579Y-2.9728
X10.4579Y-3.0516
T3
X7.8555Y-2.2378
X8.0524Y-2.1394
X8.0524Y-2.3362
X9.7807Y-2.565
X9.8807Y-2.565
X10.214Y-2.0293
X10.314Y-2.0293
X10.3593Y-4.0067
X10.3593Y-4.1067
X10.414Y-2.0293
X10.4593Y-4.0067
X10.4593Y-4.1067
X10.5593Y-4.0067
X10.5593Y-4.1067
X10.6324Y-2.0685
X10.6593Y-4.0067
X10.6593Y-4.1067
X10.7031Y-1.9978
X10.7593Y-4.0067
X10.7593Y-4.1067
T4
X9.5193Y-1.9626
X10.0193Y-1.9626
T5
X10.0546Y-2.6358
X10.3163Y-2.8975
X10.5111Y-2.1793
X10.7728Y-2.4409
M30
