%TF.GenerationSoftware,KiCad,Pcbnew,8.0.7*%
%TF.CreationDate,2025-10-15T01:11:38+02:00*%
%TF.ProjectId,Mandalorian_and_Moff_Gideon,4d616e64-616c-46f7-9269-616e5f616e64,rev?*%
%TF.SameCoordinates,Original*%
%TF.FileFunction,Paste,Top*%
%TF.FilePolarity,Positive*%
%FSLAX46Y46*%
G04 Gerber Fmt 4.6, Leading zero omitted, Abs format (unit mm)*
G04 Created by KiCad (PCBNEW 8.0.7) date 2025-10-15 01:11:38*
%MOMM*%
%LPD*%
G01*
G04 APERTURE LIST*
G04 Aperture macros list*
%AMRoundRect*
0 Rectangle with rounded corners*
0 $1 Rounding radius*
0 $2 $3 $4 $5 $6 $7 $8 $9 X,Y pos of 4 corners*
0 Add a 4 corners polygon primitive as box body*
4,1,4,$2,$3,$4,$5,$6,$7,$8,$9,$2,$3,0*
0 Add four circle primitives for the rounded corners*
1,1,$1+$1,$2,$3*
1,1,$1+$1,$4,$5*
1,1,$1+$1,$6,$7*
1,1,$1+$1,$8,$9*
0 Add four rect primitives between the rounded corners*
20,1,$1+$1,$2,$3,$4,$5,0*
20,1,$1+$1,$4,$5,$6,$7,0*
20,1,$1+$1,$6,$7,$8,$9,0*
20,1,$1+$1,$8,$9,$2,$3,0*%
G04 Aperture macros list end*
%ADD10RoundRect,0.250000X0.450000X-0.262500X0.450000X0.262500X-0.450000X0.262500X-0.450000X-0.262500X0*%
%ADD11RoundRect,0.150000X0.150000X-0.587500X0.150000X0.587500X-0.150000X0.587500X-0.150000X-0.587500X0*%
%ADD12RoundRect,0.150000X-0.150000X0.587500X-0.150000X-0.587500X0.150000X-0.587500X0.150000X0.587500X0*%
%ADD13RoundRect,0.243750X0.456250X-0.243750X0.456250X0.243750X-0.456250X0.243750X-0.456250X-0.243750X0*%
%ADD14R,1.000000X2.300000*%
%ADD15RoundRect,0.150000X0.587500X0.150000X-0.587500X0.150000X-0.587500X-0.150000X0.587500X-0.150000X0*%
%ADD16RoundRect,0.250000X-0.450000X0.262500X-0.450000X-0.262500X0.450000X-0.262500X0.450000X0.262500X0*%
%ADD17RoundRect,0.250000X0.475000X-0.250000X0.475000X0.250000X-0.475000X0.250000X-0.475000X-0.250000X0*%
%ADD18RoundRect,0.250000X0.262500X0.450000X-0.262500X0.450000X-0.262500X-0.450000X0.262500X-0.450000X0*%
%ADD19R,0.700000X1.950000*%
%ADD20R,2.000000X1.000000*%
%ADD21R,2.000000X0.950000*%
%ADD22RoundRect,0.218750X0.256250X-0.218750X0.256250X0.218750X-0.256250X0.218750X-0.256250X-0.218750X0*%
%ADD23RoundRect,0.250000X-0.262500X-0.450000X0.262500X-0.450000X0.262500X0.450000X-0.262500X0.450000X0*%
%ADD24R,1.600000X0.550000*%
%ADD25R,0.550000X1.600000*%
%ADD26RoundRect,0.250000X-0.475000X0.250000X-0.475000X-0.250000X0.475000X-0.250000X0.475000X0.250000X0*%
G04 APERTURE END LIST*
D10*
%TO.C,R28*%
X229915768Y-70105000D03*
X229915768Y-68280000D03*
%TD*%
D11*
%TO.C,Q14*%
X278140000Y-69235000D03*
X280040000Y-69235000D03*
X279090000Y-67360000D03*
%TD*%
D12*
%TO.C,Q15*%
X280070000Y-63410000D03*
X278170000Y-63410000D03*
X279120000Y-65285000D03*
%TD*%
D10*
%TO.C,R29*%
X232794325Y-70105000D03*
X232794325Y-68280000D03*
%TD*%
%TO.C,R20*%
X206887312Y-70105000D03*
X206887312Y-68280000D03*
%TD*%
%TO.C,R2*%
X267130000Y-84632500D03*
X267130000Y-82807500D03*
%TD*%
%TO.C,R34*%
X259600000Y-92897500D03*
X259600000Y-91072500D03*
%TD*%
D11*
%TO.C,Q5*%
X237400000Y-96427500D03*
X239300000Y-96427500D03*
X238350000Y-94552500D03*
%TD*%
D13*
%TO.C,D10*%
X221301097Y-73490000D03*
X221301097Y-71615000D03*
%TD*%
%TO.C,D8*%
X215549983Y-73490000D03*
X215549983Y-71615000D03*
%TD*%
D10*
%TO.C,R31*%
X238551439Y-70105000D03*
X238551439Y-68280000D03*
%TD*%
D14*
%TO.C,U2*%
X198150000Y-91070000D03*
X199650000Y-91070000D03*
X201150000Y-91070000D03*
X202650000Y-91070000D03*
X204150000Y-91070000D03*
X204150000Y-80170000D03*
X202650000Y-80170000D03*
X201150000Y-80170000D03*
X199650000Y-80170000D03*
X198150000Y-80170000D03*
%TD*%
D15*
%TO.C,Q9*%
X250740000Y-83610000D03*
X250740000Y-81710000D03*
X248865000Y-82660000D03*
%TD*%
D13*
%TO.C,D3*%
X201172198Y-73490000D03*
X201172198Y-71615000D03*
%TD*%
D16*
%TO.C,R52*%
X244490000Y-102895000D03*
X244490000Y-104720000D03*
%TD*%
D10*
%TO.C,R45*%
X279540000Y-80022500D03*
X279540000Y-78197500D03*
%TD*%
D13*
%TO.C,D2*%
X198296641Y-73490000D03*
X198296641Y-71615000D03*
%TD*%
D10*
%TO.C,R39*%
X257700000Y-90679166D03*
X257700000Y-88854166D03*
%TD*%
D16*
%TO.C,R14*%
X231730000Y-94337500D03*
X231730000Y-96162500D03*
%TD*%
D15*
%TO.C,Q10*%
X250717500Y-91740000D03*
X250717500Y-89840000D03*
X248842500Y-90790000D03*
%TD*%
D13*
%TO.C,D16*%
X238554439Y-73490000D03*
X238554439Y-71615000D03*
%TD*%
D15*
%TO.C,Q11*%
X254555000Y-93770000D03*
X254555000Y-91870000D03*
X252680000Y-92820000D03*
%TD*%
D10*
%TO.C,R19*%
X204008755Y-70105000D03*
X204008755Y-68280000D03*
%TD*%
%TO.C,R38*%
X257700000Y-82512500D03*
X257700000Y-80687500D03*
%TD*%
D13*
%TO.C,D12*%
X227052211Y-73490000D03*
X227052211Y-71615000D03*
%TD*%
D17*
%TO.C,C2*%
X279680000Y-88850000D03*
X279680000Y-86950000D03*
%TD*%
D13*
%TO.C,D5*%
X206923312Y-73490000D03*
X206923312Y-71615000D03*
%TD*%
%TO.C,D9*%
X218425540Y-73490000D03*
X218425540Y-71615000D03*
%TD*%
%TO.C,D14*%
X232803325Y-73490000D03*
X232803325Y-71615000D03*
%TD*%
D11*
%TO.C,Q3*%
X218790000Y-96427500D03*
X220690000Y-96427500D03*
X219740000Y-94552500D03*
%TD*%
D10*
%TO.C,R37*%
X259600000Y-84402500D03*
X259600000Y-82577500D03*
%TD*%
D18*
%TO.C,R6*%
X247072500Y-90796000D03*
X245247500Y-90796000D03*
%TD*%
D13*
%TO.C,D11*%
X224176654Y-73490000D03*
X224176654Y-71615000D03*
%TD*%
D10*
%TO.C,R26*%
X224158654Y-70105000D03*
X224158654Y-68280000D03*
%TD*%
D11*
%TO.C,Q1*%
X200200000Y-96427500D03*
X202100000Y-96427500D03*
X201150000Y-94552500D03*
%TD*%
D10*
%TO.C,R27*%
X227037211Y-70105000D03*
X227037211Y-68280000D03*
%TD*%
D16*
%TO.C,R11*%
X203850012Y-94337500D03*
X203850012Y-96162500D03*
%TD*%
D18*
%TO.C,R8*%
X247072500Y-80636000D03*
X245247500Y-80636000D03*
%TD*%
D15*
%TO.C,Q12*%
X250735000Y-87690000D03*
X250735000Y-85790000D03*
X248860000Y-86740000D03*
%TD*%
D10*
%TO.C,R42*%
X279410000Y-75372500D03*
X279410000Y-73547500D03*
%TD*%
D16*
%TO.C,R48*%
X256240000Y-100387500D03*
X256240000Y-102212500D03*
%TD*%
%TO.C,R16*%
X241050000Y-94337500D03*
X241050000Y-96162500D03*
%TD*%
D17*
%TO.C,C1*%
X212560000Y-50189000D03*
X212560000Y-48289000D03*
%TD*%
D15*
%TO.C,Q13*%
X254610000Y-81570000D03*
X254610000Y-79670000D03*
X252735000Y-80620000D03*
%TD*%
D18*
%TO.C,R5*%
X247072500Y-88764000D03*
X245247500Y-88764000D03*
%TD*%
D19*
%TO.C,IC1*%
X212645000Y-61615000D03*
X213915000Y-61615000D03*
X215185000Y-61615000D03*
X216455000Y-61615000D03*
X217725000Y-61615000D03*
X218995000Y-61615000D03*
X220265000Y-61615000D03*
X221535000Y-61615000D03*
X222805000Y-61615000D03*
X224075000Y-61615000D03*
X225345000Y-61615000D03*
X226615000Y-61615000D03*
X226615000Y-52165000D03*
X225345000Y-52165000D03*
X224075000Y-52165000D03*
X222805000Y-52165000D03*
X221535000Y-52165000D03*
X220265000Y-52165000D03*
X218995000Y-52165000D03*
X217725000Y-52165000D03*
X216455000Y-52165000D03*
X215185000Y-52165000D03*
X213915000Y-52165000D03*
X212645000Y-52165000D03*
%TD*%
D10*
%TO.C,R33*%
X259600000Y-88650000D03*
X259600000Y-86825000D03*
%TD*%
D13*
%TO.C,D7*%
X212674426Y-73490000D03*
X212674426Y-71615000D03*
%TD*%
D18*
%TO.C,R4*%
X247072500Y-84700000D03*
X245247500Y-84700000D03*
%TD*%
D15*
%TO.C,Q6*%
X250730000Y-79560000D03*
X250730000Y-77660000D03*
X248855000Y-78610000D03*
%TD*%
%TO.C,Q7*%
X254585000Y-89700000D03*
X254585000Y-87800000D03*
X252710000Y-88750000D03*
%TD*%
D14*
%TO.C,U4*%
X216750000Y-91070000D03*
X218250000Y-91070000D03*
X219750000Y-91070000D03*
X221250000Y-91070000D03*
X222750000Y-91070000D03*
X222750000Y-80170000D03*
X221250000Y-80170000D03*
X219750000Y-80170000D03*
X218250000Y-80170000D03*
X216750000Y-80170000D03*
%TD*%
D11*
%TO.C,Q2*%
X209480000Y-96427500D03*
X211380000Y-96427500D03*
X210430000Y-94552500D03*
%TD*%
D20*
%TO.C,LS20*%
X246830000Y-104703250D03*
X253830000Y-104703250D03*
D21*
X246830000Y-101103250D03*
D20*
X253830000Y-102203250D03*
D21*
X246830000Y-99603250D03*
D20*
X253830000Y-99703250D03*
%TD*%
D13*
%TO.C,D17*%
X241430000Y-73490000D03*
X241430000Y-71615000D03*
%TD*%
D10*
%TO.C,R46*%
X207270000Y-54332500D03*
X207270000Y-52507500D03*
%TD*%
%TO.C,R44*%
X277640000Y-80022500D03*
X277640000Y-78197500D03*
%TD*%
D11*
%TO.C,Q4*%
X228080000Y-96427500D03*
X229980000Y-96427500D03*
X229030000Y-94552500D03*
%TD*%
D10*
%TO.C,R25*%
X221280097Y-70105000D03*
X221280097Y-68280000D03*
%TD*%
%TO.C,R18*%
X201130198Y-70105000D03*
X201130198Y-68280000D03*
%TD*%
D15*
%TO.C,Q8*%
X254595000Y-85640000D03*
X254595000Y-83740000D03*
X252720000Y-84690000D03*
%TD*%
D13*
%TO.C,D15*%
X235678882Y-73490000D03*
X235678882Y-71615000D03*
%TD*%
D16*
%TO.C,R40*%
X257700000Y-84770833D03*
X257700000Y-86595833D03*
%TD*%
D14*
%TO.C,U6*%
X235350000Y-91070000D03*
X236850000Y-91070000D03*
X238350000Y-91070000D03*
X239850000Y-91070000D03*
X241350000Y-91070000D03*
X241350000Y-80170000D03*
X239850000Y-80170000D03*
X238350000Y-80170000D03*
X236850000Y-80170000D03*
X235350000Y-80170000D03*
%TD*%
D10*
%TO.C,R22*%
X212644426Y-70105000D03*
X212644426Y-68280000D03*
%TD*%
D16*
%TO.C,R12*%
X213130030Y-94337500D03*
X213130030Y-96162500D03*
%TD*%
D10*
%TO.C,R30*%
X235672882Y-70105000D03*
X235672882Y-68280000D03*
%TD*%
%TO.C,R17*%
X198251641Y-70105000D03*
X198251641Y-68280000D03*
%TD*%
D18*
%TO.C,R7*%
X247072500Y-92828000D03*
X245247500Y-92828000D03*
%TD*%
D17*
%TO.C,C4*%
X214520000Y-50189000D03*
X214520000Y-48289000D03*
%TD*%
D10*
%TO.C,R41*%
X277490000Y-75372500D03*
X277490000Y-73547500D03*
%TD*%
D18*
%TO.C,R3*%
X247072500Y-82668000D03*
X245247500Y-82668000D03*
%TD*%
%TO.C,R10*%
X247072500Y-86732000D03*
X245247500Y-86732000D03*
%TD*%
D10*
%TO.C,R35*%
X257700000Y-94762500D03*
X257700000Y-92937500D03*
%TD*%
D22*
%TO.C,D1*%
X265450000Y-84477500D03*
X265450000Y-82902500D03*
%TD*%
D10*
%TO.C,R23*%
X215522983Y-70105000D03*
X215522983Y-68280000D03*
%TD*%
%TO.C,R36*%
X259600000Y-97145000D03*
X259600000Y-95320000D03*
%TD*%
D13*
%TO.C,D6*%
X209798869Y-73490000D03*
X209798869Y-71615000D03*
%TD*%
D10*
%TO.C,R21*%
X209765869Y-70105000D03*
X209765869Y-68280000D03*
%TD*%
D23*
%TO.C,R1*%
X275257500Y-96380000D03*
X277082500Y-96380000D03*
%TD*%
D16*
%TO.C,R15*%
X219000000Y-48354000D03*
X219000000Y-50179000D03*
%TD*%
D10*
%TO.C,R24*%
X218401540Y-70105000D03*
X218401540Y-68280000D03*
%TD*%
D18*
%TO.C,R43*%
X280042500Y-61360000D03*
X278217500Y-61360000D03*
%TD*%
D14*
%TO.C,U3*%
X207450000Y-91070000D03*
X208950000Y-91070000D03*
X210450000Y-91070000D03*
X211950000Y-91070000D03*
X213450000Y-91070000D03*
X213450000Y-80170000D03*
X211950000Y-80170000D03*
X210450000Y-80170000D03*
X208950000Y-80170000D03*
X207450000Y-80170000D03*
%TD*%
D13*
%TO.C,D4*%
X204047755Y-73490000D03*
X204047755Y-71615000D03*
%TD*%
D18*
%TO.C,R47*%
X280002500Y-71250000D03*
X278177500Y-71250000D03*
%TD*%
D10*
%TO.C,R32*%
X241430000Y-70105000D03*
X241430000Y-68280000D03*
%TD*%
D18*
%TO.C,R9*%
X247072500Y-78604000D03*
X245247500Y-78604000D03*
%TD*%
D16*
%TO.C,R51*%
X267090000Y-89827500D03*
X267090000Y-91652500D03*
%TD*%
D13*
%TO.C,D13*%
X229927768Y-73490000D03*
X229927768Y-71615000D03*
%TD*%
D14*
%TO.C,U5*%
X226050000Y-91070000D03*
X227550000Y-91070000D03*
X229050000Y-91070000D03*
X230550000Y-91070000D03*
X232050000Y-91070000D03*
X232050000Y-80170000D03*
X230550000Y-80170000D03*
X229050000Y-80170000D03*
X227550000Y-80170000D03*
X226050000Y-80170000D03*
%TD*%
D16*
%TO.C,R13*%
X222440000Y-94337500D03*
X222440000Y-96162500D03*
%TD*%
D24*
%TO.C,U7*%
X277640000Y-90140000D03*
X277640000Y-89340000D03*
X277640000Y-88540000D03*
X277640000Y-87740000D03*
X277640000Y-86940000D03*
X277640000Y-86140000D03*
X277640000Y-85340000D03*
X277640000Y-84540000D03*
D25*
X276190000Y-83090000D03*
X275390000Y-83090000D03*
X274590000Y-83090000D03*
X273790000Y-83090000D03*
X272990000Y-83090000D03*
X272190000Y-83090000D03*
X271390000Y-83090000D03*
X270590000Y-83090000D03*
D24*
X269140000Y-84540000D03*
X269140000Y-85340000D03*
X269140000Y-86140000D03*
X269140000Y-86940000D03*
X269140000Y-87740000D03*
X269140000Y-88540000D03*
X269140000Y-89340000D03*
X269140000Y-90140000D03*
D25*
X270590000Y-91590000D03*
X271390000Y-91590000D03*
X272190000Y-91590000D03*
X272990000Y-91590000D03*
X273790000Y-91590000D03*
X274590000Y-91590000D03*
X275390000Y-91590000D03*
X276190000Y-91590000D03*
%TD*%
D26*
%TO.C,C5*%
X267110000Y-86400000D03*
X267110000Y-88300000D03*
%TD*%
M02*
